<svg width="32" height="32" viewBox="0 0 32 32" fill="none" xmlns="http://www.w3.org/2000/svg">
<path d="M13.321 18.643C13.321 20.022 12.321 20.457 11.092 20.457H7.871V16.679H11.157C12.486 16.686 13.321 17.236 13.321 18.643ZM12.771 12.764C12.771 11.5 11.792 11.2 10.707 11.2H7.879V14.4H10.929C12.008 14.4 12.772 13.929 12.772 12.764H12.771ZM22.221 14.421C21.9309 14.4026 21.6402 14.4437 21.3666 14.5419C21.0931 14.6401 20.8425 14.7933 20.6304 14.992C20.4183 15.1907 20.2492 15.4308 20.1333 15.6973C20.0175 15.9639 19.9575 16.2514 19.957 16.542H24.4C24.4127 16.2551 24.3646 15.9687 24.2588 15.7018C24.153 15.4348 23.9919 15.1932 23.7861 14.9929C23.5803 14.7926 23.3345 14.638 23.0647 14.5395C22.795 14.4409 22.5075 14.4005 22.221 14.421ZM32 3.429V28.571C32 29.4804 31.6387 30.3526 30.9957 30.9957C30.3526 31.6387 29.4804 32 28.571 32H3.429C2.51957 32 1.64739 31.6387 1.00433 30.9957C0.361269 30.3526 0 29.4804 0 28.571V3.429C0 2.51957 0.361269 1.64739 1.00433 1.00433C1.64739 0.361269 2.51957 0 3.429 0H28.571C29.4804 0 30.3526 0.361269 30.9957 1.00433C31.6387 1.64739 32 2.51957 32 3.429ZM19.407 10.929H24.964V9.579H19.407V10.929ZM16.336 18.808C16.4023 18.0006 16.1904 17.1948 15.7357 16.5243C15.281 15.8539 14.6107 15.3591 13.836 15.122C14.3947 14.9479 14.8806 14.5948 15.2188 14.1171C15.5569 13.6395 15.7285 13.0638 15.707 12.479C15.707 9.75 13.671 9.086 11.321 9.086H4.857V22.8H11.507C14 22.786 16.336 21.593 16.336 18.807V18.808ZM27.143 17.75C27.143 14.814 25.422 12.364 22.314 12.364C21.628 12.35 20.9464 12.4778 20.3121 12.7394C19.6777 13.001 19.1042 13.3908 18.6274 13.8843C18.1506 14.3777 17.7809 14.9643 17.5413 15.6073C17.3017 16.2503 17.1974 16.9359 17.235 17.621C17.1806 18.308 17.2736 18.9987 17.5078 19.6468C17.7419 20.295 18.1118 20.8856 18.5927 21.3792C19.0735 21.8729 19.6543 22.2581 20.296 22.5092C20.9378 22.7602 21.6258 22.8713 22.314 22.835C23.3594 22.9185 24.4005 22.6284 25.252 22.0162C26.1035 21.404 26.7102 20.5095 26.964 19.492H24.557C24.3662 19.8972 24.0593 20.2366 23.6753 20.467C23.2912 20.6974 22.8473 20.8084 22.4 20.786C22.0647 20.8181 21.7264 20.7743 21.4104 20.6577C21.0943 20.5411 20.8086 20.3547 20.5746 20.1125C20.3405 19.8702 20.164 19.5783 20.0583 19.2584C19.9526 18.9386 19.9204 18.599 19.964 18.265H27.121C27.129 18.1 27.143 17.921 27.143 17.75Z" fill="black"/>
</svg>
