<svg width="35" height="39" viewBox="0 0 35 39" fill="none" xmlns="http://www.w3.org/2000/svg">
<path d="M33.171 14.846H30.907V14.591C30.9067 14.2865 30.7857 13.9946 30.5705 13.7792C30.3553 13.5638 30.0635 13.4425 29.759 13.442H25.292C25.144 13.442 25.0021 13.5008 24.8974 13.6054C24.7928 13.7101 24.734 13.852 24.734 14C24.734 14.148 24.7928 14.2899 24.8974 14.3946C25.0021 14.4992 25.144 14.558 25.292 14.558H29.759C29.7678 14.558 29.7761 14.5615 29.7823 14.5677C29.7885 14.5738 29.792 14.5823 29.792 14.591V21.391C29.792 21.5389 29.8507 21.6807 29.9553 21.7852C30.0598 21.8898 30.2016 21.9485 30.3495 21.9485C30.4974 21.9485 30.6392 21.8898 30.7437 21.7852C30.8483 21.6807 30.907 21.5389 30.907 21.391V15.957H33.172C33.2083 15.957 33.2432 15.9714 33.2689 15.9971C33.2946 16.0228 33.309 16.0577 33.309 16.094V35.563C33.3087 36.1766 33.0651 36.7651 32.6314 37.1993C32.1978 37.6335 31.6096 37.8779 30.996 37.879H3.428C2.81436 37.8779 2.2262 37.6335 1.79257 37.1993C1.35894 36.7651 1.11527 36.1766 1.115 35.563V16.099C1.115 16.0627 1.12943 16.0278 1.15513 16.0021C1.18082 15.9764 1.21567 15.962 1.252 15.962H3.591V35.048C3.59127 35.4262 3.74156 35.7889 4.0089 36.0564C4.27624 36.3239 4.63879 36.4745 5.017 36.475H29.481C29.8592 36.4745 30.2218 36.3239 30.4891 36.0564C30.7564 35.7889 30.9067 35.4262 30.907 35.048V23.776C30.907 23.6281 30.8483 23.4863 30.7437 23.3818C30.6392 23.2772 30.4974 23.2185 30.3495 23.2185C30.2016 23.2185 30.0598 23.2772 29.9553 23.3818C29.8507 23.4863 29.792 23.6281 29.792 23.776V31.807H20.773C20.217 31.8069 19.6668 31.9208 19.1565 32.1416C18.6462 32.3624 18.1865 32.6856 17.806 33.091V25.872C17.806 25.7241 17.7473 25.5823 17.6427 25.4778C17.5382 25.3732 17.3964 25.3145 17.2485 25.3145C17.1006 25.3145 16.9588 25.3732 16.8543 25.4778C16.7497 25.5823 16.691 25.7241 16.691 25.872V33.091C16.3105 32.6856 15.8508 32.3624 15.3405 32.1416C14.8302 31.9208 14.28 31.8069 13.724 31.807H11.191C11.043 31.807 10.9011 31.8658 10.7964 31.9704C10.6918 32.0751 10.633 32.217 10.633 32.365C10.633 32.513 10.6918 32.6549 10.7964 32.7596C10.9011 32.8642 11.043 32.923 11.191 32.923H13.724C14.4185 32.9243 15.0906 33.1687 15.6236 33.6139C16.1567 34.0591 16.517 34.6769 16.642 35.36H5.016C4.97516 35.36 4.93472 35.352 4.89699 35.3363C4.85925 35.3207 4.82497 35.2978 4.79609 35.2689C4.76721 35.24 4.7443 35.2058 4.72867 35.168C4.71304 35.1303 4.705 35.0898 4.705 35.049V32.923H8.813C8.96099 32.923 9.10292 32.8642 9.20757 32.7596C9.31221 32.6549 9.371 32.513 9.371 32.365C9.371 32.217 9.31221 32.0751 9.20757 31.9704C9.10292 31.8658 8.96099 31.807 8.813 31.807H4.705V14.591C4.705 14.5823 4.70848 14.5738 4.71467 14.5677C4.72086 14.5615 4.72925 14.558 4.738 14.558H9.205C9.35299 14.558 9.49492 14.4992 9.59957 14.3946C9.70421 14.2899 9.763 14.148 9.763 14C9.763 13.852 9.70421 13.7101 9.59957 13.6054C9.49492 13.5008 9.35299 13.442 9.205 13.442H4.736C4.43152 13.4425 4.13968 13.5638 3.92447 13.7792C3.70927 13.9946 3.58827 14.2865 3.588 14.591V14.846H1.252C0.919939 14.8465 0.601643 14.9787 0.366934 15.2136C0.132224 15.4485 0.00026438 15.7669 0 16.099V35.568C0.000528239 36.4774 0.361734 37.3494 1.00438 37.9928C1.64702 38.6362 2.51863 38.9984 3.428 39H30.995C31.9044 38.9984 32.776 38.6362 33.4186 37.9928C34.0613 37.3494 34.4225 36.4774 34.423 35.568V16.099C34.423 15.767 34.2913 15.4486 34.0567 15.2137C33.8222 14.9788 33.503 14.8465 33.171 14.846ZM20.771 32.923H29.79V35.049C29.79 35.1315 29.7572 35.2106 29.6989 35.2689C29.6406 35.3272 29.5615 35.36 29.479 35.36H17.855C17.98 34.6769 18.3403 34.0591 18.8734 33.6139C19.4064 33.1687 20.0785 32.9243 20.773 32.923H20.771Z" fill="black"/>
<path d="M9.83401 8.8C9.98059 8.81366 10.1266 8.76873 10.2402 8.67504C10.3537 8.58135 10.4256 8.44651 10.44 8.3C10.539 7.25672 10.8764 6.25013 11.4261 5.35793C11.9759 4.46573 12.7233 3.71178 13.6106 3.15428C14.498 2.59677 15.5016 2.25062 16.544 2.14253C17.5864 2.03445 18.6396 2.16733 19.6225 2.53092C20.6054 2.8945 21.4916 3.47907 22.2127 4.23949C22.9338 4.99992 23.4705 5.91587 23.7814 6.91665C24.0924 7.91743 24.1692 8.97628 24.0059 10.0115C23.8427 11.0466 23.4438 12.0305 22.84 12.887L22.827 12.907L19.268 18.448C19.2106 18.5375 19.1801 18.6416 19.18 18.748V19.468C19.18 19.5383 19.1521 19.6057 19.1024 19.6554C19.0527 19.7051 18.9853 19.733 18.915 19.733H18.883L19.237 13.721H19.871C20.3069 13.7205 20.7247 13.5471 21.0329 13.2389C21.3411 12.9307 21.5145 12.5129 21.515 12.077V12.01C21.5152 11.5825 21.3489 11.1718 21.0513 10.8649C20.7537 10.558 20.3483 10.379 19.921 10.366C19.4937 10.353 19.0782 10.507 18.7625 10.7952C18.4468 11.0834 18.2558 11.4833 18.23 11.91L18.189 12.61H16.239L16.198 11.91C16.1722 11.4833 15.9812 11.0834 15.6655 10.7952C15.3498 10.507 14.9343 10.353 14.507 10.366C14.0797 10.379 13.6743 10.558 13.3767 10.8649C13.0791 11.1718 12.9128 11.5825 12.913 12.01V12.077C12.9135 12.5129 13.0869 12.9307 13.3951 13.2389C13.7033 13.5471 14.1212 13.7205 14.557 13.721H15.191L15.545 19.729C15.4822 19.7199 15.4247 19.6885 15.383 19.6406C15.3414 19.5927 15.3183 19.5315 15.318 19.468V18.748C15.3179 18.6416 15.2874 18.5375 15.23 18.448L11.671 12.907L11.658 12.887C11.1478 12.1646 10.784 11.3492 10.587 10.487C10.5707 10.4158 10.5405 10.3486 10.4981 10.2891C10.4558 10.2296 10.4021 10.179 10.3402 10.1402C10.2783 10.1014 10.2094 10.0752 10.1374 10.0631C10.0654 10.051 9.99168 10.0532 9.92051 10.0695C9.84933 10.0859 9.78207 10.1161 9.72257 10.1584C9.66307 10.2007 9.61249 10.2544 9.57372 10.3163C9.53495 10.3782 9.50875 10.4471 9.49662 10.5191C9.48449 10.5911 9.48666 10.6648 9.50301 10.736C9.73165 11.734 10.1525 12.6779 10.742 13.515L14.206 18.908V19.465C14.2064 19.7318 14.2842 19.9927 14.4299 20.2162C14.5756 20.4397 14.783 20.6161 15.027 20.724V21.664C15.0283 22.1397 15.2179 22.5955 15.5542 22.9318C15.8905 23.2681 16.3464 23.4577 16.822 23.459H17.682C18.1577 23.4577 18.6135 23.2681 18.9498 22.9318C19.2861 22.5955 19.4757 22.1397 19.477 21.664V20.724C19.721 20.6161 19.9284 20.4397 20.0741 20.2162C20.2198 19.9927 20.2976 19.7318 20.298 19.465V18.908L23.762 13.515C24.4613 12.518 24.9222 11.3737 25.1093 10.1703C25.2964 8.96698 25.2046 7.73674 24.8411 6.57447C24.4776 5.41219 23.852 4.34892 23.0126 3.46663C22.1732 2.58434 21.1424 1.9066 19.9997 1.48567C18.8569 1.06473 17.6328 0.91185 16.4216 1.0388C15.2105 1.16575 14.0446 1.56915 13.014 2.21789C11.9834 2.86663 11.1155 3.74339 10.4773 4.78056C9.83912 5.81773 9.44762 6.98761 9.33301 8.2C9.31908 8.34664 9.3639 8.49281 9.45765 8.60643C9.55139 8.72005 9.6864 8.79183 9.83301 8.806L9.83401 8.8ZM19.334 11.977C19.3425 11.8391 19.4042 11.7099 19.5062 11.6168C19.6082 11.5236 19.7424 11.4738 19.8805 11.4778C20.0186 11.4818 20.1497 11.5394 20.2461 11.6383C20.3425 11.7373 20.3966 11.8699 20.397 12.008V12.075C20.397 12.2161 20.341 12.3514 20.2412 12.4512C20.1414 12.551 20.0061 12.607 19.865 12.607H19.297L19.334 11.977ZM14.55 12.607C14.4089 12.607 14.2736 12.551 14.1738 12.4512C14.0741 12.3514 14.018 12.2161 14.018 12.075V12.008C14.0184 11.8699 14.0725 11.7373 14.1689 11.6383C14.2653 11.5394 14.3964 11.4818 14.5345 11.4778C14.6726 11.4738 14.8068 11.5236 14.9088 11.6168C15.0108 11.7099 15.0726 11.8391 15.081 11.977L15.118 12.607H14.55ZM18.117 13.719L17.763 19.731H16.652L16.298 13.719H18.117ZM18.357 21.665C18.3567 21.8458 18.2848 22.0191 18.157 22.147C18.0291 22.2748 17.8558 22.3467 17.675 22.347H16.815C16.6342 22.3467 16.4609 22.2748 16.3331 22.147C16.2052 22.0191 16.1333 21.8458 16.133 21.665V20.843H18.358V21.665H18.357Z" fill="black"/>
<path d="M27.016 5.223C27.1511 5.22328 27.2816 5.1742 27.383 5.085L28.596 4.02C28.6509 3.97181 28.6958 3.91327 28.728 3.84774C28.7603 3.7822 28.7794 3.71096 28.7841 3.63806C28.7888 3.56517 28.7792 3.49205 28.7556 3.4229C28.7321 3.35374 28.6952 3.28989 28.647 3.235C28.5988 3.18011 28.5403 3.13524 28.4747 3.10297C28.4092 3.0707 28.338 3.05166 28.2651 3.04692C28.1922 3.04218 28.1191 3.05185 28.0499 3.07537C27.9807 3.09889 27.9169 3.1358 27.862 3.184L26.649 4.249C26.564 4.32358 26.5037 4.42231 26.4763 4.53202C26.4488 4.64173 26.4555 4.75721 26.4953 4.86304C26.5352 4.96888 26.6064 5.06003 26.6995 5.12435C26.7925 5.18866 26.9029 5.22308 27.016 5.223Z" fill="black"/>
<path d="M26.649 8.594L27.862 9.65999C27.9729 9.75733 28.1179 9.80664 28.2651 9.79708C28.4123 9.78751 28.5497 9.71986 28.647 9.609C28.7443 9.49814 28.7937 9.35315 28.7841 9.20593C28.7745 9.05871 28.7069 8.92133 28.596 8.824L27.383 7.75899C27.2721 7.66166 27.1272 7.61235 26.98 7.62192C26.8327 7.63148 26.6953 7.69914 26.598 7.81C26.5007 7.92086 26.4514 8.06584 26.4609 8.21306C26.4705 8.36027 26.5382 8.49667 26.649 8.594Z" fill="black"/>
<path d="M5.901 4.02L7.114 5.085C7.16889 5.1332 7.23274 5.17011 7.30189 5.19363C7.37105 5.21715 7.44416 5.22682 7.51706 5.22208C7.58995 5.21734 7.6612 5.1983 7.72674 5.16603C7.79227 5.13376 7.8508 5.08889 7.89899 5.034C7.94719 4.97911 7.9841 4.91526 8.00762 4.8461C8.03114 4.77695 8.04081 4.70383 8.03608 4.63094C8.03134 4.55805 8.01229 4.4868 7.98002 4.42126C7.94775 4.35573 7.90289 4.2972 7.848 4.249L6.63499 3.184C6.52413 3.08667 6.37915 3.03736 6.23193 3.04692C6.08472 3.05649 5.94733 3.12414 5.85 3.235C5.75266 3.34586 5.70335 3.49085 5.71292 3.63806C5.72248 3.78528 5.79014 3.92267 5.901 4.02Z" fill="black"/>
<path d="M6.268 9.797C6.40307 9.79727 6.53359 9.74819 6.63501 9.65899L7.848 8.594C7.95886 8.49666 8.02652 8.35927 8.03608 8.21206C8.04565 8.06484 7.99634 7.91986 7.89901 7.809C7.80167 7.69814 7.66428 7.63048 7.51706 7.62092C7.36985 7.61135 7.22486 7.66066 7.114 7.75799L5.90101 8.823C5.81598 8.89757 5.75572 8.9963 5.72826 9.10602C5.7008 9.21573 5.70746 9.33121 5.74733 9.43704C5.78721 9.54287 5.85841 9.63403 5.95144 9.69835C6.04447 9.76266 6.1549 9.79707 6.268 9.797Z" fill="black"/>
<path d="M12.305 20.336C12.305 20.1885 12.2464 20.0471 12.1422 19.9428C12.0379 19.8386 11.8965 19.78 11.749 19.78H6.271C6.12354 19.78 5.98212 19.8386 5.87785 19.9428C5.77358 20.0471 5.715 20.1885 5.715 20.336C5.715 20.4835 5.77358 20.6249 5.87785 20.7291C5.98212 20.8334 6.12354 20.892 6.271 20.892H11.749C11.8965 20.892 12.0379 20.8334 12.1422 20.7291C12.2464 20.6249 12.305 20.4835 12.305 20.336Z" fill="black"/>
<path d="M13.446 22.61H7.278C7.13054 22.61 6.98912 22.6686 6.88485 22.7729C6.78058 22.8771 6.722 23.0185 6.722 23.166C6.722 23.3134 6.78058 23.4549 6.88485 23.5591C6.98912 23.6634 7.13054 23.722 7.278 23.722H13.446C13.5935 23.722 13.7349 23.6634 13.8392 23.5591C13.9434 23.4549 14.002 23.3134 14.002 23.166C14.002 23.0185 13.9434 22.8771 13.8392 22.7729C13.7349 22.6686 13.5935 22.61 13.446 22.61Z" fill="black"/>
<path d="M13.446 25.331H7.278C7.13054 25.331 6.98912 25.3896 6.88485 25.4939C6.78058 25.5981 6.722 25.7395 6.722 25.887C6.722 26.0345 6.78058 26.1759 6.88485 26.2802C6.98912 26.3844 7.13054 26.443 7.278 26.443H13.446C13.5935 26.443 13.7349 26.3844 13.8392 26.2802C13.9434 26.1759 14.002 26.0345 14.002 25.887C14.002 25.7395 13.9434 25.5981 13.8392 25.4939C13.7349 25.3896 13.5935 25.331 13.446 25.331Z" fill="black"/>
<path d="M13.446 28.047H7.278C7.13054 28.047 6.98912 28.1056 6.88485 28.2098C6.78058 28.3141 6.722 28.4555 6.722 28.603C6.722 28.7505 6.78058 28.8919 6.88485 28.9962C6.98912 29.1004 7.13054 29.159 7.278 29.159H13.446C13.5935 29.159 13.7349 29.1004 13.8392 28.9962C13.9434 28.8919 14.002 28.7505 14.002 28.603C14.002 28.4555 13.9434 28.3141 13.8392 28.2098C13.7349 28.1056 13.5935 28.047 13.446 28.047Z" fill="black"/>
<path d="M28.784 20.336C28.784 20.1885 28.7254 20.0471 28.6212 19.9428C28.5169 19.8386 28.3755 19.78 28.228 19.78H22.75C22.6026 19.78 22.4611 19.8386 22.3569 19.9428C22.2526 20.0471 22.194 20.1885 22.194 20.336C22.194 20.4835 22.2526 20.6249 22.3569 20.7291C22.4611 20.8334 22.6026 20.892 22.75 20.892H28.228C28.3755 20.892 28.5169 20.8334 28.6212 20.7291C28.7254 20.6249 28.784 20.4835 28.784 20.336Z" fill="black"/>
<path d="M27.219 22.61H21.048C20.9006 22.61 20.7591 22.6686 20.6549 22.7729C20.5506 22.8771 20.492 23.0185 20.492 23.166C20.492 23.3134 20.5506 23.4549 20.6549 23.5591C20.7591 23.6634 20.9006 23.722 21.048 23.722H27.216C27.3635 23.722 27.5049 23.6634 27.6091 23.5591C27.7134 23.4549 27.772 23.3134 27.772 23.166C27.772 23.0185 27.7134 22.8771 27.6091 22.7729C27.5049 22.6686 27.3635 22.61 27.216 22.61H27.219Z" fill="black"/>
<path d="M27.219 25.331H21.048C20.9006 25.331 20.7591 25.3896 20.6549 25.4939C20.5506 25.5981 20.492 25.7395 20.492 25.887C20.492 26.0345 20.5506 26.1759 20.6549 26.2802C20.7591 26.3844 20.9006 26.443 21.048 26.443H27.216C27.3635 26.443 27.5049 26.3844 27.6091 26.2802C27.7134 26.1759 27.772 26.0345 27.772 25.887C27.772 25.7395 27.7134 25.5981 27.6091 25.4939C27.5049 25.3896 27.3635 25.331 27.216 25.331H27.219Z" fill="black"/>
<path d="M27.219 28.047H21.048C20.9006 28.047 20.7591 28.1056 20.6549 28.2098C20.5506 28.3141 20.492 28.4555 20.492 28.603C20.492 28.7505 20.5506 28.8919 20.6549 28.9962C20.7591 29.1004 20.9006 29.159 21.048 29.159H27.216C27.3635 29.159 27.5049 29.1004 27.6091 28.9962C27.7134 28.8919 27.772 28.7505 27.772 28.603C27.772 28.4555 27.7134 28.3141 27.6091 28.2098C27.5049 28.1056 27.3635 28.047 27.216 28.047H27.219Z" fill="black"/>
</svg>
