<svg width="45" height="39" viewBox="0 0 45 39" fill="none" xmlns="http://www.w3.org/2000/svg">
<path d="M37.617 39.0001C37.443 39.0001 37.2761 38.9307 37.1531 38.8077C37.0301 38.6847 36.9609 38.5178 36.9609 38.3438C36.9609 38.1698 37.0301 38.003 37.1531 37.88C37.2761 37.7569 37.443 37.6881 37.617 37.6881H43.478V11.4991H14.342V13.5889C14.6247 13.5589 14.9088 13.5436 15.1931 13.543C16.2688 13.5425 17.3336 13.7552 18.3264 14.169C19.3193 14.5829 20.2203 15.1898 20.9771 15.9542C21.7414 16.7109 22.3481 17.6117 22.762 18.6046C23.1758 19.5974 23.3885 20.6622 23.3879 21.7379C23.3879 21.9119 23.3188 22.0787 23.1958 22.2017C23.0728 22.3248 22.9059 22.3941 22.7319 22.3941H20.471C20.297 22.3941 20.1301 22.3248 20.0071 22.2017C19.8841 22.0787 19.8149 21.9119 19.8149 21.7379C19.8149 21.5639 19.8841 21.397 20.0071 21.274C20.1301 21.151 20.297 21.0821 20.471 21.0821H22.0449C21.8893 19.4915 21.1817 18.0053 20.0449 16.8819C19.4097 16.2399 18.6534 15.7302 17.8198 15.3824C16.9863 15.0346 16.0921 14.8559 15.189 14.856C14.9044 14.8564 14.6201 14.8749 14.3379 14.9112V17.6759C14.3376 17.9296 14.2368 18.1732 14.0574 18.3526C13.878 18.532 13.6348 18.6326 13.3811 18.6329H9.05494C8.56159 19.5938 8.30478 20.6587 8.30591 21.7389C8.30578 22.642 8.48476 23.5362 8.83253 24.3697C9.18029 25.2032 9.69004 25.9595 10.332 26.5948C10.9673 27.2368 11.7236 27.7466 12.5571 28.0943C13.3907 28.4421 14.2848 28.6213 15.188 28.6212C15.7114 28.6215 16.2331 28.5616 16.7429 28.443L14.5659 21.943C14.533 21.8444 14.5239 21.7396 14.5396 21.6368C14.5552 21.534 14.5952 21.4364 14.656 21.3521C14.7167 21.2677 14.7964 21.1989 14.8889 21.1514C14.9814 21.104 15.084 21.0792 15.188 21.0792H17.4041C17.578 21.0792 17.7449 21.1481 17.8679 21.2711C17.9909 21.3941 18.0601 21.561 18.0601 21.7349C18.0601 21.9089 17.9909 22.0758 17.8679 22.1988C17.7449 22.3218 17.578 22.3912 17.4041 22.3912H16.104L18.21 28.6739C18.2651 28.8386 18.2526 29.0185 18.1751 29.1739C18.1367 29.2511 18.0833 29.3199 18.0183 29.3765C17.9533 29.4332 17.8777 29.4766 17.7959 29.504C16.9579 29.7851 16.08 29.9285 15.1961 29.9288C14.1204 29.9293 13.0553 29.7167 12.0625 29.3028C11.0697 28.889 10.1689 28.2825 9.41212 27.5181C8.64777 26.7613 8.04105 25.8601 7.6272 24.8673C7.21336 23.8744 7.00046 22.8096 7.00098 21.734C6.99984 20.6683 7.20882 19.6129 7.61597 18.628H5.78492V37.6851H34.5581C34.7321 37.6851 34.899 37.754 35.022 37.877C35.145 38.0001 35.2141 38.1669 35.2141 38.3409C35.2141 38.5149 35.145 38.6817 35.022 38.8048C34.899 38.9278 34.7321 38.9972 34.5581 38.9972H5.54102C5.25785 38.9969 4.98637 38.8839 4.78614 38.6837C4.58591 38.4834 4.47317 38.212 4.47291 37.9288V18.629H0.959967C0.706236 18.6287 0.463113 18.5276 0.283698 18.3482C0.104283 18.1688 0.0032008 17.9257 0.00293608 17.672V4.42196C0.00247337 4.2962 0.0271366 4.17147 0.0752017 4.05526C0.123267 3.93904 0.193806 3.83389 0.282965 3.7452L2.75098 1.27694C2.83971 1.18782 2.94532 1.11748 3.06153 1.06942C3.17774 1.02136 3.30223 0.996744 3.42798 0.997152H8.66309C8.83707 0.997152 9.00394 1.06602 9.12696 1.18905C9.24998 1.31207 9.3191 1.47893 9.3191 1.65291C9.3191 1.8269 9.24998 1.99376 9.12696 2.11678C9.00394 2.2398 8.83707 2.30916 8.66309 2.30916H3.57496L1.31495 4.56893V17.316H13.032V2.30916H11.7251C11.5511 2.30916 11.3843 2.2398 11.2612 2.11678C11.1382 1.99376 11.0691 1.8269 11.0691 1.65291C11.0691 1.47893 11.1382 1.31207 11.2612 1.18905C11.3843 1.06602 11.5511 0.997152 11.7251 0.997152H13.3879C13.6417 0.997416 13.885 1.09801 14.0645 1.27743C14.2439 1.45684 14.3447 1.70045 14.345 1.95418V6.50399H43.314C43.7061 6.50452 44.0819 6.66033 44.3591 6.93758C44.6364 7.21483 44.7924 7.5909 44.793 7.98299V37.9278C44.7927 38.211 44.6802 38.4825 44.48 38.6827C44.2798 38.8829 44.0083 38.9959 43.7251 38.9962L37.617 39.0001ZM14.342 10.191H43.478V7.9908C43.478 7.94651 43.4605 7.90445 43.4292 7.87313C43.3979 7.84181 43.3553 7.82381 43.311 7.82381H14.342V10.191ZM27.0669 36.3809C26.8171 36.3807 26.5777 36.2812 26.4011 36.1046C26.2245 35.928 26.1253 35.6888 26.125 35.439V33.628C26.1253 33.3783 26.2245 33.1386 26.4011 32.962C26.5777 32.7854 26.8171 32.6864 27.0669 32.6861H28.8779C29.1277 32.6864 29.3671 32.7854 29.5437 32.962C29.7203 33.1386 29.8198 33.3783 29.8201 33.628V35.439C29.8198 35.6888 29.7203 35.928 29.5437 36.1046C29.3671 36.2812 29.1277 36.3807 28.8779 36.3809H27.0669ZM27.437 35.0689H28.5071V33.9991H27.437V35.0689ZM8.29395 36.3819C8.0442 36.3817 7.80478 36.2826 7.62818 36.106C7.45158 35.9294 7.35232 35.6898 7.35206 35.44V33.629C7.35232 33.3792 7.45158 33.1396 7.62818 32.963C7.80478 32.7864 8.0442 32.6874 8.29395 32.6871H10.105C10.3547 32.6874 10.5942 32.7864 10.7708 32.963C10.9474 33.1396 11.0469 33.3792 11.0471 33.629V35.44C11.0469 35.6898 10.9474 35.9294 10.7708 36.106C10.5942 36.2826 10.3547 36.3817 10.105 36.3819H8.29395ZM8.66407 35.0699H9.73389V34.0001H8.66407V35.0699ZM31.1641 35.191C30.9901 35.191 30.8232 35.1221 30.7002 34.9991C30.5772 34.8761 30.5081 34.7092 30.5081 34.5352C30.5081 34.3613 30.5772 34.1944 30.7002 34.0714C30.8232 33.9483 30.9901 33.879 31.1641 33.879H41.2639C41.4379 33.879 41.6048 33.9483 41.7278 34.0714C41.8508 34.1944 41.9199 34.3613 41.9199 34.5352C41.9199 34.7092 41.8508 34.8761 41.7278 34.9991C41.6048 35.1221 41.4379 35.191 41.2639 35.191H31.1641ZM12.3921 35.191C12.2181 35.191 12.0513 35.1221 11.9282 34.9991C11.8052 34.8761 11.7361 34.7092 11.7361 34.5352C11.7361 34.3613 11.8052 34.1944 11.9282 34.0714C12.0513 33.9483 12.2181 33.879 12.3921 33.879H22.4919C22.6659 33.879 22.8328 33.9483 22.9558 34.0714C23.0788 34.1944 23.148 34.3613 23.148 34.5352C23.148 34.7092 23.0788 34.8761 22.9558 34.9991C22.8328 35.1221 22.6659 35.191 22.4919 35.191H12.3921ZM20.1111 31.2808L17.7109 24.1329C17.6779 24.0342 17.6689 23.9292 17.6846 23.8263C17.7002 23.7233 17.7401 23.6255 17.801 23.5411C17.8619 23.4569 17.9417 23.3882 18.0342 23.3409C18.1267 23.2936 18.2292 23.2692 18.333 23.2691H25.8721C26.0461 23.2691 26.2129 23.338 26.3359 23.461C26.459 23.584 26.5281 23.7509 26.5281 23.9249C26.5294 25.6429 25.99 27.318 24.9866 28.7125C23.9831 30.107 22.5664 31.1503 20.937 31.6949C20.8699 31.7173 20.7997 31.729 20.729 31.7291C20.5913 31.7276 20.4576 31.6828 20.3467 31.6012C20.2358 31.5195 20.1534 31.405 20.1111 31.274V31.2808ZM21.137 30.212C22.2511 29.7171 23.2135 28.9349 23.9255 27.9454C24.6376 26.9559 25.0736 25.7948 25.189 24.5811H19.249L21.137 30.212ZM30.7009 30.0929C30.527 30.0929 30.3601 30.024 30.2371 29.901C30.114 29.7779 30.0449 29.6111 30.0449 29.4371C30.0449 29.2631 30.114 29.0963 30.2371 28.9732C30.3601 28.8502 30.527 28.7808 30.7009 28.7808H41.2661C41.4401 28.7808 41.607 28.8502 41.73 28.9732C41.853 29.0963 41.9221 29.2631 41.9221 29.4371C41.9221 29.6111 41.853 29.7779 41.73 29.901C41.607 30.024 41.4401 30.0929 41.2661 30.0929H30.7009ZM28.259 30.0929C28.0851 30.0929 27.9182 30.024 27.7952 29.901C27.6721 29.7779 27.603 29.6111 27.603 29.4371C27.603 29.2631 27.6721 29.0963 27.7952 28.9732C27.9182 28.8502 28.0851 28.7808 28.259 28.7808H28.5779C28.7519 28.7808 28.9187 28.8502 29.0418 28.9732C29.1648 29.0963 29.2339 29.2631 29.2339 29.4371C29.2339 29.6111 29.1648 29.7779 29.0418 29.901C28.9187 30.024 28.7519 30.0929 28.5779 30.0929H28.259ZM30.7009 27.6148C30.527 27.6148 30.3601 27.546 30.2371 27.4229C30.114 27.2999 30.0449 27.133 30.0449 26.9591C30.0449 26.7851 30.114 26.6182 30.2371 26.4952C30.3601 26.3722 30.527 26.3028 30.7009 26.3028H41.2661C41.4401 26.3028 41.607 26.3722 41.73 26.4952C41.853 26.6182 41.9221 26.7851 41.9221 26.9591C41.9221 27.133 41.853 27.2999 41.73 27.4229C41.607 27.546 41.4401 27.6148 41.2661 27.6148H30.7009ZM28.259 27.6148C28.0851 27.6148 27.9182 27.546 27.7952 27.4229C27.6721 27.2999 27.603 27.133 27.603 26.9591C27.603 26.7851 27.6721 26.6182 27.7952 26.4952C27.9182 26.3722 28.0851 26.3028 28.259 26.3028H28.5779C28.7519 26.3028 28.9187 26.3722 29.0418 26.4952C29.1648 26.6182 29.2339 26.7851 29.2339 26.9591C29.2339 27.133 29.1648 27.2999 29.0418 27.4229C28.9187 27.546 28.7519 27.6148 28.5779 27.6148H28.259ZM30.7009 25.1368C30.527 25.1368 30.3601 25.0679 30.2371 24.9449C30.114 24.8219 30.0449 24.655 30.0449 24.481C30.0449 24.3071 30.114 24.1402 30.2371 24.0172C30.3601 23.8941 30.527 23.8248 30.7009 23.8248H41.2661C41.4401 23.8248 41.607 23.8941 41.73 24.0172C41.853 24.1402 41.9221 24.3071 41.9221 24.481C41.9221 24.655 41.853 24.8219 41.73 24.9449C41.607 25.0679 41.4401 25.1368 41.2661 25.1368H30.7009ZM28.259 25.1368C28.0851 25.1368 27.9182 25.0679 27.7952 24.9449C27.6721 24.8219 27.603 24.655 27.603 24.481C27.603 24.3071 27.6721 24.1402 27.7952 24.0172C27.9182 23.8941 28.0851 23.8248 28.259 23.8248H28.5779C28.7519 23.8248 28.9187 23.8941 29.0418 24.0172C29.1648 24.1402 29.2339 24.3071 29.2339 24.481C29.2339 24.655 29.1648 24.8219 29.0418 24.9449C28.9187 25.0679 28.7519 25.1368 28.5779 25.1368H28.259ZM30.7009 22.6588C30.527 22.6588 30.3601 22.5899 30.2371 22.4669C30.114 22.3439 30.0449 22.177 30.0449 22.003C30.0449 21.829 30.114 21.6622 30.2371 21.5391C30.3601 21.4161 30.527 21.3468 30.7009 21.3468H41.2661C41.4401 21.3468 41.607 21.4161 41.73 21.5391C41.853 21.6622 41.9221 21.829 41.9221 22.003C41.9221 22.177 41.853 22.3439 41.73 22.4669C41.607 22.5899 41.4401 22.6588 41.2661 22.6588H30.7009ZM28.259 22.6588C28.0851 22.6588 27.9182 22.5899 27.7952 22.4669C27.6721 22.3439 27.603 22.177 27.603 22.003C27.603 21.829 27.6721 21.6622 27.7952 21.5391C27.9182 21.4161 28.0851 21.3468 28.259 21.3468H28.5779C28.7519 21.3468 28.9187 21.4161 29.0418 21.5391C29.1648 21.6622 29.2339 21.829 29.2339 22.003C29.2339 22.177 29.1648 22.3439 29.0418 22.4669C28.9187 22.5899 28.7519 22.6588 28.5779 22.6588H28.259ZM30.7009 20.1812C30.527 20.1812 30.3601 20.1119 30.2371 19.9889C30.114 19.8658 30.0449 19.699 30.0449 19.525C30.0449 19.351 30.114 19.1841 30.2371 19.0611C30.3601 18.9381 30.527 18.8692 30.7009 18.8692H41.2661C41.4401 18.8692 41.607 18.9381 41.73 19.0611C41.853 19.1841 41.9221 19.351 41.9221 19.525C41.9221 19.699 41.853 19.8658 41.73 19.9889C41.607 20.1119 41.4401 20.1812 41.2661 20.1812H30.7009ZM28.259 20.1812C28.0851 20.1812 27.9182 20.1119 27.7952 19.9889C27.6721 19.8658 27.603 19.699 27.603 19.525C27.603 19.351 27.6721 19.1841 27.7952 19.0611C27.9182 18.9381 28.0851 18.8692 28.259 18.8692H28.5779C28.7519 18.8692 28.9187 18.9381 29.0418 19.0611C29.1648 19.1841 29.2339 19.351 29.2339 19.525C29.2339 19.699 29.1648 19.8658 29.0418 19.9889C28.9187 20.1119 28.7519 20.1812 28.5779 20.1812H28.259ZM25.8589 17.2418C25.3692 17.2413 24.8997 17.0465 24.5535 16.7003C24.2072 16.354 24.0125 15.8848 24.012 15.3951C24.0125 14.9054 24.2072 14.4357 24.5535 14.0894C24.8997 13.7432 25.3692 13.5485 25.8589 13.5479H40.0711C40.5607 13.5485 41.0302 13.7432 41.3765 14.0894C41.7227 14.4357 41.9174 14.9054 41.918 15.3951C41.9174 15.8848 41.7227 16.354 41.3765 16.7003C41.0302 17.0465 40.5607 17.2413 40.0711 17.2418H25.8589ZM35.3821 15.9298H40.0711C40.2129 15.9298 40.3489 15.8739 40.4492 15.7735C40.5496 15.6732 40.606 15.537 40.606 15.3951C40.6057 15.2533 40.5493 15.1174 40.449 15.0172C40.3487 14.9169 40.2129 14.8602 40.0711 14.8599H35.3821V15.9298ZM25.324 15.3951C25.324 15.537 25.3804 15.6732 25.4807 15.7735C25.5811 15.8739 25.717 15.9298 25.8589 15.9298H34.0701V14.8599H25.8589C25.7185 14.8612 25.5842 14.9179 25.4849 15.0172C25.3856 15.1165 25.3292 15.2508 25.3279 15.3912L25.324 15.3951ZM5.594 15.795C5.42002 15.795 5.25316 15.7256 5.13013 15.6026C5.00711 15.4796 4.93799 15.3132 4.93799 15.1392C4.93799 14.9653 5.00711 14.7984 5.13013 14.6754C5.25316 14.5524 5.42002 14.483 5.594 14.483H10.9761C11.1501 14.483 11.3169 14.5524 11.4399 14.6754C11.563 14.7984 11.6321 14.9653 11.6321 15.1392C11.6321 15.3132 11.563 15.4796 11.4399 15.6026C11.3169 15.7256 11.1501 15.795 10.9761 15.795H5.594ZM3.35889 15.795C3.18491 15.795 3.01805 15.7256 2.89503 15.6026C2.772 15.4796 2.70289 15.3132 2.70289 15.1392C2.70289 14.9653 2.772 14.7984 2.89503 14.6754C3.01805 14.5524 3.18491 14.483 3.35889 14.483H3.77296C3.94694 14.483 4.1138 14.5524 4.23682 14.6754C4.35985 14.7984 4.42896 14.9653 4.42896 15.1392C4.42896 15.3132 4.35985 15.4796 4.23682 15.6026C4.1138 15.7256 3.94694 15.795 3.77296 15.795H3.35889ZM5.594 13.6402C5.42002 13.6402 5.25316 13.5709 5.13013 13.4478C5.00711 13.3248 4.93799 13.1579 4.93799 12.984C4.93799 12.81 5.00711 12.6431 5.13013 12.5201C5.25316 12.3971 5.42002 12.3282 5.594 12.3282H10.9761C11.1501 12.3282 11.3169 12.3971 11.4399 12.5201C11.563 12.6431 11.6321 12.81 11.6321 12.984C11.6321 13.1579 11.563 13.3248 11.4399 13.4478C11.3169 13.5709 11.1501 13.6402 10.9761 13.6402H5.594ZM3.35889 13.6402C3.18491 13.6402 3.01805 13.5709 2.89503 13.4478C2.772 13.3248 2.70289 13.1579 2.70289 12.984C2.70289 12.81 2.772 12.6431 2.89503 12.5201C3.01805 12.3971 3.18491 12.3282 3.35889 12.3282H3.77296C3.94694 12.3282 4.1138 12.3971 4.23682 12.5201C4.35985 12.6431 4.42896 12.81 4.42896 12.984C4.42896 13.1579 4.35985 13.3248 4.23682 13.4478C4.1138 13.5709 3.94694 13.6402 3.77296 13.6402H3.35889ZM5.594 11.4849C5.42002 11.4849 5.25316 11.4161 5.13013 11.293C5.00711 11.17 4.93799 11.0032 4.93799 10.8292C4.93799 10.6552 5.00711 10.4883 5.13013 10.3653C5.25316 10.2423 5.42002 10.1729 5.594 10.1729H10.9761C11.1501 10.1729 11.3169 10.2423 11.4399 10.3653C11.563 10.4883 11.6321 10.6552 11.6321 10.8292C11.6321 11.0032 11.563 11.17 11.4399 11.293C11.3169 11.4161 11.1501 11.4849 10.9761 11.4849H5.594ZM3.35889 11.4849C3.18491 11.4849 3.01805 11.4161 2.89503 11.293C2.772 11.17 2.70289 11.0032 2.70289 10.8292C2.70289 10.6552 2.772 10.4883 2.89503 10.3653C3.01805 10.2423 3.18491 10.1729 3.35889 10.1729H3.77296C3.94694 10.1729 4.1138 10.2423 4.23682 10.3653C4.35985 10.4883 4.42896 10.6552 4.42896 10.8292C4.42896 11.0032 4.35985 11.17 4.23682 11.293C4.1138 11.4161 3.94694 11.4849 3.77296 11.4849H3.35889ZM3.35889 8.97518C3.18491 8.97518 3.01805 8.90582 2.89503 8.7828C2.772 8.65977 2.70289 8.49291 2.70289 8.31893C2.70289 8.14495 2.772 7.97809 2.89503 7.85506C3.01805 7.73204 3.18491 7.66317 3.35889 7.66317H3.65894V6.08016C3.65894 5.90618 3.72806 5.73932 3.85108 5.61629C3.9741 5.49327 4.14097 5.42391 4.31495 5.42391C4.48893 5.42391 4.65579 5.49327 4.77881 5.61629C4.90184 5.73932 4.97095 5.90618 4.97095 6.08016V7.66317H5.56299V4.53084C5.56299 4.35686 5.63211 4.19 5.75513 4.06698C5.87816 3.94395 6.04502 3.87508 6.219 3.87508C6.39298 3.87508 6.55984 3.94395 6.68287 4.06698C6.80589 4.19 6.87501 4.35686 6.87501 4.53084V7.66317H7.46705V5.30623C7.46705 5.13225 7.53616 4.96539 7.65919 4.84237C7.78221 4.71934 7.94907 4.64998 8.12305 4.64998C8.29704 4.64998 8.4639 4.71934 8.58692 4.84237C8.70994 4.96539 8.77906 5.13225 8.77906 5.30623V7.66317H9.3711V4.01424C9.3711 3.84026 9.44022 3.6734 9.56324 3.55037C9.68626 3.42735 9.85312 3.35799 10.0271 3.35799C10.2011 3.35799 10.3679 3.42735 10.491 3.55037C10.614 3.6734 10.6831 3.84026 10.6831 4.01424V7.66317H10.9829C11.1569 7.66317 11.3238 7.73204 11.4468 7.85506C11.5698 7.97809 11.6389 8.14495 11.6389 8.31893C11.6389 8.49291 11.5698 8.65977 11.4468 8.7828C11.3238 8.90582 11.1569 8.97518 10.9829 8.97518H3.35889Z" fill="black"/>
</svg>
