<svg width="32" height="32" viewBox="0 0 32 32" fill="none" xmlns="http://www.w3.org/2000/svg">
<path d="M28.571 0H3.429C2.51957 0 1.64739 0.361269 1.00433 1.00433C0.361269 1.64739 0 2.51957 0 3.429V28.571C0 29.4804 0.361269 30.3526 1.00433 30.9957C1.64739 31.6387 2.51957 32 3.429 32H13.229V21.121H8.729V16H13.229V12.1C13.229 7.661 15.872 5.209 19.92 5.209C21.2487 5.22752 22.5742 5.34317 23.886 5.555V9.912H21.655C21.2744 9.86162 20.8874 9.89744 20.5226 10.0168C20.1577 10.1362 19.8244 10.336 19.5472 10.6016C19.27 10.8672 19.056 11.1917 18.9212 11.5511C18.7863 11.9105 18.734 12.2956 18.768 12.678V16H23.681L22.9 21.121H18.768V32H28.568C29.0186 32.0004 29.4648 31.912 29.8811 31.7398C30.2975 31.5677 30.6759 31.3152 30.9946 30.9967C31.3133 30.6783 31.5662 30.3001 31.7387 29.8839C31.9112 29.4677 32 29.0216 32 28.571V3.429C32 2.51957 31.6387 1.64739 30.9957 1.00433C30.3526 0.361269 29.4804 0 28.571 0Z" fill="black"/>
</svg>
