<svg width="32" height="32" viewBox="0 0 32 32" fill="none" xmlns="http://www.w3.org/2000/svg">
<path d="M16.005 7.795C14.3832 7.795 12.7978 8.27592 11.4493 9.17695C10.1008 10.078 9.04983 11.3586 8.42919 12.857C7.80855 14.3553 7.64616 16.0041 7.96256 17.5947C8.27896 19.1854 9.05993 20.6465 10.2067 21.7933C11.3535 22.9401 12.8146 23.721 14.4053 24.0374C15.9959 24.3538 17.6446 24.1915 19.143 23.5708C20.6414 22.9502 21.922 21.8992 22.823 20.5507C23.7241 19.2022 24.205 17.6168 24.205 15.995C24.2063 14.9178 23.9951 13.8509 23.5835 12.8554C23.1719 11.86 22.5679 10.9555 21.8062 10.1938C21.0445 9.43209 20.14 8.82813 19.1446 8.41651C18.1491 8.00489 17.0822 7.79368 16.005 7.795ZM16.005 21.333C14.95 21.3332 13.9186 21.0205 13.0413 20.4345C12.164 19.8486 11.4802 19.0156 11.0763 18.0409C10.6724 17.0663 10.5667 15.9938 10.7724 14.959C10.9781 13.9242 11.486 12.9737 12.2319 12.2276C12.9779 11.4816 13.9283 10.9735 14.963 10.7676C15.9977 10.5617 17.0703 10.6672 18.045 11.0709C19.0197 11.4746 19.8528 12.1583 20.439 13.0355C21.0251 13.9127 21.338 14.944 21.338 15.999C21.3359 17.4129 20.7734 18.7684 19.7738 19.7684C18.7742 20.7684 17.4189 21.3314 16.005 21.334V21.333ZM26.455 7.462C26.4548 7.84031 26.3424 8.21007 26.1321 8.52453C25.9218 8.83899 25.623 9.08403 25.2734 9.22867C24.9238 9.37331 24.5392 9.41105 24.1682 9.33712C23.7972 9.26319 23.4564 9.08092 23.189 8.81334C22.9215 8.54576 22.7394 8.2049 22.6657 7.83384C22.592 7.46278 22.6299 7.07819 22.7747 6.7287C22.9195 6.3792 23.1647 6.08049 23.4793 5.87033C23.7939 5.66017 24.1637 5.548 24.542 5.548C24.7935 5.54747 25.0425 5.59663 25.2749 5.69264C25.5073 5.78865 25.7185 5.92963 25.8962 6.10748C26.074 6.28533 26.2149 6.49655 26.3107 6.729C26.4066 6.96145 26.4557 7.21055 26.455 7.462ZM31.888 9.404C31.9396 6.91806 31.0114 4.51155 29.304 2.704C27.4932 1.00154 25.089 0.0739322 22.604 0.119C19.963 -0.0309998 12.046 -0.0309998 9.404 0.119C6.91973 0.0705516 4.51505 0.995811 2.704 2.697C0.999246 4.50624 0.0715639 6.91161 0.12 9.397C-0.0300003 12.039 -0.0300003 19.958 0.12 22.597C0.0684437 25.0829 0.996565 27.4895 2.704 29.297C4.51544 30.9984 6.91924 31.9258 9.404 31.882C12.045 32.032 19.962 32.032 22.604 31.882C25.0902 31.9337 27.4968 31.0052 29.304 29.297C31.0056 27.4858 31.9328 25.0818 31.888 22.597C32.038 19.955 32.038 12.043 31.888 9.397V9.404ZM28.475 25.432C28.2036 26.1203 27.7936 26.7456 27.2705 27.2689C26.7473 27.7921 26.1223 28.2023 25.434 28.474C23.328 29.309 18.334 29.117 16.004 29.117C13.674 29.117 8.672 29.303 6.574 28.474C5.88556 28.2025 5.26029 27.7923 4.73699 27.269C4.21369 26.7457 3.80354 26.1204 3.532 25.432C2.697 23.326 2.89 18.332 2.89 15.999C2.89 13.666 2.705 8.662 3.532 6.567C3.80343 5.87866 4.21342 5.25344 4.73654 4.73015C5.25966 4.20686 5.88475 3.79666 6.573 3.525C8.679 2.69 13.673 2.882 16.003 2.882C18.333 2.882 23.335 2.696 25.433 3.525C26.1214 3.79654 26.7467 4.20669 27.27 4.72999C27.7933 5.25329 28.2035 5.87856 28.475 6.567C29.31 8.673 29.117 13.667 29.117 16C29.117 18.333 29.31 23.333 28.475 25.432Z" fill="black"/>
</svg>
