<svg width="46" height="45" viewBox="0 0 46 45" fill="none" xmlns="http://www.w3.org/2000/svg">
<path d="M15.671 11.9419C15.5384 11.9419 15.4112 11.9946 15.3174 12.0883C15.2237 12.1821 15.171 12.3093 15.171 12.4419V18.5239C15.171 18.6565 15.2237 18.7837 15.3174 18.8774C15.4112 18.9712 15.5384 19.0239 15.671 19.0239H19.593C19.7256 19.0239 19.8528 18.9712 19.9465 18.8774C20.0403 18.7837 20.093 18.6565 20.093 18.5239V12.4419C20.093 12.3093 20.0403 12.1821 19.9465 12.0883C19.8528 11.9946 19.7256 11.9419 19.593 11.9419H15.671ZM15.671 10.4419H19.593C20.1234 10.4419 20.6321 10.6526 21.0072 11.0277C21.3823 11.4028 21.593 11.9115 21.593 12.4419V18.5239C21.593 19.0543 21.3823 19.563 21.0072 19.9381C20.6321 20.3132 20.1234 20.5239 19.593 20.5239H15.671C15.1406 20.5239 14.6318 20.3132 14.2568 19.9381C13.8817 19.563 13.671 19.0543 13.671 18.5239V12.4419C13.671 11.9115 13.8817 11.4028 14.2568 11.0277C14.6318 10.6526 15.1406 10.4419 15.671 10.4419Z" fill="black"/>
<path d="M22.513 8.34106C22.3804 8.34106 22.2532 8.39374 22.1594 8.48751C22.0657 8.58128 22.013 8.70846 22.013 8.84106V18.5241C22.013 18.6567 22.0657 18.7838 22.1594 18.8776C22.2532 18.9714 22.3804 19.0241 22.513 19.0241H27.155C27.2876 19.0241 27.4148 18.9714 27.5086 18.8776C27.6023 18.7838 27.655 18.6567 27.655 18.5241V8.84106C27.655 8.70846 27.6023 8.58128 27.5086 8.48751C27.4148 8.39374 27.2876 8.34106 27.155 8.34106H22.513ZM22.513 6.84106H27.155C27.6854 6.84106 28.1941 7.05178 28.5692 7.42685C28.9443 7.80192 29.155 8.31063 29.155 8.84106V18.5241C29.155 19.0545 28.9443 19.5632 28.5692 19.9383C28.1941 20.3134 27.6854 20.5241 27.155 20.5241H22.513C21.9826 20.5241 21.4739 20.3134 21.0988 19.9383C20.7237 19.5632 20.513 19.0545 20.513 18.5241V8.84106C20.513 8.31063 20.7237 7.80192 21.0988 7.42685C21.4739 7.05178 21.9826 6.84106 22.513 6.84106Z" fill="black"/>
<path d="M30.074 1.5C29.9414 1.5 29.8142 1.55268 29.7204 1.64645C29.6267 1.74021 29.574 1.86739 29.574 2V18.524C29.574 18.6566 29.6267 18.7838 29.7204 18.8776C29.8142 18.9713 29.9414 19.024 30.074 19.024H34.716C34.8486 19.024 34.9758 18.9713 35.0695 18.8776C35.1633 18.7838 35.216 18.6566 35.216 18.524V2C35.216 1.86739 35.1633 1.74021 35.0695 1.64645C34.9758 1.55268 34.8486 1.5 34.716 1.5H30.074ZM30.074 0H34.716C35.2464 0 35.7551 0.210714 36.1302 0.585786C36.5053 0.960859 36.716 1.46957 36.716 2V18.524C36.716 19.0544 36.5053 19.5631 36.1302 19.9382C35.7551 20.3133 35.2464 20.524 34.716 20.524H30.074C29.5436 20.524 29.0348 20.3133 28.6598 19.9382C28.2847 19.5631 28.074 19.0544 28.074 18.524V2C28.074 1.46957 28.2847 0.960859 28.6598 0.585786C29.0348 0.210714 29.5436 0 30.074 0Z" fill="black"/>
<path d="M5.299 27.731C5.67619 27.743 6.04684 27.8328 6.38772 27.9947C6.7286 28.1566 7.03237 28.3872 7.28 28.672C13.18 34.572 15.427 36.826 15.694 37.095C16.2848 37.5913 16.659 38.2983 16.737 39.066C16.7514 39.5127 16.6689 39.9572 16.495 40.3689C16.3212 40.7806 16.0602 41.1498 15.73 41.451L15.722 41.459C15.427 41.759 15.158 42.037 14.898 42.31C13.743 43.519 12.83 44.474 11.654 44.474C11.2515 44.4484 10.858 44.3431 10.4965 44.1642C10.135 43.9854 9.81255 43.7364 9.54799 43.4319L9.521 43.405C5.402 39.005 1.399 35.047 1.062 34.714C0.474994 34.2385 0.0953528 33.5537 0.00299607 32.804C-0.00553491 32.5177 0.0495036 32.2331 0.164144 31.9706C0.278785 31.7081 0.450187 31.4743 0.666006 31.2859C1.80401 30.2109 3.742 28.329 3.766 28.31L3.78499 28.292C4.20896 27.9344 4.74441 27.736 5.299 27.731ZM14.727 38.2419L14.685 38.211L14.658 38.181C14.637 38.16 12.494 36.0069 6.215 29.7289L6.206 29.72C6.09506 29.5821 5.95766 29.4678 5.8019 29.3839C5.64614 29.2999 5.47515 29.2479 5.299 29.231C5.11363 29.2353 4.93411 29.2968 4.78499 29.407C4.56899 29.617 2.776 31.357 1.695 32.377C1.495 32.567 1.495 32.695 1.501 32.744C1.58215 33.0716 1.76959 33.3632 2.034 33.573L2.064 33.597L2.09099 33.624C2.13299 33.665 6.303 37.7749 10.602 42.3669C10.869 42.6882 11.2415 42.9041 11.653 42.976C12.188 42.976 12.905 42.226 13.813 41.276C14.077 40.999 14.35 40.714 14.654 40.408C14.831 40.2559 14.9747 40.0688 15.0759 39.8585C15.1771 39.6482 15.2336 39.4192 15.242 39.186C15.1927 38.8188 15.0092 38.4829 14.727 38.243V38.2419Z" fill="black"/>
<path d="M32.143 32.11H24.205V30.61H32.111C32.4205 30.5794 32.7184 30.4767 32.981 30.31C33.262 30.101 33.4847 29.8233 33.6277 29.5036C33.7708 29.1839 33.8294 28.8329 33.798 28.484C33.8111 28.3052 33.7866 28.1256 33.7262 27.9569C33.6657 27.7881 33.5706 27.6338 33.447 27.504C32.6036 26.9164 31.5755 26.6552 30.554 26.769C28.222 26.861 21.564 26.769 21.281 26.769H21.181L21.081 26.739C21.071 26.739 20.081 26.439 18.281 25.865C16.9287 25.4345 15.4917 25.3408 14.095 25.592C11.5732 26.1573 9.30735 27.5365 7.64699 29.517L6.547 28.501C10.205 24.526 14.417 23.118 18.726 24.431H18.736C20.202 24.9 21.123 25.18 21.413 25.268C22.29 25.279 28.393 25.352 30.513 25.268H30.543C32.431 25.268 33.73 25.654 34.516 26.448C34.7801 26.7181 34.986 27.0394 35.121 27.3922C35.256 27.7449 35.3173 28.1216 35.301 28.499C35.3369 28.9437 35.2836 29.3912 35.1441 29.815C35.0046 30.2389 34.7818 30.6305 34.4888 30.9671C34.1958 31.3036 33.8385 31.5781 33.4379 31.7745C33.0373 31.971 32.6014 32.0854 32.156 32.111L32.143 32.11Z" fill="black"/>
<path d="M16.282 38.5659L15.067 37.687C15.4822 37.1596 16.0101 36.7317 16.6121 36.4348C17.2141 36.1379 17.8748 35.9794 18.546 35.971H18.622C20.846 36.009 31.953 35.971 32.065 35.971H32.1C33.195 35.9565 34.2433 35.5257 35.032 34.7659L35.04 34.757C41.889 27.965 42.84 27.0569 42.957 26.9489C43.3541 26.5573 43.5973 26.0359 43.642 25.4799C43.6218 25.2506 43.5524 25.0284 43.4385 24.8284C43.3246 24.6284 43.1689 24.4553 42.982 24.3209C42.7792 24.0827 42.5233 23.8954 42.235 23.7741C41.9467 23.6527 41.6339 23.6007 41.3218 23.6222C41.0097 23.6437 40.707 23.7381 40.438 23.8978C40.169 24.0576 39.9412 24.2782 39.773 24.5419C37.765 26.7519 35.165 29.1519 35.139 29.1759L34.123 28.0759C34.149 28.0519 36.701 25.696 38.663 23.536C38.9632 23.129 39.3486 22.7923 39.7923 22.5496C40.236 22.3069 40.7273 22.164 41.2319 22.1308C41.7366 22.0976 42.2424 22.1748 42.7141 22.3572C43.1858 22.5397 43.612 22.8228 43.963 23.187C44.3124 23.4569 44.599 23.7994 44.8029 24.191C45.0068 24.5827 45.1232 25.0139 45.144 25.455C45.1107 26.4348 44.6963 27.363 43.989 28.0419L43.977 28.0529C43.93 28.0969 43.177 28.8009 36.102 35.8209C35.0226 36.8804 33.5705 37.474 32.058 37.4739C31.623 37.4739 20.803 37.5119 18.597 37.4739C18.1546 37.4751 17.718 37.5734 17.3179 37.7622C16.9178 37.9509 16.5642 38.2253 16.282 38.5659Z" fill="black"/>
</svg>
