<svg width="32" height="32" viewBox="0 0 32 32" fill="none" xmlns="http://www.w3.org/2000/svg">
<path d="M29.714 0H2.279C1.67143 0.00554468 1.09074 0.251272 0.663744 0.683518C0.236743 1.11577 -0.00187497 1.69941 -4.83139e-07 2.307V29.693C-0.00187497 30.3006 0.236743 30.8842 0.663744 31.3165C1.09074 31.7487 1.67143 31.9945 2.279 32H29.714C30.3228 31.9963 30.9053 31.7514 31.3338 31.3189C31.7623 30.8865 32.0019 30.3018 32 29.693V2.307C32.0019 1.69821 31.7623 1.11351 31.3338 0.681065C30.9053 0.248618 30.3228 0.00370285 29.714 0ZM4.929 27.429V12.157H9.679V27.429H4.929ZM7.3 10.071C6.7561 10.071 6.22442 9.90971 5.77218 9.60754C5.31995 9.30537 4.96747 8.87588 4.75933 8.37338C4.55119 7.87088 4.49673 7.31795 4.60284 6.7845C4.70895 6.25105 4.97086 5.76105 5.35546 5.37646C5.74005 4.99186 6.23005 4.72995 6.7635 4.62384C7.29695 4.51773 7.84988 4.57219 8.35238 4.78033C8.85488 4.98847 9.28437 5.34095 9.58654 5.79318C9.88871 6.24542 10.05 6.7771 10.05 7.321C10.0497 8.05026 9.75992 8.74958 9.24425 9.26525C8.72858 9.78092 8.02926 10.0707 7.3 10.071ZM27.45 27.429H22.707V20C22.707 18.229 22.671 15.95 20.243 15.95C17.772 15.95 17.393 17.879 17.393 19.871V27.428H12.65V12.157H17.2V14.243H17.264C17.721 13.4652 18.3799 12.8255 19.1709 12.3917C19.9618 11.9579 20.8555 11.7462 21.757 11.779C26.557 11.779 27.45 14.943 27.45 19.058V27.429Z" fill="black"/>
</svg>
