<svg width="186" height="40" viewBox="0 0 186 40" fill="none" xmlns="http://www.w3.org/2000/svg">
<path d="M168.701 5.808L159.952 26.095C161.523 26.0542 163.055 25.5967 164.391 24.7693C165.727 23.9419 166.82 22.7743 167.557 21.386L176.307 1.099C173.23 1.1 169.8 3.212 168.701 5.808Z" fill="black"/>
<path d="M119.768 37.757V38.373H119.9C120.208 38.373 120.34 38.461 120.34 38.637C120.34 38.857 120.164 38.945 119.857 38.945C119.767 38.9457 119.677 38.9308 119.593 38.901V39.301H119.901C120.601 39.301 120.956 39.081 120.956 38.601C120.965 38.5247 120.953 38.4473 120.922 38.3769C120.891 38.3065 120.842 38.2458 120.78 38.201C120.621 38.1059 120.437 38.0599 120.253 38.069V37.805H120.165C120.032 37.801 119.9 37.757 119.768 37.757Z" fill="black"/>
<path d="M102.137 33.093C101.908 32.8467 101.628 32.6525 101.318 32.5235C101.007 32.3944 100.673 32.3336 100.337 32.345C99.987 32.3333 99.6389 32.3937 99.3137 32.5224C98.9886 32.6511 98.6934 32.8453 98.4465 33.093C98.2015 33.3671 98.0135 33.6873 97.8933 34.0347C97.7732 34.3822 97.7233 34.7501 97.7465 35.117C97.715 35.8295 97.9667 36.5254 98.4465 37.053C98.6755 37.2993 98.9547 37.4935 99.2653 37.6225C99.5758 37.7516 99.9104 37.8124 100.247 37.801C100.59 37.8171 100.933 37.7586 101.252 37.6295C101.571 37.5004 101.858 37.3037 102.094 37.053C102.339 36.779 102.527 36.4589 102.647 36.1114C102.767 35.7639 102.817 35.3959 102.794 35.029C102.824 34.6784 102.782 34.3252 102.669 33.9919C102.556 33.6586 102.374 33.3525 102.137 33.093ZM101.478 36.525C101.332 36.6964 101.15 36.8328 100.944 36.9242C100.739 37.0156 100.515 37.0596 100.291 37.053C100.072 37.0637 99.8532 37.0213 99.6542 36.9294C99.4552 36.8374 99.2813 36.6987 99.1475 36.525C98.8613 36.1112 98.708 35.6201 98.708 35.117C98.708 34.6139 98.8613 34.1228 99.1475 33.709C99.2975 33.543 99.4807 33.4104 99.6851 33.3196C99.8896 33.2288 100.111 33.1819 100.335 33.1819C100.558 33.1819 100.779 33.2288 100.984 33.3196C101.188 33.4104 101.372 33.543 101.522 33.709C101.823 34.1319 101.977 34.6419 101.962 35.161C101.949 35.6556 101.78 36.1334 101.478 36.525Z" fill="black"/>
<path d="M106.402 32.432H105.523V37.713H108.468V36.965H106.402V32.432Z" fill="black"/>
<path d="M95.0145 35.381C94.8881 35.2404 94.7395 35.1215 94.5745 35.029C94.3985 34.941 94.2235 34.809 94.0475 34.721C93.8825 34.6561 93.7209 34.5827 93.5635 34.501C93.4404 34.4379 93.323 34.3643 93.2125 34.281C93.1245 34.193 93.0365 34.149 92.9925 34.061C92.9352 33.9685 92.9049 33.8618 92.9049 33.753C92.9049 33.6442 92.9352 33.5375 92.9925 33.445C93.0481 33.3398 93.143 33.2607 93.2565 33.225C93.371 33.1738 93.4886 33.1297 93.6085 33.093C93.7385 33.0561 93.8737 33.0412 94.0085 33.049C94.413 33.0236 94.8146 33.1318 95.1515 33.357V32.477C94.7732 32.3332 94.3683 32.2732 93.9645 32.301C93.729 32.3088 93.4947 32.3383 93.2645 32.389C93.0427 32.4309 92.8327 32.521 92.6495 32.653C92.4817 32.7768 92.3334 32.9251 92.2095 33.093C92.0797 33.2876 92.0178 33.5196 92.0335 33.753C92.0338 33.9326 92.0635 34.111 92.1215 34.281C92.1772 34.4331 92.2676 34.5701 92.3855 34.681C92.5077 34.7973 92.6418 34.9006 92.7855 34.989C92.9561 35.0758 93.1179 35.1789 93.2685 35.297C93.4445 35.385 93.5765 35.429 93.7515 35.517C93.8835 35.605 94.0155 35.649 94.1515 35.737L94.4155 36.001C94.4648 36.0969 94.4947 36.2016 94.5035 36.309C94.5062 36.4119 94.4835 36.5139 94.4374 36.606C94.3914 36.698 94.3234 36.7774 94.2395 36.837C93.9863 36.982 93.6938 37.0436 93.4035 37.013C93.2849 37.0176 93.1663 37.0027 93.0525 36.969C92.9205 36.925 92.7885 36.925 92.6525 36.881C92.5326 36.8443 92.415 36.8002 92.3005 36.749C92.1926 36.7 92.0895 36.6411 91.9925 36.573V37.453C92.0916 37.505 92.1946 37.5491 92.3005 37.585C92.4283 37.6355 92.5634 37.6652 92.7005 37.673C92.8305 37.7098 92.9657 37.7246 93.1005 37.717H93.4085C93.6598 37.7121 93.91 37.6826 94.1555 37.629C94.3774 37.5873 94.5874 37.4971 94.7705 37.365C94.9387 37.2416 95.0871 37.0932 95.2105 36.925C95.3211 36.7222 95.3818 36.4959 95.3875 36.265C95.3833 36.0857 95.3536 35.908 95.2995 35.737C95.2345 35.645 95.1025 35.51 95.0145 35.381Z" fill="black"/>
<path d="M114.139 35.513C114.139 36.525 113.739 37.013 112.996 37.013C112.205 37.013 111.809 36.485 111.809 35.473V32.432H110.93V35.644C110.93 37.052 111.59 37.756 112.952 37.756C114.359 37.756 115.063 37.008 115.063 35.556V32.432H114.183V35.512L114.139 35.513Z" fill="black"/>
<path d="M118.449 33.137C118.185 33.402 117.978 33.7184 117.842 34.0666C117.706 34.4149 117.643 34.7874 117.658 35.161C117.638 35.5076 117.69 35.8545 117.81 36.18C117.931 36.5056 118.117 36.8028 118.358 37.053C118.728 37.4461 119.227 37.6942 119.764 37.753V37.709H120.248V37.804C120.735 37.8271 121.22 37.7208 121.654 37.496V36.704C121.27 36.9383 120.829 37.0602 120.38 37.056C120.133 37.0655 119.887 37.0223 119.658 36.9293C119.429 36.8363 119.222 36.6956 119.052 36.5166C118.882 36.3376 118.752 36.1244 118.67 35.8912C118.589 35.658 118.558 35.4101 118.58 35.164C118.565 34.8988 118.604 34.6334 118.695 34.3838C118.785 34.1343 118.926 33.9057 119.108 33.712C119.294 33.5341 119.515 33.3957 119.757 33.305C119.998 33.2143 120.256 33.1731 120.514 33.184C120.931 33.1708 121.343 33.2777 121.702 33.492V32.604C121.294 32.4521 120.862 32.3775 120.427 32.384C120.061 32.3485 119.692 32.398 119.349 32.5286C119.006 32.6593 118.698 32.8675 118.449 33.137Z" fill="black"/>
<path d="M159.512 32.432H158.633V37.713H159.512V32.432Z" fill="black"/>
<path d="M142.102 32.432H140.563V37.713H142.014C142.801 37.7514 143.573 37.4833 144.168 36.965C144.434 36.7113 144.643 36.4031 144.779 36.0614C144.916 35.7197 144.977 35.3525 144.959 34.985C145.004 33.268 144.033 32.432 142.102 32.432ZM143.597 36.432C143.403 36.6136 143.175 36.7541 142.925 36.8448C142.676 36.9356 142.411 36.9748 142.146 36.96H141.446V33.18H142.193C142.446 33.1398 142.706 33.1594 142.95 33.2374C143.195 33.3154 143.418 33.4495 143.602 33.6291C143.786 33.8086 143.925 34.0286 144.008 34.2715C144.092 34.5144 144.117 34.7735 144.083 35.028C144.098 35.2833 144.063 35.5391 143.98 35.7808C143.896 36.0226 143.766 36.2456 143.597 36.437V36.432Z" fill="black"/>
<path d="M148.608 32.432H147.729V37.713H148.608V32.432Z" fill="black"/>
<path d="M175.819 32.432H174.984V37.713H177.884V36.965H175.819V32.432Z" fill="black"/>
<path d="M162.062 33.18H163.562V37.713H164.441V33.18H165.979V32.432H162.066L162.062 33.18Z" fill="black"/>
<path d="M170.547 32.432H169.58L167.602 37.713H168.569L169.009 36.393H171.08L171.563 37.713H172.531L170.547 32.432ZM169.228 35.644L169.928 33.532C169.967 33.4175 169.996 33.2997 170.015 33.18C170.06 33.312 170.06 33.444 170.103 33.532L170.85 35.644H169.228Z" fill="black"/>
<path d="M153.796 35.557H154.896V36.789C154.609 36.9338 154.293 37.0092 153.973 37.009C153.734 37.02 153.497 36.9783 153.276 36.8871C153.056 36.7958 152.858 36.6572 152.698 36.481C152.377 36.0712 152.206 35.5637 152.214 35.0432C152.222 34.5227 152.408 34.0207 152.742 33.621C152.92 33.4406 153.132 33.2973 153.366 33.1991C153.6 33.101 153.851 33.0499 154.105 33.049C154.617 33.0335 155.123 33.1729 155.556 33.449V32.569C155.081 32.3768 154.572 32.2869 154.061 32.305C153.688 32.2949 153.317 32.3598 152.969 32.4958C152.622 32.6319 152.305 32.8363 152.039 33.097C151.775 33.3619 151.568 33.6784 151.432 34.0266C151.296 34.3748 151.233 34.7474 151.248 35.121C151.228 35.4742 151.28 35.8278 151.4 36.1605C151.52 36.4932 151.706 36.7981 151.948 37.057C152.194 37.3048 152.489 37.4991 152.815 37.6278C153.14 37.7565 153.488 37.8168 153.838 37.805C154.48 37.8163 155.115 37.6649 155.684 37.365V34.852H153.706V35.552L153.796 35.557Z" fill="black"/>
<path d="M126.758 32.432H125.79L123.811 37.713H124.779L125.219 36.393H127.285L127.769 37.713H128.736L126.758 32.432ZM125.438 35.644L126.138 33.532C126.178 33.4177 126.207 33.2999 126.226 33.18C126.27 33.312 126.27 33.444 126.314 33.532L127.061 35.644H125.438Z" fill="black"/>
<path d="M125.748 31.597C125.908 31.611 126.061 31.6722 126.188 31.773C126.373 31.8862 126.585 31.9471 126.803 31.949C126.905 31.9517 127.007 31.9291 127.099 31.883C127.191 31.837 127.27 31.769 127.33 31.685C127.464 31.4777 127.527 31.2315 127.507 30.985H127.067C127.067 31.249 126.979 31.385 126.759 31.385C126.596 31.3785 126.441 31.3163 126.319 31.209C126.149 31.0969 125.95 31.0358 125.747 31.033C125.644 31.0303 125.542 31.0529 125.45 31.099C125.357 31.145 125.278 31.213 125.219 31.297C125.084 31.5044 125.022 31.7506 125.043 31.997H125.483C125.439 31.729 125.571 31.597 125.748 31.597Z" fill="black"/>
<path d="M135.111 33.093C134.882 32.8467 134.602 32.6525 134.292 32.5235C133.981 32.3944 133.647 32.3336 133.311 32.345C132.961 32.3332 132.613 32.3935 132.288 32.5222C131.962 32.6509 131.667 32.8452 131.421 33.093C131.175 33.367 130.987 33.6871 130.867 34.0346C130.747 34.3821 130.697 34.7501 130.721 35.117C130.688 35.8296 130.94 36.5258 131.421 37.053C131.65 37.2993 131.929 37.4935 132.239 37.6225C132.55 37.7516 132.884 37.8124 133.221 37.801C133.564 37.8171 133.907 37.7586 134.226 37.6295C134.545 37.5004 134.832 37.3037 135.068 37.053C135.313 36.7789 135.501 36.4587 135.621 36.1113C135.741 35.7638 135.791 35.3959 135.768 35.029C135.809 34.6778 135.771 34.3218 135.657 33.9869C135.544 33.6521 135.357 33.3467 135.111 33.093ZM134.452 36.525C134.306 36.6962 134.123 36.8325 133.917 36.9239C133.712 37.0153 133.488 37.0594 133.264 37.053C133.045 37.0637 132.827 37.0213 132.628 36.9293C132.429 36.8374 132.255 36.6987 132.122 36.525C131.835 36.1112 131.682 35.6201 131.682 35.117C131.682 34.6139 131.835 34.1228 132.122 33.709C132.272 33.543 132.455 33.4104 132.659 33.3196C132.864 33.2288 133.085 33.1819 133.309 33.1819C133.532 33.1819 133.753 33.2288 133.958 33.3196C134.162 33.4104 134.346 33.543 134.496 33.709C134.797 34.1319 134.951 34.6419 134.936 35.161C134.923 35.6556 134.754 36.1334 134.452 36.525Z" fill="black"/>
<path d="M142.233 25.612L142.497 25.568V23.063L142.189 23.107C142.057 23.107 141.925 23.151 141.749 23.151H141.266C140.897 23.1454 140.53 23.116 140.166 23.063C139.894 23.0111 139.648 22.8704 139.466 22.663C139.219 22.3738 139.052 22.0248 138.983 21.651C138.859 21.043 138.8 20.4235 138.807 19.803V7.789H142.016V5.193H138.807V0H136.213V5.193H133.707V7.793H136.213V19.543C136.211 20.4114 136.255 21.2792 136.345 22.143C136.399 22.8209 136.594 23.4801 136.917 24.079C137.222 24.6289 137.702 25.0621 138.28 25.311C138.991 25.5999 139.755 25.7362 140.523 25.711C140.816 25.7183 141.11 25.7036 141.402 25.667C141.68 25.6923 141.96 25.6738 142.233 25.612Z" fill="black"/>
<path d="M107.941 25.479V12.145C107.941 7.832 106.27 4.708 101.61 4.708C101.082 4.708 100.555 4.752 100.071 4.796C99.4502 4.86912 98.8439 5.03216 98.2705 5.28C97.5896 5.56177 96.9409 5.91579 96.3355 6.336C96.2485 6.38 96.1595 6.468 96.0725 6.512L94.8415 7.48V5.192H92.2445V25.435H94.8385V10.913L95.0585 10.693C95.8942 9.74534 96.8554 8.91633 97.9155 8.229C98.8507 7.63253 99.929 7.29821 101.038 7.261C101.738 7.25214 102.436 7.35614 103.104 7.569C103.613 7.74023 104.069 8.04393 104.423 8.449C104.784 8.89985 105.039 9.42616 105.17 9.989C105.332 10.7553 105.406 11.5378 105.39 12.321V25.479H107.941Z" fill="black"/>
<path d="M130.802 15.314C130.819 13.8247 130.612 12.3413 130.187 10.914C129.818 9.68926 129.206 8.55174 128.387 7.57C127.606 6.65921 126.628 5.93715 125.529 5.458C124.349 4.94911 123.076 4.69424 121.792 4.71C120.535 4.68996 119.29 4.94527 118.143 5.458C117.043 5.93715 116.065 6.65921 115.285 7.57C114.451 8.54958 113.823 9.68681 113.439 10.914C112.977 12.3341 112.754 13.8209 112.779 15.314C112.757 16.836 112.98 18.3516 113.439 19.803C113.864 21.0443 114.52 22.1941 115.373 23.192C116.202 24.1067 117.223 24.8277 118.363 25.304C119.576 25.7981 120.878 26.0364 122.188 26.004C123.168 26.0008 124.143 25.8662 125.088 25.604C125.967 25.3435 126.798 24.9423 127.55 24.416C128.257 23.8975 128.867 23.2568 129.35 22.524C129.859 21.7346 130.203 20.8501 130.361 19.924L130.406 19.616H127.813L127.769 19.88C127.724 20.4318 127.508 20.956 127.153 21.38C126.787 21.8395 126.34 22.2273 125.834 22.524C125.275 22.821 124.685 23.0557 124.076 23.224C123.428 23.384 122.763 23.4579 122.097 23.444C121.208 23.4584 120.326 23.2937 119.503 22.96C118.716 22.6529 118.01 22.1715 117.437 21.552C116.797 20.8662 116.304 20.0579 115.986 19.176C115.703 18.4546 115.51 17.7008 115.414 16.932L115.282 16.052H130.802V15.314ZM115.283 13.465L115.547 12.497C115.671 11.9333 115.863 11.3866 116.119 10.869C116.453 10.1101 116.931 9.42287 117.526 8.845C118.064 8.31916 118.708 7.91416 119.416 7.657C120.164 7.39253 120.952 7.25727 121.746 7.257C123.306 7.20989 124.822 7.77891 125.967 8.841C126.95 9.83541 127.636 11.0852 127.946 12.449L128.21 13.417H115.283V13.465Z" fill="black"/>
<path d="M159.117 5.808L150.368 26.095C151.939 26.0542 153.471 25.5967 154.807 24.7693C156.143 23.9419 157.236 22.7743 157.973 21.386L166.723 1.099C163.645 1.1 160.216 3.212 159.117 5.808Z" fill="black"/>
<path d="M177.142 21.431L185.891 1.144C184.319 1.18469 182.787 1.64215 181.451 2.46956C180.114 3.29697 179.021 4.46462 178.285 5.853L169.533 26.14C172.613 26.096 176.043 23.983 177.142 21.431Z" fill="black"/>
<path d="M7.43553 5.635C5.51603 5.58166 3.6475 6.25691 2.20553 7.525C1.291 8.42174 0.664352 9.5706 0.405533 10.825C0.104145 12.5686 -0.029798 14.3369 0.00553273 16.106C0.00553273 18.35 0.0495327 21.079 1.06053 23.106C1.34481 23.7113 1.73226 24.2625 2.20553 24.735C2.89583 25.3871 3.71207 25.8913 4.6042 26.2166C5.49632 26.542 6.44551 26.6816 7.39353 26.627C8.36532 26.6859 9.33773 26.5223 10.2368 26.1487C11.1358 25.7751 11.9377 25.2013 12.5815 24.471V26.671C12.5815 29.707 12.7575 30.06 10.0315 30.06H4.84153C0.752532 30.1 0.269533 32.124 0.269533 34.764H11.6565C14.1625 34.764 15.8775 34.364 17.1085 32.08C17.8995 30.804 17.9435 28.692 17.9435 26.799V5.635H7.43553ZM12.5355 14.964C12.675 16.7653 12.4506 18.5763 11.8755 20.289C11.6107 20.8021 11.1944 21.2213 10.6831 21.4897C10.1718 21.758 9.59027 21.8625 9.01753 21.789C8.18741 21.8396 7.36953 21.5697 6.73253 21.035C6.18536 20.5053 5.82973 19.8088 5.72153 19.055C5.54727 18.0987 5.47354 17.1267 5.50153 16.155C5.42697 14.7413 5.66601 13.3285 6.20153 12.018C6.64153 11.006 7.60853 10.518 9.05953 10.518H12.6205V14.963L12.5355 14.964Z" fill="black"/>
<path d="M41.3765 10.649C41.0236 9.37642 40.3589 8.21195 39.4425 7.261C38.567 6.36142 37.5111 5.65721 36.3442 5.19464C35.1772 4.73206 33.9256 4.52157 32.6715 4.577C31.4238 4.51979 30.1783 4.72963 29.0182 5.1925C27.8581 5.65536 26.8102 6.36058 25.9445 7.261C25.4735 7.72812 25.0736 8.2618 24.7575 8.845C24.4374 9.42981 24.1867 10.05 24.0105 10.693C23.8163 11.4586 23.6825 12.2384 23.6105 13.025C23.5225 13.905 23.4785 14.785 23.4785 15.665C23.4785 16.545 23.5225 17.425 23.6105 18.305C23.6865 19.1056 23.8202 19.8997 24.0105 20.681C24.1709 21.3292 24.4224 21.9514 24.7575 22.529C25.0735 23.1129 25.4734 23.6473 25.9445 24.115C26.8137 25.0107 27.8622 25.7127 29.0215 26.1752C30.1807 26.6378 31.4245 26.8503 32.6715 26.799C33.9258 26.8562 35.1779 26.6466 36.3452 26.1839C37.5124 25.7212 38.5681 25.016 39.4425 24.115C40.0539 23.4652 40.5584 22.7226 40.9375 21.915C41.3157 21.0461 41.5673 20.1274 41.6845 19.187C41.8333 18.0196 41.9068 16.8438 41.9045 15.667C41.9499 13.9784 41.7724 12.2912 41.3765 10.649ZM36.2325 18.966C36.1346 19.7228 35.7777 20.4224 35.2225 20.946C34.887 21.2741 34.4873 21.5294 34.0485 21.696C33.6097 21.8625 33.1413 21.9368 32.6725 21.914C32.2108 21.9327 31.7502 21.8564 31.3191 21.6899C30.8881 21.5234 30.4958 21.2702 30.1665 20.946C29.6338 20.3709 29.2822 19.6516 29.1555 18.878C28.9788 17.8169 28.9051 16.7413 28.9355 15.666C28.9271 14.6059 29.0006 13.5467 29.1555 12.498C29.2633 11.7185 29.6175 10.9938 30.1665 10.43C30.4958 10.1058 30.8881 9.85266 31.3192 9.68616C31.7502 9.51966 32.2108 9.44337 32.6725 9.462C33.1409 9.44331 33.6081 9.51942 34.0463 9.68576C34.4845 9.8521 34.8846 10.1052 35.2225 10.43C35.7454 10.9773 36.0968 11.6656 36.2335 12.41C36.4152 13.4853 36.4889 14.576 36.4535 15.666C36.4866 16.7706 36.4125 17.8757 36.2325 18.966Z" fill="black"/>
<path d="M63.9745 10.649C63.6214 9.3763 62.9563 8.21182 62.0395 7.261C61.164 6.36142 60.1081 5.65721 58.9412 5.19464C57.7742 4.73206 56.5226 4.52157 55.2685 4.577C54.0208 4.51979 52.7753 4.72963 51.6152 5.1925C50.4551 5.65536 49.4072 6.36058 48.5415 7.261C48.0709 7.72819 47.6713 8.26186 47.3555 8.845C47.0354 9.42982 46.7847 10.05 46.6085 10.693C46.4143 11.4586 46.2805 12.2384 46.2085 13.025C46.1205 13.905 46.0765 14.785 46.0765 15.665C46.0765 16.545 46.1205 17.425 46.2085 18.305C46.2845 19.1056 46.4182 19.8997 46.6085 20.681C46.7689 21.3292 47.0204 21.9514 47.3555 22.529C47.6715 23.1129 48.0714 23.6473 48.5425 24.115C49.4117 25.0107 50.4602 25.7127 51.6195 26.1752C52.7787 26.6378 54.0225 26.8503 55.2695 26.799C56.5238 26.8562 57.7759 26.6466 58.9432 26.1839C60.1104 25.7212 61.1661 25.016 62.0405 24.115C62.6519 23.4652 63.1565 22.7226 63.5355 21.915C63.9137 21.0461 64.1653 20.1274 64.2825 19.187C64.4313 18.0196 64.5048 16.8438 64.5025 15.667C64.5479 13.9784 64.3703 12.2912 63.9745 10.649ZM58.8305 18.966C58.7322 19.7229 58.375 20.4225 57.8195 20.946C57.1251 21.5695 56.2248 21.9144 55.2915 21.9144C54.3583 21.9144 53.458 21.5695 52.7635 20.946C52.2308 20.3709 51.8792 19.6516 51.7525 18.878C51.5758 17.8169 51.5022 16.7413 51.5325 15.666C51.5241 14.6059 51.5976 13.5467 51.7525 12.498C51.8603 11.7185 52.2145 10.9938 52.7635 10.43C53.0928 10.1058 53.4851 9.85266 53.9162 9.68616C54.3472 9.51966 54.8078 9.44337 55.2695 9.462C55.7379 9.44331 56.2051 9.51942 56.6433 9.68576C57.0815 9.8521 57.4816 10.1052 57.8195 10.43C58.3423 10.9774 58.6937 11.6656 58.8305 12.41C59.0122 13.4853 59.0859 14.576 59.0505 15.666C59.0838 16.7705 59.0102 17.8757 58.8305 18.966Z" fill="black"/>
<path d="M76.1535 5.635C74.2333 5.58115 72.364 6.25643 70.9215 7.525C70.007 8.42174 69.3803 9.5706 69.1215 10.825C68.8182 12.5683 68.6843 14.3369 68.7215 16.106C68.7215 18.35 68.7655 21.079 69.7765 23.106C70.1033 23.6965 70.5027 24.2438 70.9655 24.735C71.6558 25.3871 72.4721 25.8913 73.3642 26.2166C74.2563 26.542 75.2055 26.6816 76.1535 26.627C77.1253 26.6859 78.0977 26.5223 78.9968 26.1487C79.8958 25.7751 80.6977 25.2013 81.3415 24.471V26.671C81.3415 29.707 81.5175 30.06 78.7915 30.06H73.6035C69.5145 30.06 69.0315 32.084 69.0315 34.725H80.4185C82.9245 34.725 84.6395 34.325 85.8705 32.041C86.6615 30.765 86.7055 28.652 86.7055 26.76V5.635H76.1535ZM81.2535 14.964C81.3933 16.7652 81.1692 18.5762 80.5945 20.289C80.3297 20.8021 79.9134 21.2213 79.4021 21.4897C78.8908 21.758 78.3093 21.8625 77.7365 21.789C76.9069 21.8415 76.0887 21.5738 75.4505 21.041C74.9034 20.5113 74.5477 19.8148 74.4395 19.061C74.2652 18.1047 74.1915 17.1327 74.2195 16.161C74.145 14.7473 74.384 13.3345 74.9195 12.024C75.3595 11.012 76.3265 10.524 77.7775 10.524H81.3385V14.969L81.2535 14.964Z" fill="black"/>
</svg>
