<svg xmlns="http://www.w3.org/2000/svg" width="30.02" height="16.516" viewBox="0 0 30.02 16.516">
  <defs>
    <style>
      .cls-1 {
        fill: #84ef2a;
      }
    </style>
  </defs>
  <g id="Grupo_28" data-name="Grupo 28" transform="translate(-3103.25 -5989)">
    <path id="Caminho_109" data-name="Caminho 109" class="cls-1" d="M1825.158,6111.993h-4.446a.75.75,0,0,1,0-1.5h4.446a.75.75,0,0,1,0,1.5Z" transform="translate(1284.6 -118.426)"/>
    <path id="Caminho_110" data-name="Caminho 110" class="cls-1" d="M1827.772,6236.672h-7.06a.75.75,0,0,1,0-1.5h7.06a.75.75,0,0,1,0,1.5Z" transform="translate(1285.234 -239.213)"/>
    <path id="Caminho_111" data-name="Caminho 111" class="cls-1" d="M1780.68,6298.348h-3.208a.75.75,0,0,1,0-1.5h3.208a.75.75,0,0,1,0,1.5Z" transform="translate(1327.205 -298.964)"/>
    <path id="Caminho_112" data-name="Caminho 112" class="cls-1" d="M1759.3,6357.987h-2.625a.75.75,0,0,1,0-1.5h2.625a.75.75,0,0,1,0,1.5Z" transform="translate(1347.328 -356.741)"/>
    <path id="Caminho_113" data-name="Caminho 113" class="cls-1" d="M1861.578,6437.882h-3.04a.75.75,0,0,1,0-1.5h3.04a.75.75,0,0,1,0,1.5Z" transform="translate(1248.087 -434.142)"/>
    <path id="Retângulo_55" data-name="Retângulo 55" class="cls-1" d="M2,1.5a.5.5,0,0,0-.5.5V14.515a.5.5,0,0,0,.5.5H22.133a.5.5,0,0,0,.5-.5V2a.5.5,0,0,0-.5-.5H2M2,0H22.133a2,2,0,0,1,2,2V14.515a2,2,0,0,1-2,2H2a2,2,0,0,1-2-2V2A2,2,0,0,1,2,0Z" transform="translate(3109.137 5989)"/>
    <path id="Caminho_114" data-name="Caminho 114" class="cls-1" d="M1979.989,6025.976a.75.75,0,0,1-.49-.182l-11.019-9.508a.75.75,0,0,1,.98-1.136l10.537,9.093,10.7-8.907a.75.75,0,0,1,.959,1.153l-11.192,9.313A.749.749,0,0,1,1979.989,6025.976Z" transform="translate(1141.202 -25.736)"/>
    <path id="Caminho_115" data-name="Caminho 115" class="cls-1" d="M1968.97,6236.939a.75.75,0,0,1-.554-1.255l7.254-7.952a.75.75,0,1,1,1.108,1.011l-7.254,7.952A.749.749,0,0,1,1968.97,6236.939Z" transform="translate(1141.41 -231.768)"/>
    <path id="Caminho_116" data-name="Caminho 116" class="cls-1" d="M2447.711,6237.808a.748.748,0,0,1-.552-.243l-7.281-7.924a.75.75,0,0,1,1.1-1.015l7.281,7.924a.75.75,0,0,1-.552,1.257Z" transform="translate(684.362 -232.637)"/>
  </g>
</svg>
