<svg width="31" height="17" viewBox="0 0 31 17" fill="none" xmlns="http://www.w3.org/2000/svg">
<path d="M6.50793 4.56738H2.06201C1.8631 4.56738 1.67227 4.48831 1.53162 4.34766C1.39096 4.207 1.31201 4.01629 1.31201 3.81738C1.31201 3.61847 1.39096 3.42776 1.53162 3.28711C1.67227 3.14646 1.8631 3.06738 2.06201 3.06738H6.50793C6.70685 3.06738 6.89768 3.14646 7.03833 3.28711C7.17898 3.42776 7.25793 3.61847 7.25793 3.81738C7.25793 4.01629 7.17898 4.207 7.03833 4.34766C6.89768 4.48831 6.70685 4.56738 6.50793 4.56738Z" fill="black"/>
<path d="M9.75598 8.45898H2.69604C2.49713 8.45898 2.3063 8.37991 2.16565 8.23926C2.025 8.09861 1.94604 7.9079 1.94604 7.70898C1.94604 7.51007 2.025 7.31936 2.16565 7.17871C2.3063 7.03806 2.49713 6.95898 2.69604 6.95898H9.75598C9.95489 6.95898 10.1457 7.03806 10.2864 7.17871C10.427 7.31936 10.506 7.51007 10.506 7.70898C10.506 7.9079 10.427 8.09861 10.2864 8.23926C10.1457 8.37991 9.95489 8.45898 9.75598 8.45898Z" fill="black"/>
<path d="M4.63501 10.3843H1.427C1.22809 10.3843 1.03726 10.3052 0.896606 10.1646C0.755954 10.0239 0.677002 9.83319 0.677002 9.63428C0.677002 9.43536 0.755954 9.24466 0.896606 9.104C1.03726 8.96335 1.22809 8.88428 1.427 8.88428H4.63501C4.83392 8.88428 5.02463 8.96335 5.16528 9.104C5.30594 9.24466 5.38501 9.43536 5.38501 9.63428C5.38501 9.83319 5.30594 10.0239 5.16528 10.1646C5.02463 10.3052 4.83392 10.3843 4.63501 10.3843Z" fill="black"/>
<path d="M3.37793 12.2456H0.75293C0.554017 12.2456 0.363186 12.1665 0.222534 12.0259C0.0818819 11.8852 0.00292969 11.6945 0.00292969 11.4956C0.00292969 11.2967 0.0818819 11.106 0.222534 10.9653C0.363186 10.8247 0.554017 10.7456 0.75293 10.7456H3.37793C3.57684 10.7456 3.76755 10.8247 3.9082 10.9653C4.04886 11.106 4.12793 11.2967 4.12793 11.4956C4.12793 11.6945 4.04886 11.8852 3.9082 12.0259C3.76755 12.1665 3.57684 12.2456 3.37793 12.2456Z" fill="black"/>
<path d="M6.41504 14.7397H3.375C3.17609 14.7397 2.98538 14.6607 2.84473 14.52C2.70407 14.3794 2.625 14.1887 2.625 13.9897C2.625 13.7908 2.70407 13.6001 2.84473 13.4595C2.98538 13.3188 3.17609 13.2397 3.375 13.2397H6.41504C6.61395 13.2397 6.80466 13.3188 6.94531 13.4595C7.08596 13.6001 7.16504 13.7908 7.16504 13.9897C7.16504 14.1887 7.08596 14.3794 6.94531 14.52C6.80466 14.6607 6.61395 14.7397 6.41504 14.7397Z" fill="black"/>
<path d="M7.88696 1.5C7.75435 1.5 7.62718 1.55268 7.53341 1.64645C7.43964 1.74021 7.38696 1.86739 7.38696 2V14.515C7.38696 14.6476 7.43964 14.7748 7.53341 14.8686C7.62718 14.9623 7.75435 15.015 7.88696 15.015H28.02C28.1526 15.015 28.2797 14.9623 28.3735 14.8686C28.4673 14.7748 28.52 14.6476 28.52 14.515V2C28.52 1.86739 28.4673 1.74021 28.3735 1.64645C28.2797 1.55268 28.1526 1.5 28.02 1.5H7.88696ZM7.88696 0H28.02C28.5504 0 29.0591 0.210714 29.4342 0.585786C29.8092 0.960859 30.02 1.46957 30.02 2V14.515C30.02 15.0454 29.8092 15.5541 29.4342 15.9292C29.0591 16.3043 28.5504 16.515 28.02 16.515H7.88696C7.35653 16.515 6.84782 16.3043 6.47275 15.9292C6.09768 15.5541 5.88696 15.0454 5.88696 14.515V2C5.88696 1.46957 6.09768 0.960859 6.47275 0.585786C6.84782 0.210714 7.35653 0 7.88696 0Z" fill="black"/>
<path d="M17.941 11.2403C17.7611 11.2404 17.5872 11.1756 17.451 11.0582L6.43197 1.55037C6.28132 1.42041 6.18854 1.2356 6.17391 1.03719C6.15928 0.838773 6.22401 0.642908 6.35396 0.492265C6.48392 0.341622 6.66837 0.248592 6.86678 0.233964C7.06519 0.219336 7.2613 0.284184 7.41195 0.41414L17.9489 9.5074L28.649 0.600175C28.8024 0.477709 28.9977 0.420098 29.193 0.440019C29.3882 0.459939 29.568 0.555701 29.6936 0.70662C29.8191 0.85754 29.8803 1.05199 29.8643 1.24764C29.8483 1.44328 29.7564 1.62447 29.608 1.75301L18.416 11.066C18.2826 11.1773 18.1147 11.2392 17.941 11.2403Z" fill="black"/>
<path d="M7.12986 16.1709C6.98455 16.1708 6.8424 16.1287 6.72068 16.0493C6.59897 15.9699 6.503 15.8565 6.44431 15.7236C6.38563 15.5907 6.36675 15.4437 6.39012 15.3003C6.41348 15.1568 6.47806 15.0234 6.57591 14.916L13.8299 6.96384C13.896 6.88998 13.976 6.82981 14.0654 6.78708C14.1548 6.74435 14.252 6.71983 14.3509 6.71481C14.4499 6.7098 14.5489 6.7248 14.6422 6.75827C14.7355 6.79174 14.8212 6.84332 14.8944 6.91013C14.9676 6.97693 15.0268 7.05759 15.0687 7.14743C15.1106 7.23727 15.1341 7.33454 15.1382 7.43356C15.1422 7.53259 15.1266 7.63114 15.0923 7.72409C15.0579 7.81704 15.0054 7.90251 14.9378 7.97507L7.68394 15.9267C7.61366 16.0037 7.52799 16.0654 7.4326 16.1074C7.3372 16.1494 7.2341 16.171 7.12986 16.1709Z" fill="black"/>
<path d="M28.8231 16.1709C28.7192 16.1709 28.6166 16.1493 28.5215 16.1074C28.4265 16.0656 28.3412 16.0044 28.2711 15.9278L20.99 8.00393C20.8705 7.85582 20.8118 7.66789 20.8257 7.47805C20.8397 7.2882 20.9251 7.11055 21.065 6.98146C21.2049 6.85238 21.3886 6.78137 21.5789 6.78273C21.7693 6.7841 21.9521 6.8577 22.0901 6.98879L29.3712 14.9126C29.4695 15.0199 29.5346 15.1538 29.5584 15.2974C29.5822 15.441 29.5637 15.588 29.5052 15.7212C29.4467 15.8545 29.3506 15.9678 29.2288 16.0474C29.107 16.127 28.9647 16.1698 28.8191 16.1699L28.8231 16.1709Z" fill="black"/>
</svg>
