<svg width="38" height="39" viewBox="0 0 38 39" fill="none" xmlns="http://www.w3.org/2000/svg">
<path d="M17.5 39C17.3523 39 17.2107 38.9414 17.1062 38.8369C17.0017 38.7325 16.9431 38.5906 16.9431 38.4429V36.1699C13.3585 35.7154 10.0266 34.0823 7.47168 31.5273C4.91671 28.9724 3.28363 25.6407 2.8291 22.0562H0.555908C0.408183 22.0562 0.266567 21.9975 0.162109 21.8931C0.0576516 21.7886 -0.000976562 21.6467 -0.000976562 21.499V18.499C-0.000976562 18.3513 0.0576516 18.2094 0.162109 18.105C0.266567 18.0005 0.408183 17.9419 0.555908 17.9419H2.8291C3.27882 14.4196 4.86445 11.14 7.34595 8.6001C7.397 8.54777 7.45795 8.50583 7.52515 8.47705C7.59235 8.44827 7.66445 8.43296 7.73755 8.43213C7.81065 8.43129 7.88333 8.44493 7.95117 8.47217C8.01901 8.4994 8.08083 8.53967 8.13306 8.59082C8.2385 8.69405 8.29861 8.83487 8.30029 8.98242C8.30198 9.12997 8.24514 9.27231 8.14209 9.37793C5.8637 11.7095 4.39437 14.7113 3.95093 17.9409H5.85596C6.29446 15.1578 7.60266 12.5849 9.59302 10.5908C11.587 8.60041 14.16 7.29244 16.9431 6.854V4.94922C14.4451 5.28802 12.0713 6.24499 10.0371 7.73389C9.94211 7.80398 9.82704 7.84173 9.70898 7.8418C9.62148 7.84181 9.5353 7.82136 9.45728 7.78174C9.37926 7.74212 9.31163 7.68442 9.26001 7.61377C9.21672 7.55484 9.18537 7.48801 9.16797 7.41699C9.15057 7.34597 9.14754 7.27246 9.15869 7.2002C9.16984 7.12793 9.19517 7.05857 9.23315 6.99609C9.27114 6.93361 9.32085 6.87909 9.37988 6.83594C11.6046 5.2071 14.2075 4.17149 16.9431 3.82617V1.5542C16.9431 1.40647 17.0017 1.26461 17.1062 1.16016C17.2107 1.0557 17.3523 0.99707 17.5 0.99707H20.5C20.6477 0.99707 20.7893 1.0557 20.8938 1.16016C20.9983 1.26461 21.0569 1.40647 21.0569 1.5542V3.82715C24.6415 4.28168 27.9734 5.91476 30.5283 8.46973C33.0833 11.0247 34.7164 14.3564 35.1709 17.9409H37.4441C37.5918 17.9409 37.7334 17.9995 37.8379 18.104C37.9423 18.2085 38.001 18.3503 38.001 18.498V21.498C38.001 21.6458 37.9423 21.7876 37.8379 21.8921C37.7334 21.9965 37.5918 22.0552 37.4441 22.0552H35.1709C34.7164 25.6397 33.0833 28.9714 30.5283 31.5264C27.9734 34.0813 24.6415 35.7144 21.0569 36.1689V38.4419C21.0569 38.5896 20.9983 38.7315 20.8938 38.8359C20.7893 38.9404 20.6477 38.999 20.5 38.999L17.5 39ZM18.0569 37.8872H19.9431V30.603H18.0569V37.8872ZM16.9441 35.0488V33.144C14.1609 32.7059 11.5878 31.3979 9.59399 29.4072C7.60341 27.4133 6.29517 24.8403 5.85693 22.0571H3.9519C4.40002 25.3448 5.91317 28.395 8.25952 30.7412C10.6059 33.0874 13.6563 34.601 16.9441 35.0488ZM28.7019 28.2842C28.7554 28.334 28.7988 28.3939 28.8291 28.4604C28.8594 28.527 28.8764 28.5988 28.8789 28.6719C28.8814 28.745 28.8695 28.8177 28.8438 28.8862C28.818 28.9547 28.779 29.0174 28.729 29.0708C26.6991 31.2492 23.9967 32.6837 21.0549 33.144V35.0488C24.3428 34.6009 27.3934 33.0881 29.7397 30.7417C32.0861 28.3953 33.5992 25.345 34.0471 22.0571H32.1421C31.8784 23.7716 31.2778 25.4167 30.375 26.8979C30.3253 26.9799 30.2552 27.0478 30.1716 27.0947C30.0881 27.1417 29.9938 27.1662 29.8979 27.166C29.7963 27.1661 29.6968 27.138 29.6101 27.085C29.4839 27.0083 29.3932 26.8847 29.3582 26.7412C29.3231 26.5978 29.3465 26.4461 29.4231 26.3198C30.2197 25.0129 30.7595 23.5664 31.0139 22.0571H29.0449C28.8972 22.0571 28.7556 21.9985 28.6511 21.894C28.5467 21.7896 28.488 21.6477 28.488 21.5V18.5C28.488 18.3523 28.5467 18.2104 28.6511 18.106C28.7556 18.0015 28.8972 17.9429 29.0449 17.9429H31.0139C30.5983 15.4522 29.4151 13.1537 27.6296 11.3682C25.8442 9.58268 23.5456 8.3995 21.0549 7.98389V9.95312C21.0549 10.1009 20.9963 10.2422 20.8918 10.3467C20.7874 10.4511 20.6458 10.5098 20.498 10.5098H17.498C17.3503 10.5098 17.2087 10.4511 17.1042 10.3467C16.9998 10.2422 16.9409 10.1009 16.9409 9.95312V7.98291C14.4502 8.39872 12.1517 9.58202 10.3662 11.3677C8.58073 13.1533 7.39749 15.4521 6.98193 17.9429H8.95093C9.09865 17.9429 9.24051 18.0015 9.34497 18.106C9.44943 18.2104 9.50806 18.3523 9.50806 18.5V21.5C9.50806 21.6477 9.44943 21.7896 9.34497 21.894C9.24051 21.9985 9.09865 22.0571 8.95093 22.0571H6.98193C7.39768 24.5477 8.58099 26.8459 10.3665 28.6313C12.1519 30.4168 14.4504 31.6004 16.9409 32.0161V30.0469C16.9409 29.8991 16.9998 29.7578 17.1042 29.6533C17.2087 29.5489 17.3503 29.4902 17.498 29.4902H20.498C20.6458 29.4902 20.7874 29.5489 20.8918 29.6533C20.9963 29.7578 21.0549 29.8991 21.0549 30.0469V32.0161C23.6848 31.5666 26.0948 30.2666 27.915 28.3159C27.9671 28.26 28.0301 28.2155 28.1001 28.1851C28.1701 28.1546 28.2457 28.1391 28.322 28.1392C28.4617 28.1378 28.5966 28.1893 28.7 28.2832L28.7019 28.2842ZM29.6021 20.9429H36.886V19.0571H29.6021V20.9429ZM1.11206 20.9429H8.396V19.0571H1.11206V20.9429ZM21.0549 6.85693C23.838 7.29531 26.4111 8.60377 28.405 10.5942C30.3956 12.5881 31.7039 15.1607 32.1421 17.9438H34.0471C33.5992 14.656 32.0861 11.6056 29.7397 9.25928C27.3934 6.91291 24.3428 5.40006 21.0549 4.95215V6.85693ZM18.0549 9.39697H19.9409V2.11279H18.0549V9.39697ZM11.876 28.2041C11.7283 28.2041 11.5866 28.1455 11.4822 28.041C11.3777 27.9366 11.3191 27.7947 11.3191 27.647C11.3191 27.5739 11.3333 27.5016 11.3613 27.4341C11.3893 27.3666 11.4304 27.3051 11.4822 27.2534C11.5339 27.2018 11.5953 27.1607 11.6628 27.1328C11.7304 27.1049 11.8029 27.0907 11.876 27.0908H12.4441V21.6499C12.4441 21.5022 12.5027 21.3608 12.6072 21.2563C12.7116 21.1519 12.8533 21.0928 13.001 21.0928H15.4009C15.5486 21.0928 15.6905 21.1519 15.7949 21.2563C15.8994 21.3608 15.958 21.5022 15.958 21.6499V27.0908H17.2439V19.4009C17.2438 19.3277 17.2582 19.2551 17.2861 19.1875C17.3141 19.1199 17.355 19.0586 17.4067 19.0068C17.4585 18.9551 17.52 18.9142 17.5876 18.8862C17.6553 18.8583 17.7278 18.8441 17.801 18.8442H20.2009C20.2741 18.8441 20.3467 18.8583 20.4143 18.8862C20.4819 18.9142 20.5435 18.9551 20.5952 19.0068C20.647 19.0586 20.6879 19.1199 20.7158 19.1875C20.7438 19.2551 20.7582 19.3277 20.7581 19.4009V27.0908H22.0439V16.5508C22.0439 16.4031 22.1026 16.2617 22.207 16.1572C22.3115 16.0528 22.4533 15.9941 22.6011 15.9941H25.001C25.1487 15.9941 25.2903 16.0528 25.3948 16.1572C25.4992 16.2617 25.5581 16.4031 25.5581 16.5508V27.0908H26.126C26.2735 27.0908 26.4151 27.1497 26.5195 27.2539C26.624 27.3581 26.6828 27.4994 26.6831 27.647C26.6831 27.7947 26.6242 27.9366 26.5198 28.041C26.4153 28.1455 26.2737 28.2041 26.126 28.2041H11.876ZM23.1541 27.0908H24.4399V17.1079H23.1541V27.0908ZM18.354 27.0908H19.6399V19.957H18.354V27.0908ZM13.554 27.0908H14.8401V22.2061H13.554V27.0908ZM12.5039 18.3101C12.4699 18.2454 12.449 18.1748 12.4424 18.1021C12.4358 18.0293 12.4436 17.956 12.4653 17.8862C12.4871 17.8165 12.5223 17.7514 12.5691 17.6953C12.6159 17.6392 12.6733 17.593 12.738 17.5591L21.8101 12.7959L21.4241 12.061C21.3996 12.0144 21.3877 11.9623 21.3899 11.9097C21.392 11.8571 21.4081 11.8057 21.4363 11.7612C21.4645 11.7167 21.5039 11.6807 21.5505 11.6562C21.5972 11.6318 21.6493 11.6199 21.7019 11.6221L24.4729 11.7329C24.5255 11.7351 24.5767 11.7511 24.6211 11.7793C24.6655 11.8075 24.7017 11.847 24.7261 11.8936C24.7505 11.9402 24.7624 11.9924 24.7603 12.0449C24.7581 12.0975 24.7422 12.1484 24.7141 12.1929L23.2319 14.5381C23.2038 14.5825 23.1645 14.6186 23.1179 14.6431C23.0713 14.6675 23.0191 14.6794 22.9666 14.6772C22.914 14.6751 22.8628 14.659 22.8184 14.6309C22.7739 14.6027 22.7374 14.5637 22.7129 14.5171L22.3269 13.7822L13.2549 18.5449C13.1754 18.5869 13.087 18.6088 12.9971 18.6089C12.8962 18.6078 12.7974 18.5792 12.7114 18.5264C12.6255 18.4735 12.5556 18.3986 12.509 18.3091L12.5039 18.3101Z" fill="black"/>
</svg>
