<svg width="38" height="39" viewBox="0 0 38 39" fill="none" xmlns="http://www.w3.org/2000/svg">
<path d="M34.385 37.814L28.521 31.9502C27.7339 32.505 26.8614 32.9276 25.938 33.2012C24.8239 33.5317 23.6556 33.6396 22.4998 33.5186C21.3439 33.3975 20.2231 33.0498 19.2017 32.4956C18.1802 31.9414 17.278 31.1915 16.5464 30.2886C15.8148 29.3856 15.2683 28.3471 14.938 27.2329H6.33105V25.9658H14.666C14.4274 24.4326 14.6113 22.8633 15.198 21.4268V14.5659H16.4651V19.2319C16.8413 18.7517 17.2657 18.3114 17.7319 17.918V13.2988H19V17.0322C19.4057 16.7989 19.8295 16.5982 20.2671 16.4321V13.937H21.5339V16.0469C21.9514 15.9568 22.3749 15.8976 22.801 15.8691V11.4028H24.0681V15.8691C24.4942 15.8976 24.9175 15.9569 25.335 16.0469V10.1372H26.6021V16.4321C27.0397 16.5981 27.4632 16.7989 27.8689 17.0322V12.666H29.136V17.918C29.6022 18.3114 30.0269 18.7517 30.4031 19.2319V15.1992H31.6699V21.4268C32.2566 22.8633 32.4405 24.4326 32.2019 25.9658H32.937V27.2329H31.9299C31.7453 27.8515 31.4928 28.4481 31.177 29.0112L37.1841 35.0181C37.2436 35.0769 37.2908 35.1469 37.323 35.2241C37.3552 35.3014 37.3718 35.3841 37.3718 35.4678C37.3718 35.5515 37.3552 35.6347 37.323 35.7119C37.2908 35.7892 37.2436 35.8591 37.1841 35.918L35.2839 37.8179C35.2252 37.8769 35.1555 37.9236 35.0786 37.9556C35.0017 37.9875 34.9192 38.0039 34.8359 38.0039C34.7519 38.0038 34.6687 37.9872 34.5913 37.9546C34.5139 37.922 34.4438 37.874 34.385 37.814ZM29.5049 31.1431L34.833 36.4712L35.833 35.4712L30.4541 30.0918C30.1662 30.4668 29.8492 30.8188 29.5061 31.144L29.5049 31.1431ZM15.832 24.7002C15.8344 26.7151 16.6358 28.6465 18.0605 30.0713C19.4853 31.496 21.417 32.2974 23.4319 32.2998C24.4299 32.2998 25.4183 32.1036 26.3403 31.7217C27.2624 31.3397 28.1002 30.7799 28.8059 30.0742C29.5116 29.3685 30.0714 28.5305 30.4534 27.6084C30.8353 26.6863 31.032 25.6982 31.032 24.7002C31.032 22.6846 30.2312 20.7514 28.8059 19.3262C27.3806 17.9009 25.4475 17.1001 23.4319 17.1001C21.4164 17.1004 19.4837 17.9009 18.0586 19.3262C16.6335 20.7514 15.832 22.6847 15.832 24.7002ZM6.96509 31.667C6.12547 31.6659 5.32051 31.332 4.72681 30.7383C4.13311 30.1446 3.79915 29.3396 3.7981 28.5V8.23291C3.79915 7.39329 4.13311 6.58833 4.72681 5.99463C5.32051 5.40093 6.12547 5.06698 6.96509 5.06592H32.2981C33.1377 5.06698 33.9424 5.40093 34.5361 5.99463C35.1298 6.58833 35.464 7.39329 35.4651 8.23291V28.5C35.4654 29.2715 35.1837 30.0168 34.6731 30.5952L33.7229 29.7568C34.0291 29.4097 34.1981 28.9629 34.198 28.5V8.23291C34.198 7.9834 34.149 7.73638 34.0535 7.50586C33.958 7.27534 33.818 7.06608 33.6416 6.88965C33.4652 6.71322 33.2557 6.57302 33.0251 6.47754C32.7946 6.38206 32.5476 6.33301 32.2981 6.33301H6.96509C6.46118 6.33301 5.9779 6.53333 5.62158 6.88965C5.26526 7.24597 5.06494 7.729 5.06494 8.23291V28.5C5.06494 29.0039 5.26526 29.4869 5.62158 29.8433C5.9779 30.1996 6.46118 30.3999 6.96509 30.3999H15.198V31.667H6.96509ZM17.0991 24.7002C17.0991 23.0206 17.7662 21.4093 18.9539 20.2217C20.1415 19.034 21.7523 18.3672 23.4319 18.3672C25.1109 18.369 26.7207 19.0369 27.908 20.2241C29.0952 21.4114 29.763 23.0211 29.7649 24.7002C29.7649 26.3798 29.0978 27.9906 27.9102 29.1782C26.7225 30.3659 25.1115 31.0332 23.4319 31.0332C21.7524 31.0329 20.142 30.3654 18.9546 29.1777C17.7671 27.9901 17.0991 26.3796 17.0991 24.7002ZM23.4319 29.7661C24.3201 29.765 25.1925 29.5305 25.9614 29.0859C26.7304 28.6414 27.3689 28.0021 27.813 27.2329H19.05C19.4942 28.0026 20.133 28.6421 20.9023 29.0869C21.6717 29.5317 22.5445 29.7662 23.4331 29.7671L23.4319 29.7661ZM18.532 25.9658H28.332C28.5815 25.022 28.5505 24.026 28.2427 23.0996C27.9349 22.1732 27.3638 21.3568 26.5991 20.75V24.6992H25.332V20.0049C24.9258 19.8404 24.4998 19.7294 24.0649 19.6748V24.6982H22.7981V19.6748C22.3632 19.7293 21.9372 19.8403 21.531 20.0049V24.6992H20.2639V20.75C19.4994 21.3572 18.9285 22.174 18.6211 23.1006C18.3137 24.0272 18.2831 25.0231 18.533 25.9668L18.532 25.9658ZM-0.000976562 23.4331V3.16602C-0.000182272 2.32632 0.333735 1.521 0.92749 0.927246C1.52125 0.33349 2.32632 -0.000182272 3.16602 -0.000976562H28.499C29.3387 -0.000182272 30.1438 0.33349 30.7375 0.927246C31.3313 1.521 31.6652 2.32632 31.666 3.16602V3.79883H30.3989V3.16602C30.3989 2.6621 30.1988 2.17858 29.8425 1.82227C29.4862 1.46595 29.0029 1.26611 28.499 1.26611H3.16602C2.6621 1.26611 2.17883 1.46595 1.82251 1.82227C1.46619 2.17858 1.26611 2.6621 1.26611 3.16602V23.4331C1.2661 23.8545 1.40616 24.2641 1.66431 24.5972C1.92245 24.9303 2.28381 25.1678 2.69189 25.2729L2.375 26.499C1.69538 26.3237 1.09324 25.9274 0.66333 25.3726C0.233424 24.8178 0.000131993 24.136 0 23.4341L-0.000976562 23.4331ZM12.666 24.7002V19H13.9331V24.7002H12.666ZM10.1331 24.7002V17.1001H11.3999V24.7002H10.1331ZM7.6001 24.7002V20.8999H8.86694V24.7002H7.6001ZM11.3999 8.86719V7.6001H12.667V8.86719H11.3999ZM8.86694 8.86719V7.6001H10.134V8.86719H8.86694ZM6.33398 8.86719V7.6001H7.60107V8.86719H6.33398ZM7.60107 3.7998V2.5332H8.86792V3.7998H7.60107ZM5.06812 3.7998V2.5332H6.33496V3.7998H5.06812ZM2.53491 3.7998V2.5332H3.802V3.7998H2.53491Z" fill="black"/>
</svg>
