<svg xmlns="http://www.w3.org/2000/svg" width="18" height="32" viewBox="0 0 18 32">
  <defs>
    <style>
      .cls-1 {
        fill: #87ea29;
      }

      .cls-2 {
        fill: #87ea00;
      }
    </style>
  </defs>
  <g id="Grupo_29" data-name="Grupo 29" transform="translate(-944 -6827)">
    <path id="Ret창ngulo_56" data-name="Ret창ngulo 56" class="cls-1" d="M2,1.5a.5.5,0,0,0-.5.5V30a.5.5,0,0,0,.5.5H16a.5.5,0,0,0,.5-.5V2a.5.5,0,0,0-.5-.5H2M2,0H16a2,2,0,0,1,2,2V30a2,2,0,0,1-2,2H2a2,2,0,0,1-2-2V2A2,2,0,0,1,2,0Z" transform="translate(944 6827)"/>
    <rect id="Ret창ngulo_57" data-name="Ret창ngulo 57" class="cls-2" width="10" height="3" rx="1" transform="translate(948 6827)"/>
  </g>
</svg>
