<svg width="18" height="32" viewBox="0 0 18 32" fill="none" xmlns="http://www.w3.org/2000/svg">
<path d="M2 1.5C1.86739 1.5 1.74021 1.55268 1.64645 1.64645C1.55268 1.74021 1.5 1.86739 1.5 2V30C1.5 30.1326 1.55268 30.2598 1.64645 30.3536C1.74021 30.4473 1.86739 30.5 2 30.5H16C16.1326 30.5 16.2598 30.4473 16.3536 30.3536C16.4473 30.2598 16.5 30.1326 16.5 30V2C16.5 1.86739 16.4473 1.74021 16.3536 1.64645C16.2598 1.55268 16.1326 1.5 16 1.5H2ZM2 0H16C16.5304 0 17.0391 0.210714 17.4142 0.585786C17.7893 0.960859 18 1.46957 18 2V30C18 30.5304 17.7893 31.0391 17.4142 31.4142C17.0391 31.7893 16.5304 32 16 32H2C1.46957 32 0.960859 31.7893 0.585786 31.4142C0.210714 31.0391 0 30.5304 0 30V2C0 1.46957 0.210714 0.960859 0.585786 0.585786C0.960859 0.210714 1.46957 0 2 0Z" fill="black"/>
<path d="M13 0H5C4.44772 0 4 0.447715 4 1V2C4 2.55228 4.44772 3 5 3H13C13.5523 3 14 2.55228 14 2V1C14 0.447715 13.5523 0 13 0Z" fill="black"/>
</svg>
