<svg width="31" height="36" viewBox="0 0 31 36" fill="none" xmlns="http://www.w3.org/2000/svg">
<path d="M29.42 15.098L5.848 0.461994C5.35066 0.162158 4.7811 0.00331536 4.20037 0.00249041C3.61963 0.00166547 3.04962 0.15889 2.55143 0.457311C2.05324 0.755733 1.64565 1.1841 1.37234 1.6965C1.09904 2.2089 0.970327 2.78602 1 3.36599V32.623C0.975543 33.2011 1.10764 33.775 1.38235 34.2843C1.65707 34.7935 2.06419 35.2191 2.56074 35.5161C3.05728 35.8132 3.62482 35.9706 4.20342 35.9718C4.78203 35.973 5.35022 35.8179 5.848 35.523L29.42 20.898C29.9048 20.5843 30.3033 20.1542 30.5793 19.6469C30.8552 19.1397 30.9998 18.5714 30.9998 17.994C30.9998 17.4165 30.8552 16.8483 30.5793 16.341C30.3033 15.8338 29.9048 15.4037 29.42 15.09V15.098Z" fill="black"/>
</svg>
