<svg xmlns="http://www.w3.org/2000/svg" width="19.5" height="23.5" viewBox="0 0 19.5 23.5">
  <defs>
    <style>
      .cls-1 {
        fill: #84ef2a;
      }
    </style>
  </defs>
  <g id="Icon_feather-map-pin" data-name="Icon feather-map-pin" transform="translate(-3.75 -0.75)">
    <path id="Caminho_2009" data-name="Caminho 2009" class="cls-1" d="M13.5.75a9.761,9.761,0,0,1,9.75,9.75,11.182,11.182,0,0,1-1.5,5.344,20.912,20.912,0,0,1-3.208,4.3,30.063,30.063,0,0,1-4.628,3.983.75.75,0,0,1-.832,0,30.063,30.063,0,0,1-4.628-3.983,20.912,20.912,0,0,1-3.208-4.3A11.182,11.182,0,0,1,3.75,10.5,9.761,9.761,0,0,1,13.5.75Zm0,21.831c1.729-1.263,8.25-6.4,8.25-12.081a8.25,8.25,0,0,0-16.5,0C5.25,16.178,11.77,21.318,13.5,22.581Z"/>
    <path id="Caminho_2010" data-name="Caminho 2010" class="cls-1" d="M18,9.75A5.25,5.25,0,1,1,12.75,15,5.256,5.256,0,0,1,18,9.75Zm0,9A3.75,3.75,0,1,0,14.25,15,3.754,3.754,0,0,0,18,18.75Z" transform="translate(-4.5 -4.125)"/>
  </g>
</svg>
