<svg width="20" height="24" viewBox="0 0 20 24" fill="none" xmlns="http://www.w3.org/2000/svg">
<path d="M9.75 0C12.335 0.00291145 14.8132 1.03108 16.6411 2.85892C18.4689 4.68677 19.4971 7.16503 19.5 9.75C19.4571 11.6291 18.9412 13.467 18 15.094C17.1197 16.6591 16.0415 18.1043 14.792 19.394C13.3885 20.8753 11.8378 22.2098 10.164 23.377C10.0408 23.4591 9.89606 23.5029 9.748 23.5029C9.59994 23.5029 9.4552 23.4591 9.332 23.377C7.65815 22.2098 6.10749 20.8753 4.704 19.394C3.45448 18.1043 2.37628 16.6591 1.496 15.094C0.55621 13.4667 0.0416988 11.6287 0 9.75C0.00291145 7.16503 1.03108 4.68677 2.85892 2.85892C4.68677 1.03108 7.16503 0.00291145 9.75 0ZM9.75 21.831C11.479 20.568 18 15.431 18 9.75C18 7.56196 17.1308 5.46354 15.5836 3.91637C14.0365 2.36919 11.938 1.5 9.75 1.5C7.56196 1.5 5.46354 2.36919 3.91637 3.91637C2.36919 5.46354 1.5 7.56196 1.5 9.75C1.5 15.428 8.02 20.568 9.75 21.831Z" fill="black"/>
<path d="M9.75 4.875C10.7884 4.875 11.8034 5.18291 12.6667 5.75978C13.5301 6.33666 14.203 7.1566 14.6004 8.11591C14.9977 9.07522 15.1017 10.1308 14.8991 11.1492C14.6965 12.1676 14.1965 13.1031 13.4623 13.8373C12.7281 14.5715 11.7926 15.0715 10.7742 15.2741C9.75582 15.4767 8.70022 15.3727 7.74091 14.9754C6.7816 14.578 5.96166 13.9051 5.38478 13.0417C4.80791 12.1784 4.5 11.1634 4.5 10.125C4.50159 8.7331 5.05522 7.39866 6.03944 6.41444C7.02366 5.43022 8.3581 4.87659 9.75 4.875ZM9.75 13.875C10.4917 13.875 11.2167 13.6551 11.8334 13.243C12.4501 12.831 12.9307 12.2453 13.2145 11.5601C13.4984 10.8748 13.5726 10.1208 13.4279 9.39341C13.2832 8.66598 12.9261 7.9978 12.4017 7.47335C11.8772 6.9489 11.209 6.59175 10.4816 6.44705C9.75416 6.30236 9.00016 6.37662 8.31494 6.66045C7.62971 6.94428 7.04404 7.42493 6.63199 8.04161C6.21993 8.6583 6 9.38332 6 10.125C6.00106 11.1192 6.39649 12.0724 7.09952 12.7755C7.80255 13.4785 8.75576 13.8739 9.75 13.875Z" fill="black"/>
</svg>
