<svg xmlns="http://www.w3.org/2000/svg" width="19.688" height="16" viewBox="0 0 19.688 16"><defs><style>.a{fill:#1b1b37;}</style></defs><path class="a" d="M22.259,6.711a8.076,8.076,0,0,1-2.32.636,4.051,4.051,0,0,0,1.776-2.235,8.086,8.086,0,0,1-2.565.98,4.043,4.043,0,0,0-6.883,3.684,11.467,11.467,0,0,1-8.325-4.22,4.044,4.044,0,0,0,1.25,5.393,4.023,4.023,0,0,1-1.829-.505c0,.017,0,.034,0,.051A4.042,4.042,0,0,0,6.6,14.456a4.046,4.046,0,0,1-1.824.069A4.043,4.043,0,0,0,8.551,17.33a8.1,8.1,0,0,1-5.017,1.729A8.192,8.192,0,0,1,2.571,19a11.433,11.433,0,0,0,6.192,1.815A11.414,11.414,0,0,0,20.255,9.325q0-.263-.012-.523a8.206,8.206,0,0,0,2.016-2.091Z" transform="translate(-2.571 -4.817)"/></svg>