<svg width="22" height="22" viewBox="0 0 22 22" fill="none" xmlns="http://www.w3.org/2000/svg">
<path d="M10.75 -2.10479e-07C12.8758 0.000552517 14.9536 0.631328 16.7209 1.81259C18.4882 2.99385 19.8657 4.67257 20.6791 6.63653C21.4925 8.60049 21.7054 10.7615 21.2908 12.8465C20.8762 14.9314 19.8529 16.8466 18.35 18.35C16.3214 20.3022 13.6079 21.3807 10.7927 21.3537C7.97746 21.3267 5.28515 20.1964 3.29439 18.2056C1.30362 16.2149 0.173274 13.5226 0.146277 10.7073C0.119281 7.89206 1.19778 5.17858 3.15001 3.15C4.14565 2.14857 5.33 1.35454 6.63453 0.813842C7.93906 0.273148 9.33787 -0.00346849 10.75 -2.10479e-07ZM10.75 20C12.5795 20 14.3679 19.4575 15.889 18.4411C17.4102 17.4247 18.5958 15.98 19.2959 14.2898C19.996 12.5996 20.1792 10.7397 19.8223 8.94541C19.4654 7.15109 18.5844 5.5029 17.2907 4.20926C15.9971 2.91563 14.3489 2.03465 12.5546 1.67774C10.7603 1.32082 8.9004 1.504 7.21019 2.20411C5.51997 2.90422 4.07532 4.08982 3.05892 5.61098C2.04251 7.13213 1.50001 8.92052 1.50001 10.75C1.50266 13.2024 2.47806 15.5537 4.21219 17.2878C5.94633 19.022 8.29757 19.9974 10.75 20Z" fill="black"/>
<path d="M14.862 13.901C14.7457 13.9011 14.631 13.8741 14.527 13.822L10.227 11.672C10.1023 11.6098 9.99745 11.514 9.92415 11.3955C9.85085 11.277 9.81201 11.1404 9.81201 11.001V4.55C9.81201 4.35109 9.89103 4.16032 10.0317 4.01967C10.1723 3.87902 10.3631 3.8 10.562 3.8C10.7609 3.8 10.9517 3.87902 11.0923 4.01967C11.233 4.16032 11.312 4.35109 11.312 4.55V10.537L15.198 12.48C15.3493 12.5555 15.4706 12.6799 15.5422 12.8331C15.6139 12.9862 15.6317 13.1591 15.5928 13.3236C15.5539 13.4881 15.4606 13.6347 15.3279 13.7395C15.1953 13.8443 15.0311 13.9012 14.862 13.901Z" fill="black"/>
</svg>
