<svg width="50" height="50" viewBox="0 0 50 50" fill="none" xmlns="http://www.w3.org/2000/svg">
<path d="M42.511 7.26601C38.2603 3.01593 32.6099 0.455441 26.6119 0.0612791C20.6139 -0.332883 14.677 1.46614 9.90667 5.1234C5.13633 8.78066 1.85765 14.0469 0.681079 19.9416C-0.495493 25.8363 0.510232 31.9576 3.511 37.166L0 50L13.136 46.55C16.7687 48.5303 20.8406 49.5663 24.978 49.563H24.989C31.5813 49.5623 37.9069 46.9593 42.5904 42.3199C47.2739 37.6806 49.9368 31.38 50 24.788C49.9646 21.5185 49.285 18.288 47.9999 15.2814C46.7149 12.2748 44.8497 9.55109 42.511 7.26601ZM24.989 45.391C21.2985 45.3935 17.6754 44.4025 14.5 42.522L13.752 42.076L5.96 44.118L8.036 36.518L7.545 35.737C5.89763 33.0239 4.89841 29.9672 4.62505 26.8049C4.3517 23.6426 4.81159 20.4599 5.96895 17.5043C7.12631 14.5487 8.94993 11.8999 11.2979 9.76412C13.646 7.62829 16.4551 6.06294 19.5067 5.18986C22.5584 4.31679 25.7704 4.15951 28.8927 4.73027C32.0151 5.30103 34.9637 6.58444 37.5092 8.48065C40.0546 10.3769 42.1283 12.8348 43.5689 15.6631C45.0095 18.4915 45.7781 21.6141 45.815 24.788C45.7568 30.2728 43.5369 35.5132 39.6375 39.3708C35.7381 43.2285 30.4741 45.3918 24.989 45.391ZM36.283 29.967C35.669 29.655 32.622 28.159 32.053 27.958C31.484 27.757 31.071 27.646 30.653 28.271C30.235 28.896 29.053 30.28 28.689 30.704C28.325 31.128 27.964 31.173 27.35 30.86C23.712 29.041 21.323 27.612 18.924 23.494C18.288 22.4 19.56 22.478 20.743 20.112C20.8237 19.9409 20.8608 19.7524 20.8511 19.5635C20.8413 19.3745 20.7849 19.1909 20.687 19.029C20.531 18.717 19.287 15.67 18.779 14.429C18.279 13.224 17.763 13.391 17.379 13.369C17.022 13.347 16.609 13.347 16.196 13.347C15.8826 13.3556 15.5743 13.4284 15.2902 13.5608C15.0061 13.6933 14.7521 13.8826 14.544 14.117C13.8447 14.7812 13.2911 15.5835 12.9184 16.473C12.5457 17.3625 12.362 18.3197 12.379 19.284C12.379 22.331 14.6 25.277 14.901 25.69C15.202 26.103 19.265 32.353 25.481 35.043C29.41 36.743 30.95 36.885 32.914 36.594C34.108 36.415 36.575 35.094 37.088 33.648C37.4919 32.7219 37.616 31.6978 37.445 30.702C37.31 30.424 36.9 30.268 36.283 29.967Z" fill="black"/>
</svg>
