<svg xmlns="http://www.w3.org/2000/svg" xmlns:xlink="http://www.w3.org/1999/xlink" width="1920" height="748" viewBox="0 0 1920 748"><defs><style>.a{fill:#f0efef;}.b{clip-path:url(#a);}.c{fill:#707070;}.c,.d{opacity:0.202;}.d{fill:#4deb35;}</style><clipPath id="a"><rect class="a" width="1920" height="748" transform="translate(0 1680)"/></clipPath></defs><g transform="translate(0 -1680)"><rect class="a" width="1920" height="748" transform="translate(0 1680)"/><g class="b"><g transform="translate(35.831 326.229)"><path class="c" d="M816.653.721h.76l-.3.7L472.286,800.929A236.915,236.915,0,0,1,451.4,838.363a290.085,290.085,0,0,1-27.994,34.872A340.229,340.229,0,0,1,389.483,904.8a375.255,375.255,0,0,1-38.676,27.511,386.219,386.219,0,0,1-42.252,22.708A371.12,371.12,0,0,1,263.9,972.173a335.366,335.366,0,0,1-45.88,10.845,289.38,289.38,0,0,1-45.931,3.783h-.76l.3-.7,344.789-799.51a226.24,226.24,0,0,1,20.391-37.432,280.52,280.52,0,0,1,27.767-34.874,333.736,333.736,0,0,1,33.9-31.567,372.854,372.854,0,0,1,38.794-27.511A387.519,387.519,0,0,1,679.725,32.5,374.43,374.43,0,0,1,724.6,15.349,338.565,338.565,0,0,1,770.65,4.5,290.674,290.674,0,0,1,816.653.721ZM172.852,985.8a288.814,288.814,0,0,0,45.011-3.769,334.362,334.362,0,0,0,45.742-10.813,370.1,370.1,0,0,0,44.532-17.107,385.219,385.219,0,0,0,42.142-22.649,374.274,374.274,0,0,0,38.572-27.438,339.252,339.252,0,0,0,33.823-31.472,289.1,289.1,0,0,0,27.9-34.751,235.9,235.9,0,0,0,20.8-37.272L815.893,1.722a290.137,290.137,0,0,0-45.084,3.769A337.564,337.564,0,0,0,724.891,16.3a373.4,373.4,0,0,0-44.75,17.107A386.481,386.481,0,0,0,637.8,56.06,371.827,371.827,0,0,0,599.11,83.5a332.73,332.73,0,0,0-33.8,31.471,279.546,279.546,0,0,0-27.668,34.749,225.253,225.253,0,0,0-20.3,37.269Z" transform="translate(189.796 1232.55)"/><path class="d" d="M806.341.721h.76l-.3.7L461.974,800.929a236.937,236.937,0,0,1-20.886,37.435,290.1,290.1,0,0,1-27.994,34.872A340.256,340.256,0,0,1,379.17,904.8a375.238,375.238,0,0,1-38.676,27.511,386.206,386.206,0,0,1-42.252,22.708,371.111,371.111,0,0,1-44.653,17.153,335.357,335.357,0,0,1-45.88,10.845,289.377,289.377,0,0,1-45.931,3.783h-.76l.3-.7,344.79-799.51a226.3,226.3,0,0,1,20.39-37.432,280.544,280.544,0,0,1,27.764-34.874,333.7,333.7,0,0,1,33.9-31.567,372.769,372.769,0,0,1,38.79-27.511A387.416,387.416,0,0,1,669.4,32.5a374.36,374.36,0,0,1,44.871-17.152A338.587,338.587,0,0,1,760.327,4.5,290.8,290.8,0,0,1,806.341.721ZM162.54,985.8a288.813,288.813,0,0,0,45.011-3.769,334.354,334.354,0,0,0,45.742-10.813,370.1,370.1,0,0,0,44.532-17.107,385.234,385.234,0,0,0,42.142-22.649,374.229,374.229,0,0,0,38.572-27.438,339.252,339.252,0,0,0,33.823-31.472,289.08,289.08,0,0,0,27.9-34.751,235.913,235.913,0,0,0,20.8-37.272L805.58,1.722a290.251,290.251,0,0,0-45.094,3.769A337.555,337.555,0,0,0,714.563,16.3a373.329,373.329,0,0,0-44.751,17.107A386.375,386.375,0,0,0,627.474,56.06,371.754,371.754,0,0,0,588.788,83.5a332.688,332.688,0,0,0-33.794,31.471,279.566,279.566,0,0,0-27.665,34.749,225.312,225.312,0,0,0-20.3,37.269Z" transform="translate(-177.61 1232.55)"/><path class="d" d="M181.638,986.861l.306-.709L526.734,186.64a236.842,236.842,0,0,1,20.887-37.435,290.059,290.059,0,0,1,28-34.872,340.253,340.253,0,0,1,33.929-31.565,375.312,375.312,0,0,1,38.682-27.511,386.308,386.308,0,0,1,42.259-22.708A371.24,371.24,0,0,1,735.148,15.4,335.441,335.441,0,0,1,781.032,4.551,289.41,289.41,0,0,1,826.965.768h.76l-.3.7L482.635,800.977a223.5,223.5,0,0,1-20.393,36.865,281.019,281.019,0,0,1-27.767,34.466,337.9,337.9,0,0,1-33.9,31.321,380.456,380.456,0,0,1-38.793,27.429,397.578,397.578,0,0,1-42.449,22.788,385.352,385.352,0,0,1-44.869,17.4A348.654,348.654,0,0,1,228.411,982.5a298.527,298.527,0,0,1-46,4.354ZM826.2,1.769a288.837,288.837,0,0,0-45.013,3.769,334.423,334.423,0,0,0-45.746,10.813,370.2,370.2,0,0,0-44.538,17.106,385.321,385.321,0,0,0-42.149,22.648,374.337,374.337,0,0,0-38.579,27.438,339.242,339.242,0,0,0-33.829,31.472,289.061,289.061,0,0,0-27.9,34.751,235.828,235.828,0,0,0-20.8,37.272l-344.482,798.8a297.988,297.988,0,0,0,45.074-4.327,347.672,347.672,0,0,0,45.92-11.22,384.352,384.352,0,0,0,44.752-17.351,396.588,396.588,0,0,0,42.342-22.731,379.481,379.481,0,0,0,38.69-27.357,336.9,336.9,0,0,0,33.8-31.228,280,280,0,0,0,27.668-34.343,222.5,222.5,0,0,0,20.3-36.7Z" transform="translate(557.204 1234.24)"/></g></g></g></svg>