<svg xmlns="http://www.w3.org/2000/svg" xmlns:xlink="http://www.w3.org/1999/xlink" width="1921" height="258" viewBox="0 0 1921 258"><defs><clipPath id="a"><rect width="177" height="203" transform="translate(0 -0.04)" fill="#fff"/></clipPath><clipPath id="b"><rect width="177" height="203" fill="#fff"/></clipPath></defs><g transform="translate(1 -6857)"><rect width="1920" height="258" transform="translate(0 6857)" fill="#1b1b37"/><g transform="translate(1717.04 7035) rotate(-90)" clip-path="url(#a)"><g transform="translate(1.871 0.255)" opacity="0.08"><path d="M-1306.619,5192.363h-.011c-7.476,0-17.688-3.167-30.353-9.409-10.2-5.027-19.291-10.695-24.175-13.74-.511-.319-.97-.6-1.372-.854-7.7-4.771-46.869-32.4-49.417-34.2-.8-.434-7.217-3.916-14.177-8.468-10.071-6.587-16.46-12.191-18.99-16.657l-.047-.082-.036-.087a83.667,83.667,0,0,1-6.052-37.611,49.727,49.727,0,0,1,4.171-16.743,28.328,28.328,0,0,1,9.914-11.988,28.617,28.617,0,0,1,16.312-4.588c5.967,0,12.866,1.329,21.712,4.182,7.918,2.554,16.8,6.142,26.213,9.94,2.942,1.188,5.984,2.416,9.1,3.656a116.509,116.509,0,0,0,18.474,5.832,63.19,63.19,0,0,0,13.206,1.539,41.885,41.885,0,0,0,14.308-2.462,28.083,28.083,0,0,1,3.113-.9c1.377-.273,4.514-1.048,8.485-2.029,12.517-3.093,33.466-8.27,48.027-10.046h.011a45.877,45.877,0,0,1,5.2-.309,33.067,33.067,0,0,1,10.712,1.668,27.074,27.074,0,0,1,8.148,4.465c3.989,3.183,7.3,7.62,10.126,13.565a17.847,17.847,0,0,1,2.114,9.2,20.759,20.759,0,0,1-2.621,8.761c-2.975,5.6-8.243,11.252-14.314,17.525l-.044.044a33.425,33.425,0,0,0-9.494,15.188c-1.606,5.4-2.019,11.1-2.5,17.706-.108,1.5-.22,3.041-.349,4.618v.005a70.978,70.978,0,0,1-6.674,25.459,50.082,50.082,0,0,1-11.248,15.074,39.652,39.652,0,0,1-15.278,8.927,22.422,22.422,0,0,1-4.685,1.333,98.992,98.992,0,0,1-17.32,1.482h-.2Zm-135.839-84.722c2.3,3.978,8.5,9.346,17.958,15.533,7.3,4.774,13.984,8.354,14.05,8.39l.082.044.076.054c.415.293,41.623,29.37,49.341,34.148.4.25.865.538,1.38.858,4.84,3.017,13.849,8.633,23.914,13.6,12.248,6.037,22.014,9.1,29.026,9.1h.174A96.43,96.43,0,0,0-1290,5188a19.982,19.982,0,0,0,4.375-1.2l.172-.1.169-.032a25.828,25.828,0,0,0,4.386-1.691,41.089,41.089,0,0,0,9.871-6.7,47.183,47.183,0,0,0,10.5-14.171,68.1,68.1,0,0,0,6.321-24.274c.128-1.563.24-3.1.347-4.589.471-6.5.915-12.635,2.614-18.345a36.3,36.3,0,0,1,10.28-16.486c12.484-12.9,19.672-21.5,14.275-32.031l-.02-.041c-2.627-5.534-5.668-9.631-9.3-12.526a24.078,24.078,0,0,0-7.247-3.971,30.077,30.077,0,0,0-9.741-1.507,42.958,42.958,0,0,0-4.859.289c-14.38,1.755-35.215,6.9-47.664,9.98-4.166,1.029-7.176,1.773-8.622,2.059a26.372,26.372,0,0,0-2.762.809,45.151,45.151,0,0,1-15.242,2.611,66.168,66.168,0,0,1-13.839-1.606,119.507,119.507,0,0,1-18.953-5.978c-3.123-1.242-6.169-2.472-9.114-3.661-9.357-3.777-18.195-7.346-26.011-9.867-8.539-2.754-15.146-4.037-20.791-4.037a25.714,25.714,0,0,0-14.657,4.09,25.383,25.383,0,0,0-8.85,10.752,46.762,46.762,0,0,0-3.9,15.734A80.563,80.563,0,0,0-1442.458,5107.641Z" transform="translate(1471.982 -4999.781)" fill="#fff"/><path d="M-1308.464,5212.847h-.005a99.4,99.4,0,0,1-27.742-4.437,172.213,172.213,0,0,1-25.094-9.743,205.447,205.447,0,0,1-25.228-14.169l-.025-.018c-.047-.037-4.759-3.7-11.789-8.643a306.042,306.042,0,0,0-26.38-16.721l-.016-.009c-7.051-4.256-14.785-9.375-21.779-14.415a178.184,178.184,0,0,1-17.291-13.833,35.812,35.812,0,0,1-11.76-14.075,37.925,37.925,0,0,1-3.258-16.338,56.362,56.362,0,0,1,2.826-16.432,73.84,73.84,0,0,1,6.464-14.479l.023-.039.029-.034c6.375-7.443,12.482-12.667,18.67-15.969a38.334,38.334,0,0,1,9.177-3.518,39.8,39.8,0,0,1,9.428-1.078c11.216,0,23.469,4.073,38.983,9.23l2.691.894a123.875,123.875,0,0,0,13.14,3.824,46,46,0,0,0,9.859,1.24,20.848,20.848,0,0,0,12.888-4.01c3.558-2.545,6.845-6.218,11.321-11.7,4.526-5.879,9-9.91,14.073-12.684a36.4,36.4,0,0,1,8.539-3.336,50,50,0,0,1,10.08-1.441,64.172,64.172,0,0,1,8.474-.568,65.274,65.274,0,0,1,26.346,5.68,86.4,86.4,0,0,1,20.984,13.339,112.154,112.154,0,0,1,14.991,15.483,92.88,92.88,0,0,1,8.377,12.159,18.491,18.491,0,0,1,2.05,10.1,39.39,39.39,0,0,1-2.241,10.639,81.134,81.134,0,0,1-7.053,14.766c-.121.2-.22.371-.3.5-1.625,2.8-4.258,9.062-7.416,17.639-1.524,4.094-1.961,7.7-2.686,13.664-.791,6.512-1.875,15.43-5.019,30.383a42.445,42.445,0,0,1-8.311,17.813,48.376,48.376,0,0,1-12.311,10.862,59.136,59.136,0,0,1-11.148,5.414,42.183,42.183,0,0,1-4.858,1.474A57.947,57.947,0,0,1-1308.464,5212.847Zm-77.492-29.166a204.877,204.877,0,0,0,25.095,14.09,171.179,171.179,0,0,0,24.941,9.682,98.4,98.4,0,0,0,27.451,4.394h0a56.934,56.934,0,0,0,17.424-2.549l.024-.008.025,0a55.1,55.1,0,0,0,15.739-6.781,47.358,47.358,0,0,0,12.042-10.633,41.46,41.46,0,0,0,8.1-17.382c3.136-14.911,4.216-23.8,5.005-30.3.709-5.833,1.177-9.687,2.741-13.891,3.176-8.628,5.836-14.948,7.489-17.794.077-.132.178-.3.3-.509a80.17,80.17,0,0,0,6.968-14.581,38.4,38.4,0,0,0,2.188-10.365,17.514,17.514,0,0,0-1.924-9.558,91.865,91.865,0,0,0-8.285-12.022,111.135,111.135,0,0,0-14.856-15.345,85.414,85.414,0,0,0-20.74-13.187,64.284,64.284,0,0,0-25.944-5.6,63.157,63.157,0,0,0-8.362.562l-.042,0a49,49,0,0,0-9.9,1.412,35.417,35.417,0,0,0-8.307,3.245c-4.951,2.706-9.324,6.653-13.764,12.422l-.009.011c-4.531,5.552-7.869,9.278-11.518,11.889a21.9,21.9,0,0,1-6.131,3.131,23.764,23.764,0,0,1-7.34,1.066c-5.78,0-12.972-1.578-23.318-5.116l-2.688-.893c-15.428-5.129-27.614-9.18-38.668-9.18a38.808,38.808,0,0,0-9.194,1.05,37.334,37.334,0,0,0-8.94,3.428c-6.067,3.237-12.07,8.374-18.352,15.7a72.817,72.817,0,0,0-6.352,14.24,55.371,55.371,0,0,0-2.778,16.139,36.932,36.932,0,0,0,3.167,15.911,34.833,34.833,0,0,0,11.465,13.7l.026.019.023.022a176.965,176.965,0,0,0,17.212,13.77c6.97,5.022,14.678,10.124,21.7,14.365a298.005,298.005,0,0,1,26.467,16.777C-1390.9,5179.847-1386.234,5183.465-1385.955,5183.682Z" transform="translate(1483.97 -5016.544)" fill="#fff"/><path d="M-1319.2,5221.483a73.32,73.32,0,0,1-9.017-.5c-.047,0-.128,0-.244,0-1.962,0-12.717-.381-31.833-7.907a239.548,239.548,0,0,1-34.99-17.576,411.246,411.246,0,0,1-47.16-33.491c-12.888-10.2-24.229-19.43-32.475-29.114a63.115,63.115,0,0,1-9.926-15.248,43.8,43.8,0,0,1-2.727-8.2,40.946,40.946,0,0,1-.978-8.72c-.041-9.093-.056-15.613-.044-19.381,0-1.274.011-2.2.021-2.742a5.139,5.139,0,0,1,.027-.585,65.723,65.723,0,0,1,3.576-16.264,44.608,44.608,0,0,1,6.983-12.84,28.363,28.363,0,0,1,12.733-9.233l.025-.009.026-.006a38.477,38.477,0,0,1,8.738-.9,69.993,69.993,0,0,1,14.909,1.758,37.269,37.269,0,0,1,9.538,3.212c1.676.554,3.372,1.13,5.012,1.688,4.963,1.688,10.1,3.432,15.208,4.712a64.091,64.091,0,0,0,15.632,2.126,47.89,47.89,0,0,0,15.084-2.4,62.15,62.15,0,0,0,16.475-8.478l1.067-.808c8.521-6.457,15.88-12.032,23.788-16.142a55.046,55.046,0,0,1,26.247-6.654,75.787,75.787,0,0,1,19.855,2.891,110.012,110.012,0,0,1,37.943,18.819,94.838,94.838,0,0,1,20.634,21.845,38.173,38.173,0,0,1,5.325,10.534,38.412,38.412,0,0,1,1.766,11.2c.09,7.188-1.6,15.114-5.182,24.23-3.642,9.34-6.166,15.917-8,21.994-2.029,6.715-2.92,11.926-2.889,16.9v.025a88.228,88.228,0,0,1-4.023,22.982,76.526,76.526,0,0,1-9.259,19.233,75.078,75.078,0,0,1-13.622,15.285,80.555,80.555,0,0,1-17.1,11.147C-1298.827,5220.333-1310.938,5221.483-1319.2,5221.483Zm-8.964-1.5.044.006a71.276,71.276,0,0,0,8.92.5c8.158,0,20.1-1.131,30.692-6.518l.008,0a79.561,79.561,0,0,0,16.892-11.01,74.09,74.09,0,0,0,13.441-15.082,75.537,75.537,0,0,0,9.138-18.982,87.229,87.229,0,0,0,3.975-22.709c-.03-5.071.874-10.37,2.932-17.179,1.847-6.111,4.378-12.706,8.029-22.069,3.53-8.994,5.2-16.8,5.113-23.853a37.407,37.407,0,0,0-1.718-10.905,37.172,37.172,0,0,0-5.191-10.264l-.008-.012a93.822,93.822,0,0,0-20.42-21.617,109,109,0,0,0-37.6-18.646,74.792,74.792,0,0,0-19.59-2.855c-19.615,0-32.773,9.971-49.432,22.593l-1.089.824a63.149,63.149,0,0,1-16.747,8.615,48.875,48.875,0,0,1-15.394,2.452,65.075,65.075,0,0,1-15.875-2.156c-5.153-1.291-10.3-3.042-15.287-4.736-1.656-.563-3.37-1.145-5.06-1.7l-.057-.019-.051-.032c-1.563-.974-5.206-2.2-9.281-3.117a68.986,68.986,0,0,0-14.689-1.733,37.546,37.546,0,0,0-8.483.869,27.384,27.384,0,0,0-12.261,8.908,43.613,43.613,0,0,0-6.821,12.553,64.311,64.311,0,0,0-3.522,16.04l-1,.018a.5.5,0,0,0,.5.444.5.5,0,0,0,.494-.43c-.015.156-.084,1.976.009,22.555a40.428,40.428,0,0,0,3.619,16.518,62.118,62.118,0,0,0,9.774,15c8.188,9.615,19.488,18.813,32.335,28.979l.005,0a410.317,410.317,0,0,0,47.048,33.413,238.571,238.571,0,0,0,34.842,17.5,128.342,128.342,0,0,0,22.235,6.734,51.206,51.206,0,0,0,9.232,1.1c.166,0,.251,0,.252,0Z" transform="translate(1488.103 -5018.278)" fill="#fff" opacity="0.996"/></g></g><g transform="translate(202 6938) rotate(90)" clip-path="url(#b)"><g transform="translate(1.871 0.296)" opacity="0.08"><path d="M143.38,152.923h-.011c-7.476,0-17.688-3.167-30.353-9.409-10.2-5.028-19.291-10.7-24.175-13.74-.511-.319-.97-.6-1.372-.854-7.7-4.77-46.869-32.4-49.417-34.2-.8-.433-7.217-3.916-14.177-8.468C13.8,79.671,7.415,74.066,4.885,69.6l-.047-.082L4.8,69.431A83.665,83.665,0,0,1-1.249,31.82,49.73,49.73,0,0,1,2.921,15.076,28.33,28.33,0,0,1,12.835,3.088,28.617,28.617,0,0,1,29.147-1.5c5.967,0,12.866,1.329,21.712,4.182,7.918,2.554,16.8,6.142,26.213,9.94,2.942,1.188,5.983,2.416,9.1,3.656a116.55,116.55,0,0,0,18.474,5.832,63.189,63.189,0,0,0,13.206,1.539,41.9,41.9,0,0,0,14.308-2.462,28.1,28.1,0,0,1,3.113-.9c1.377-.273,4.514-1.048,8.485-2.029,12.517-3.093,33.466-8.27,48.027-10.046h.011A45.925,45.925,0,0,1,197,7.9a33.065,33.065,0,0,1,10.712,1.668,27.076,27.076,0,0,1,8.148,4.464c3.988,3.183,7.3,7.62,10.126,13.565a17.846,17.846,0,0,1,2.114,9.2,20.76,20.76,0,0,1-2.621,8.761c-2.975,5.6-8.243,11.252-14.314,17.525l-.044.044a33.426,33.426,0,0,0-9.494,15.189c-1.606,5.4-2.019,11.1-2.5,17.706-.108,1.495-.22,3.041-.35,4.618v.005a70.98,70.98,0,0,1-6.674,25.459,50.083,50.083,0,0,1-11.248,15.074,39.659,39.659,0,0,1-15.278,8.927,22.415,22.415,0,0,1-4.685,1.333,99.02,99.02,0,0,1-17.32,1.482h-.2ZM7.541,68.2c2.3,3.978,8.5,9.346,17.958,15.533,7.3,4.774,13.984,8.354,14.05,8.389l.082.044.076.054c.415.293,41.623,29.37,49.341,34.148.4.25.865.538,1.38.858,4.84,3.017,13.849,8.633,23.914,13.595,12.248,6.038,22.014,9.1,29.026,9.1h.174A96.445,96.445,0,0,0,160,148.56a19.977,19.977,0,0,0,4.375-1.2l.171-.1.169-.032a25.852,25.852,0,0,0,4.386-1.691,41.1,41.1,0,0,0,9.871-6.7,47.179,47.179,0,0,0,10.5-14.171,68.1,68.1,0,0,0,6.321-24.274c.128-1.563.24-3.1.347-4.589.471-6.5.915-12.635,2.614-18.345a36.3,36.3,0,0,1,10.28-16.486c12.484-12.9,19.672-21.5,14.275-32.031l-.02-.041c-2.627-5.534-5.668-9.631-9.3-12.527a24.083,24.083,0,0,0-7.247-3.971A30.083,30.083,0,0,0,197,10.9a42.906,42.906,0,0,0-4.859.289c-14.38,1.755-35.215,6.9-47.664,9.98-4.166,1.029-7.176,1.773-8.622,2.06a26.355,26.355,0,0,0-2.762.809,45.142,45.142,0,0,1-15.242,2.611,66.178,66.178,0,0,1-13.839-1.606,119.519,119.519,0,0,1-18.953-5.978c-3.123-1.242-6.169-2.472-9.114-3.661-9.357-3.777-18.195-7.345-26.011-9.866C41.4,2.783,34.792,1.5,29.147,1.5A25.714,25.714,0,0,0,14.491,5.59a25.385,25.385,0,0,0-8.85,10.753,46.761,46.761,0,0,0-3.9,15.734A80.563,80.563,0,0,0,7.541,68.2Z" transform="translate(21.984 39.659)" fill="#fff"/><path d="M169.87,182h0a99.406,99.406,0,0,1-27.742-4.437,172.225,172.225,0,0,1-25.094-9.743A205.414,205.414,0,0,1,91.8,153.654l-.024-.018c-.047-.036-4.759-3.7-11.789-8.643a305.985,305.985,0,0,0-26.38-16.721l-.016-.009c-7.051-4.256-14.785-9.375-21.779-14.414a178.189,178.189,0,0,1-17.291-13.832A35.813,35.813,0,0,1,2.761,85.94,37.923,37.923,0,0,1-.5,69.6,56.363,56.363,0,0,1,2.329,53.171,73.834,73.834,0,0,1,8.793,38.692l.023-.039.029-.034c6.375-7.444,12.482-12.667,18.67-15.969a38.311,38.311,0,0,1,9.177-3.518,39.8,39.8,0,0,1,9.428-1.078c11.216,0,23.47,4.074,38.983,9.231l2.691.894A123.8,123.8,0,0,0,100.934,32a45.988,45.988,0,0,0,9.859,1.24,20.848,20.848,0,0,0,12.888-4.01c3.558-2.545,6.845-6.218,11.321-11.7,4.526-5.88,9-9.91,14.073-12.684a36.426,36.426,0,0,1,8.539-3.336A49.988,49.988,0,0,1,167.694.068,64.167,64.167,0,0,1,176.168-.5a65.28,65.28,0,0,1,26.346,5.68A86.4,86.4,0,0,1,223.5,18.519,112.142,112.142,0,0,1,238.489,34a92.886,92.886,0,0,1,8.377,12.158,18.491,18.491,0,0,1,2.05,10.1A39.388,39.388,0,0,1,246.675,66.9a81.127,81.127,0,0,1-7.053,14.766c-.121.2-.22.371-.3.5-1.625,2.8-4.258,9.062-7.416,17.639-1.524,4.094-1.961,7.7-2.686,13.664-.791,6.512-1.874,15.43-5.019,30.383a42.448,42.448,0,0,1-8.311,17.814,48.375,48.375,0,0,1-12.311,10.862,59.15,59.15,0,0,1-11.148,5.414,42.169,42.169,0,0,1-4.858,1.474A57.953,57.953,0,0,1,169.87,182ZM92.379,152.837a204.817,204.817,0,0,0,25.095,14.09,171.192,171.192,0,0,0,24.941,9.682A98.407,98.407,0,0,0,169.865,181h0a56.941,56.941,0,0,0,17.424-2.549l.048-.013a55.089,55.089,0,0,0,15.739-6.781,47.359,47.359,0,0,0,12.042-10.634,41.457,41.457,0,0,0,8.1-17.382c3.136-14.911,4.216-23.8,5.005-30.3.709-5.834,1.177-9.687,2.741-13.891,3.176-8.628,5.836-14.948,7.489-17.794.077-.132.178-.3.3-.509a80.176,80.176,0,0,0,6.968-14.581,38.4,38.4,0,0,0,2.188-10.365,17.515,17.515,0,0,0-1.924-9.558,91.851,91.851,0,0,0-8.285-12.022,111.144,111.144,0,0,0-14.856-15.345A85.4,85.4,0,0,0,202.112,6.1,64.286,64.286,0,0,0,176.168.5a63.17,63.17,0,0,0-8.362.562l-.042,0a49.027,49.027,0,0,0-9.9,1.412,35.437,35.437,0,0,0-8.307,3.245c-4.951,2.706-9.324,6.653-13.764,12.422l-.009.011c-4.531,5.552-7.869,9.278-11.518,11.889a21.9,21.9,0,0,1-6.131,3.131,23.769,23.769,0,0,1-7.34,1.066c-5.78,0-12.972-1.578-23.318-5.116l-2.688-.893c-15.428-5.129-27.614-9.18-38.668-9.18A38.813,38.813,0,0,0,36.925,20.1a37.325,37.325,0,0,0-8.94,3.428c-6.066,3.237-12.07,8.374-18.352,15.7a72.814,72.814,0,0,0-6.352,14.24A55.367,55.367,0,0,0,.5,69.614,36.933,36.933,0,0,0,3.671,85.525a34.834,34.834,0,0,0,11.465,13.7l.026.019.023.022A176.963,176.963,0,0,0,32.4,113.036c6.97,5.022,14.678,10.123,21.7,14.365a297.9,297.9,0,0,1,26.467,16.777C87.436,149,92.1,152.62,92.379,152.837Z" transform="translate(5.636 14.3)" fill="#fff"/><path d="M168.9,203.2a73.293,73.293,0,0,1-9.017-.5c-.047,0-.128,0-.244,0-1.962,0-12.717-.381-31.833-7.907a239.553,239.553,0,0,1-34.99-17.576,411.287,411.287,0,0,1-47.16-33.491c-12.888-10.2-24.229-19.43-32.475-29.114A63.1,63.1,0,0,1,3.253,99.369a43.807,43.807,0,0,1-2.727-8.2,40.949,40.949,0,0,1-.978-8.72C-.493,73.358-.508,66.837-.5,63.069c0-1.274.011-2.2.021-2.742a5.171,5.171,0,0,1,.027-.586A65.733,65.733,0,0,1,3.128,43.478a44.61,44.61,0,0,1,6.983-12.84,28.362,28.362,0,0,1,12.733-9.233l.025-.009.026-.006a38.483,38.483,0,0,1,8.738-.9,70.008,70.008,0,0,1,14.909,1.758,37.262,37.262,0,0,1,9.538,3.212c1.676.554,3.372,1.13,5.013,1.688,4.963,1.687,10.1,3.432,15.208,4.712a64.1,64.1,0,0,0,15.632,2.126,47.894,47.894,0,0,0,15.084-2.4A62.164,62.164,0,0,0,123.492,23.1l1.067-.808c8.521-6.456,15.88-12.032,23.788-16.142A55.046,55.046,0,0,1,174.594-.5,75.783,75.783,0,0,1,194.45,2.391,110.006,110.006,0,0,1,232.393,21.21a94.838,94.838,0,0,1,20.634,21.845,37.27,37.27,0,0,1,7.091,21.731c.09,7.188-1.6,15.114-5.182,24.23-3.642,9.34-6.166,15.918-8,21.994-2.029,6.715-2.92,11.926-2.889,16.9v.026a88.228,88.228,0,0,1-4.023,22.983,76.531,76.531,0,0,1-9.259,19.233,75.082,75.082,0,0,1-13.622,15.285,80.557,80.557,0,0,1-17.1,11.147C189.276,202.055,177.164,203.2,168.9,203.2Zm-8.964-1.5.044.006a71.264,71.264,0,0,0,8.92.5c8.158,0,20.1-1.131,30.692-6.518l.008,0a79.56,79.56,0,0,0,16.892-11.01,74.08,74.08,0,0,0,13.441-15.081,75.531,75.531,0,0,0,9.137-18.982,87.225,87.225,0,0,0,3.975-22.709c-.03-5.071.874-10.37,2.932-17.179,1.847-6.111,4.378-12.706,8.029-22.069,3.53-8.994,5.2-16.8,5.113-23.853a36.271,36.271,0,0,0-6.909-21.169l-.008-.012A93.822,93.822,0,0,0,231.78,22a109,109,0,0,0-37.6-18.645A74.792,74.792,0,0,0,174.594.5c-19.615,0-32.773,9.97-49.432,22.593l-1.088.824a63.151,63.151,0,0,1-16.747,8.615,48.88,48.88,0,0,1-15.394,2.452,65.078,65.078,0,0,1-15.875-2.156c-5.153-1.291-10.3-3.042-15.287-4.736-1.657-.563-3.369-1.145-5.06-1.7l-.057-.019-.051-.032c-1.563-.974-5.206-2.2-9.281-3.117a68.981,68.981,0,0,0-14.689-1.733,37.539,37.539,0,0,0-8.483.869A27.382,27.382,0,0,0,10.89,31.265,43.619,43.619,0,0,0,4.068,43.819,64.311,64.311,0,0,0,.547,59.859l-1,.017a.5.5,0,0,0,.5.444.5.5,0,0,0,.494-.43c-.015.156-.084,1.976.009,22.555A40.429,40.429,0,0,0,4.167,98.963a62.128,62.128,0,0,0,9.774,15c8.187,9.615,19.488,18.813,32.335,28.979l.005,0a410.316,410.316,0,0,0,47.048,33.412,238.557,238.557,0,0,0,34.842,17.5,128.376,128.376,0,0,0,22.235,6.734,51.2,51.2,0,0,0,9.232,1.1c.166,0,.251,0,.252,0Z" fill="#fff" opacity="0.996"/></g></g></g></svg>