<svg xmlns="http://www.w3.org/2000/svg" xmlns:xlink="http://www.w3.org/1999/xlink" width="1920" height="271" viewBox="0 0 1920 271"><defs><style>.a{fill:#fff;}.b{fill:#87ea00;}.c{clip-path:url(#a);}.d{opacity:0.08;}.e,.f{fill:#1c1a37;}.f{opacity:0.996;}.g{clip-path:url(#b);}.h{opacity:0.05;}</style><clipPath id="a"><rect class="a" width="225" height="271" transform="translate(1633.655 5212)"/></clipPath><clipPath id="b"><rect class="a" width="156" height="271" transform="translate(0 5212)"/></clipPath></defs><g transform="translate(0 -5083)"><path class="b" d="M0,0H1920V271H0Z" transform="translate(0 5083)"/><g class="c" transform="translate(61.345 -129)"><g class="d" transform="translate(1636.033 5212)"><path class="e" d="M-1267.75,5037.939h.26a119.708,119.708,0,0,1,21.957,1.972,26.711,26.711,0,0,1,5.908,1.768,35.648,35.648,0,0,1,5.893,2.371,55.407,55.407,0,0,1,13.394,9.462,66.215,66.215,0,0,1,14.192,19.978c4.556,9.686,7.392,21.056,8.431,33.794v.005c.164,2.1.306,4.166.444,6.16.61,8.853,1.138,16.5,3.2,23.763a45.511,45.511,0,0,0,12.2,20.508l.043.045c7.692,8.349,14.365,15.864,18.117,23.287a28.2,28.2,0,0,1,3.271,11.463,24.255,24.255,0,0,1-2.633,12.01c-3.559,7.87-7.729,13.741-12.745,17.945a33.584,33.584,0,0,1-10.241,5.894,39.867,39.867,0,0,1-13.508,2.208,55.309,55.309,0,0,1-6.578-.41h-.011c-18.49-2.369-45.109-9.278-61.014-13.407-5.051-1.311-9.04-2.346-10.8-2.712a34.166,34.166,0,0,1-3.916-1.192,51.279,51.279,0,0,0-18.293-3.305,77,77,0,0,0-16.858,2.063,143.349,143.349,0,0,0-23.536,7.8c-3.97,1.658-7.837,3.3-11.577,4.884-11.953,5.068-23.243,9.856-33.3,13.262-11.209,3.8-19.946,5.566-27.5,5.566-7.953,0-14.671-1.983-20.54-6.062-5.212-3.623-9.4-8.94-12.441-15.805a68.542,68.542,0,0,1-5.254-22.168c-1.305-15.959,1.485-34.167,7.655-49.957l.033-.085.043-.081c1.771-3.283,5.113-7.093,9.934-11.325a152.41,152.41,0,0,1,14.062-10.751c8.9-6.115,17.095-10.78,18.014-11.3,3.049-2.26,53.014-39.283,62.817-45.659.513-.333,1.1-.717,1.751-1.145a350.512,350.512,0,0,1,30.7-18.327C-1290.128,5042.152-1277.2,5037.939-1267.75,5037.939Zm.221,3h-.221c-8.965,0-21.429,4.1-37.045,12.185a347.949,347.949,0,0,0-30.434,18.173c-.656.43-1.244.815-1.759,1.149-9.821,6.388-62.213,45.218-62.741,45.61l-.077.057-.083.047c-.085.047-8.6,4.833-17.886,11.217-12.1,8.316-20.05,15.553-22.992,20.936-5.986,15.358-8.693,33.042-7.426,48.533a65.575,65.575,0,0,0,5.007,21.2c2.817,6.355,6.656,11.253,11.411,14.558a31.87,31.87,0,0,0,18.827,5.526c7.212,0,15.643-1.719,26.532-5.408,9.948-3.371,21.188-8.137,33.088-13.183,3.744-1.587,7.615-3.229,11.589-4.889a146.308,146.308,0,0,1,24.033-7.962,79.978,79.978,0,0,1,17.521-2.137,54.635,54.635,0,0,1,19.27,3.469,32.421,32.421,0,0,0,3.551,1.091c1.83.381,5.652,1.373,10.941,2.746,7.723,2,18.3,4.75,29.261,7.293,12.9,2.994,23.459,5.026,31.377,6.041a52.348,52.348,0,0,0,6.212.388,36.883,36.883,0,0,0,12.493-2.032,30.593,30.593,0,0,0,9.329-5.369c4.668-3.913,8.576-9.441,11.947-16.9l.019-.04a21.341,21.341,0,0,0,2.343-10.571,25.286,25.286,0,0,0-2.952-10.254c-3.575-7.072-10.1-14.412-17.625-22.584a48.39,48.39,0,0,1-12.943-21.791c-2.143-7.565-2.706-15.73-3.3-24.375-.137-1.988-.279-4.043-.442-6.132-1.005-12.325-3.731-23.306-8.1-32.639a63.35,63.35,0,0,0-13.468-19.073,52.522,52.522,0,0,0-12.649-9,32.115,32.115,0,0,0-5.616-2.269l-.2-.051-.15-.086a24.188,24.188,0,0,0-5.58-1.62A116.764,116.764,0,0,0-1267.529,5040.94Z" transform="translate(1477.944 -5023.92)"/><path class="e" d="M-1262.4,5030.344a70.319,70.319,0,0,1,22.486,3.453,51.449,51.449,0,0,1,6.166,1.965,73.555,73.555,0,0,1,14.148,7.216,62.424,62.424,0,0,1,15.613,14.468,57.807,57.807,0,0,1,10.532,23.711c4,19.958,5.373,31.862,6.378,40.553.923,7.982,1.481,12.8,3.424,18.286,4.018,11.464,7.37,19.838,9.44,23.582.1.173.219.393.376.67a110.549,110.549,0,0,1,8.952,19.683,54.71,54.71,0,0,1,2.839,14.154,25.548,25.548,0,0,1-2.584,13.381,124.383,124.383,0,0,1-10.634,16.211,146.527,146.527,0,0,1-19.036,20.652,109.121,109.121,0,0,1-26.642,17.79,84.334,84.334,0,0,1-15.925,5.526,76.553,76.553,0,0,1-17.52,2.047,77.572,77.572,0,0,1-10.762-.758,60.554,60.554,0,0,1-12.8-1.921,44.9,44.9,0,0,1-10.826-4.443c-6.434-3.694-12.1-9.063-17.846-16.9-5.7-7.333-9.884-12.245-14.421-15.655a26.249,26.249,0,0,0-7.476-4.014,27.779,27.779,0,0,0-8.976-1.365,55.9,55.9,0,0,0-12.557,1.659,151.625,151.625,0,0,0-16.711,5.107l-3.428,1.2c-19.71,6.882-35.279,12.318-49.518,12.318a48.168,48.168,0,0,1-11.958-1.437,47.2,47.2,0,0,1-11.637-4.686c-7.851-4.4-15.6-11.363-23.692-21.287l-.028-.034-.021-.039a100.934,100.934,0,0,1-8.2-19.3,78.5,78.5,0,0,1-3.584-21.884,52.647,52.647,0,0,1,4.125-21.735,47.2,47.2,0,0,1,14.907-18.735,228.787,228.787,0,0,1,21.973-18.463c8.889-6.727,18.718-13.56,27.676-19.24l.016-.01a375.324,375.324,0,0,0,33.553-22.341c8.938-6.6,14.925-11.491,14.984-11.54l.024-.019c.033-.023,3.348-2.408,8.93-5.914,5.149-3.234,13.34-8.113,23.121-13a212.511,212.511,0,0,1,31.882-13C-1284.925,5032.335-1273.071,5030.344-1262.4,5030.344Zm8.012,242.349a75.574,75.574,0,0,0,17.291-2.021,83.333,83.333,0,0,0,15.735-5.461,108.112,108.112,0,0,0,26.4-17.628,145.548,145.548,0,0,0,18.905-20.511A123.309,123.309,0,0,0-1165.517,5211a24.568,24.568,0,0,0,2.468-12.863,53.722,53.722,0,0,0-2.791-13.892,109.586,109.586,0,0,0-8.872-19.5c-.158-.28-.283-.5-.381-.678-2.1-3.791-5.473-12.219-9.508-23.733-1.981-5.59-2.575-10.727-3.474-18.5-1-8.674-2.377-20.554-6.365-40.472a56.819,56.819,0,0,0-10.35-23.3,61.431,61.431,0,0,0-15.365-14.235,72.534,72.534,0,0,0-13.952-7.116,50.613,50.613,0,0,0-6.057-1.931l-.025-.006-.025-.008a69.315,69.315,0,0,0-22.19-3.409c-10.564,0-22.316,1.975-34.929,5.871a211.422,211.422,0,0,0-31.724,12.936,257.466,257.466,0,0,0-31.916,18.825c-.312.255-6.25,5.1-15.012,11.561a388.212,388.212,0,0,1-33.635,22.4c-8.934,5.665-18.736,12.479-27.6,19.188a227.456,227.456,0,0,0-21.895,18.4l-.023.022-.026.02a46.213,46.213,0,0,0-14.623,18.359,51.652,51.652,0,0,0-4.042,21.325,77.5,77.5,0,0,0,3.54,21.6,99.915,99.915,0,0,0,8.1,19.063c8,9.807,15.648,16.68,23.378,21.012a46.2,46.2,0,0,0,11.393,4.589,47.181,47.181,0,0,0,11.713,1.406c14.069,0,29.567-5.411,49.188-12.262l3.424-1.194a152.626,152.626,0,0,1,16.818-5.139,56.858,56.858,0,0,1,12.783-1.685,28.758,28.758,0,0,1,9.295,1.417,27.229,27.229,0,0,1,7.758,4.163c4.628,3.478,8.863,8.443,14.614,15.846l.009.011c5.657,7.721,11.231,13,17.542,16.627a43.918,43.918,0,0,0,10.588,4.345,59.635,59.635,0,0,0,12.609,1.889l.044,0A76.642,76.642,0,0,0-1254.391,5272.693Z" transform="translate(1485.498 -5021.629)"/><path class="f" d="M-1273.405,5017.779h0c10.5,0,25.875,1.533,39.535,8.832a101.93,101.93,0,0,1,21.712,14.865,98.648,98.648,0,0,1,17.288,20.377,104.286,104.286,0,0,1,11.749,25.636,122.977,122.977,0,0,1,5.105,30.638v.024c-.04,6.657,1.1,13.632,3.68,22.617,2.336,8.12,5.547,16.906,10.178,29.382,4.538,12.147,6.689,22.707,6.574,32.28a53.456,53.456,0,0,1-2.236,14.9,51.82,51.82,0,0,1-6.748,14.02,124.291,124.291,0,0,1-26.2,29.132,137.181,137.181,0,0,1-48.184,25.1h0a91.923,91.923,0,0,1-25.211,3.856c-11.64,0-22.225-2.818-33.311-8.87-10.043-5.482-19.393-12.924-30.22-21.541l-1.358-1.081a89.78,89.78,0,0,0-10.749-6.845,69.335,69.335,0,0,0-10.231-4.5,58.339,58.339,0,0,0-19.21-3.213,77.94,77.94,0,0,0-19.9,2.843c-6.5,1.711-13.031,4.042-19.342,6.295-2.089.746-4.248,1.517-6.382,2.257-2.143,1.38-6.767,3.017-12.1,4.281a84.817,84.817,0,0,1-18.927,2.345,46.548,46.548,0,0,1-11.082-1.2l-.027-.007-.026-.01a36.043,36.043,0,0,1-16.125-12.282,60.351,60.351,0,0,1-8.85-17.094,91.672,91.672,0,0,1-3.754-15.171c-.574-3.583-.752-6.048-.781-6.5a6.655,6.655,0,0,1-.034-.77c-.013-.726-.022-1.956-.027-3.656-.016-5.029,0-13.737.055-25.88a57.115,57.115,0,0,1,1.239-11.6,60.378,60.378,0,0,1,3.456-10.912,84.663,84.663,0,0,1,12.594-20.317c10.474-12.92,24.884-25.241,41.262-38.854a523.624,523.624,0,0,1,59.934-44.707A298.87,298.87,0,0,1-1325.6,5029c24.279-10.041,37.933-10.549,40.424-10.549.154,0,.26,0,.316,0A88.451,88.451,0,0,1-1273.405,5017.779Zm94.392,100.378a121.964,121.964,0,0,0-5.062-30.376,103.289,103.289,0,0,0-11.636-25.391,97.655,97.655,0,0,0-17.113-20.17,100.918,100.918,0,0,0-21.5-14.72l-.008,0c-13.479-7.2-28.685-8.716-39.068-8.716h0a86.319,86.319,0,0,0-11.351.667l-.047.007-.047,0s-.111,0-.324,0a62.18,62.18,0,0,0-11.756,1.475,157.572,157.572,0,0,0-28.285,9,297.856,297.856,0,0,0-44.309,23.381,522.679,522.679,0,0,0-59.823,44.625l-.005,0c-16.337,13.58-30.708,25.866-41.125,38.715a83.7,83.7,0,0,0-12.449,20.077,59.372,59.372,0,0,0-3.4,10.73,56.1,56.1,0,0,0-1.217,11.4c-.119,27.609-.029,29.949-.01,30.137a.5.5,0,0,0-.493-.426.5.5,0,0,0-.5.444l1,.017a89.969,89.969,0,0,0,4.495,21.493,59.333,59.333,0,0,0,8.7,16.8,35.068,35.068,0,0,0,15.645,11.932,45.633,45.633,0,0,0,10.815,1.166,83.772,83.772,0,0,0,18.7-2.318c5.272-1.25,9.807-2.851,11.836-4.179l.052-.034.058-.02c2.149-.745,4.326-1.522,6.431-2.274,6.331-2.261,12.878-4.6,19.424-6.32a78.927,78.927,0,0,1,20.153-2.875,59.317,59.317,0,0,1,19.534,3.268,70.362,70.362,0,0,1,10.38,4.56,90.776,90.776,0,0,1,10.876,6.926l.015.011,1.366,1.087c21.195,16.869,37.936,30.193,62.908,30.193a90.951,90.951,0,0,0,24.933-3.817h0a136.186,136.186,0,0,0,47.835-24.919,123.254,123.254,0,0,0,25.99-28.9l.008-.012a50.818,50.818,0,0,0,6.622-13.753,52.456,52.456,0,0,0,2.193-14.617c.113-9.447-2.017-19.888-6.512-31.919-4.64-12.5-7.856-21.3-10.2-29.455C-1177.905,5131.97-1179.052,5124.91-1179.013,5118.158Z" transform="translate(1488.103 -5018.279)"/></g></g><g class="g" transform="translate(0 -129)"><g class="h" transform="translate(154.872 5482.316) rotate(-180)"><path class="e" d="M182.017-1.5h.26A119.566,119.566,0,0,1,204.206.47a26.667,26.667,0,0,1,5.9,1.766A35.668,35.668,0,0,1,215.992,4.6a55.345,55.345,0,0,1,13.378,9.45,66.136,66.136,0,0,1,14.175,19.953c4.55,9.674,7.383,21.03,8.421,33.752v.005c.164,2.1.306,4.16.443,6.152.61,8.841,1.136,16.477,3.191,23.733a45.455,45.455,0,0,0,12.183,20.481l.043.045c7.683,8.338,14.347,15.844,18.094,23.257a28.164,28.164,0,0,1,3.267,11.45,24.224,24.224,0,0,1-2.63,11.995c-3.555,7.86-7.719,13.724-12.73,17.923a33.539,33.539,0,0,1-10.229,5.887,39.822,39.822,0,0,1-13.491,2.205,55.227,55.227,0,0,1-6.569-.409h-.011c-18.465-2.366-45.049-9.266-60.932-13.389-5.047-1.31-9.033-2.344-10.789-2.71a34.165,34.165,0,0,1-3.911-1.19,51.2,51.2,0,0,0-18.27-3.3,76.885,76.885,0,0,0-16.836,2.06,143.164,143.164,0,0,0-23.506,7.793c-3.965,1.656-7.827,3.294-11.563,4.878-11.938,5.062-23.214,9.844-33.255,13.245-11.2,3.793-19.921,5.559-27.461,5.559-7.943,0-14.653-1.981-20.515-6.055-5.206-3.619-9.387-8.93-12.426-15.786a68.457,68.457,0,0,1-5.248-22.14c-1.3-15.939,1.483-34.125,7.646-49.894l.033-.085.044-.081c1.768-3.279,5.107-7.085,9.922-11.311A152.2,152.2,0,0,1,30.5,87.339C39.394,81.232,47.577,76.572,48.5,76.053c3.045-2.257,52.946-39.233,62.738-45.6.512-.333,1.1-.716,1.75-1.144A350.119,350.119,0,0,1,143.642,11C159.668,2.707,172.579-1.5,182.017-1.5Zm.221,3h-.221c-8.953,0-21.4,4.094-37,12.168a347.4,347.4,0,0,0-30.395,18.149c-.656.429-1.244.814-1.758,1.149-9.809,6.379-62.134,45.161-62.662,45.552l-.077.057-.083.047c-.085.048-8.584,4.827-17.863,11.2C20.1,98.13,12.16,105.357,9.222,110.733c-5.979,15.338-8.681,33-7.416,48.47a65.487,65.487,0,0,0,5,21.169c2.813,6.347,6.647,11.238,11.4,14.539A31.829,31.829,0,0,0,37,200.429c7.2,0,15.622-1.716,26.5-5.4,9.935-3.366,21.161-8.126,33.046-13.166,3.739-1.585,7.605-3.225,11.574-4.883a146.132,146.132,0,0,1,24-7.952,79.871,79.871,0,0,1,17.5-2.134,54.567,54.567,0,0,1,19.246,3.465,32.417,32.417,0,0,0,3.546,1.09c1.828.38,5.647,1.371,10.932,2.743,7.713,2,18.277,4.744,29.223,7.284,12.884,2.989,23.426,5.019,31.333,6.032a52.215,52.215,0,0,0,6.2.387,36.84,36.84,0,0,0,12.477-2.029A30.548,30.548,0,0,0,271.9,180.5c4.662-3.907,8.565-9.429,11.932-16.879l.019-.04a21.311,21.311,0,0,0,2.34-10.557,25.247,25.247,0,0,0-2.948-10.24c-3.57-7.063-10.083-14.394-17.6-22.556a48.331,48.331,0,0,1-12.927-21.764c-2.14-7.556-2.7-15.711-3.3-24.344-.137-1.985-.278-4.038-.441-6.125-1-12.309-3.726-23.276-8.089-32.6a63.262,63.262,0,0,0-13.45-19.048A52.447,52.447,0,0,0,214.8,7.363,32.023,32.023,0,0,0,209.194,5.1l-.2-.051-.15-.087a24.166,24.166,0,0,0-5.573-1.618A116.651,116.651,0,0,0,182.238,1.5Z" transform="translate(27.91 15.499)"/><path class="e" d="M215.656-.5a70.229,70.229,0,0,1,22.458,3.449,51.378,51.378,0,0,1,6.158,1.963,73.468,73.468,0,0,1,14.13,7.207,62.346,62.346,0,0,1,15.593,14.45,57.737,57.737,0,0,1,10.519,23.681c3.991,19.934,5.366,31.822,6.37,40.5.922,7.972,1.479,12.784,3.42,18.262,4.012,11.449,7.36,19.813,9.428,23.552.1.172.219.392.376.67a110.406,110.406,0,0,1,8.94,19.658,54.637,54.637,0,0,1,2.835,14.136,25.515,25.515,0,0,1-2.581,13.365,124.214,124.214,0,0,1-10.62,16.191,146.365,146.365,0,0,1-19.012,20.626,108.987,108.987,0,0,1-26.608,17.767,84.223,84.223,0,0,1-15.9,5.519,76.472,76.472,0,0,1-17.5,2.045,77.517,77.517,0,0,1-10.749-.757,60.518,60.518,0,0,1-12.78-1.918,44.829,44.829,0,0,1-10.812-4.437c-6.426-3.689-12.09-9.052-17.824-16.877-5.69-7.323-9.871-12.229-14.4-15.634a26.224,26.224,0,0,0-7.466-4.009,27.749,27.749,0,0,0-8.964-1.364A55.826,55.826,0,0,0,128.12,199.2a151.516,151.516,0,0,0-16.69,5.1l-3.424,1.195c-19.685,6.873-35.234,12.3-49.455,12.3a48.115,48.115,0,0,1-11.943-1.435,47.127,47.127,0,0,1-11.622-4.68c-7.841-4.394-15.581-11.349-23.662-21.26l-.028-.034-.022-.039a100.805,100.805,0,0,1-8.191-19.272A78.4,78.4,0,0,1-.5,149.222a52.58,52.58,0,0,1,4.12-21.708A47.136,47.136,0,0,1,18.513,108.8a228.416,228.416,0,0,1,21.945-18.44C49.335,83.644,59.152,76.82,68.1,71.147l.016-.01a374.855,374.855,0,0,0,33.5-22.308c8.928-6.587,14.911-11.48,14.971-11.529l.024-.019c.033-.024,3.344-2.405,8.919-5.906,5.142-3.23,13.323-8.1,23.092-12.979A212.253,212.253,0,0,1,180.467,5.411C193.163,1.489,205-.5,215.656-.5Zm8,242.042a75.471,75.471,0,0,0,17.269-2.018,83.224,83.224,0,0,0,15.715-5.454,107.99,107.99,0,0,0,26.362-17.606,145.359,145.359,0,0,0,18.881-20.485,123.178,123.178,0,0,0,10.533-16.056,24.538,24.538,0,0,0,2.464-12.846A53.648,53.648,0,0,0,312.1,153.2a109.448,109.448,0,0,0-8.86-19.477c-.158-.28-.283-.5-.38-.677-2.094-3.787-5.466-12.2-9.5-23.7-1.978-5.583-2.572-10.714-3.47-18.48-1-8.663-2.374-20.527-6.357-40.421A56.748,56.748,0,0,0,273.21,27.189a61.333,61.333,0,0,0-15.328-14.215A72.451,72.451,0,0,0,243.95,5.859a50.85,50.85,0,0,0-6.082-1.94l-.025-.006-.025-.008A69.221,69.221,0,0,0,215.656.5c-10.551,0-22.288,1.973-34.885,5.863a211.222,211.222,0,0,0-31.684,12.92,257.15,257.15,0,0,0-31.876,18.8c-.312.255-6.243,5.089-14.993,11.546A387.682,387.682,0,0,1,68.626,72C59.7,77.654,49.915,84.459,41.061,91.16a227.18,227.18,0,0,0-21.867,18.375l-.023.023-.026.02a46.154,46.154,0,0,0-14.6,18.335A51.589,51.589,0,0,0,.5,149.211,77.4,77.4,0,0,0,4.04,170.788a99.792,99.792,0,0,0,8.087,19.039c7.991,9.794,15.628,16.659,23.348,20.985a46.141,46.141,0,0,0,11.378,4.583,47.13,47.13,0,0,0,11.7,1.4c14.051,0,29.529-5.4,49.125-12.246l3.42-1.193a152.446,152.446,0,0,1,16.8-5.132,56.8,56.8,0,0,1,12.767-1.683,28.73,28.73,0,0,1,9.283,1.416,27.206,27.206,0,0,1,7.749,4.157c4.622,3.473,8.852,8.433,14.6,15.826l.008.011c5.65,7.711,11.217,12.988,17.519,16.606A43.842,43.842,0,0,0,200.39,238.9a59.559,59.559,0,0,0,12.593,1.886l.044,0A76.511,76.511,0,0,0,223.659,241.542Z" transform="translate(7.155 9.204)"/><path class="f" d="M214.425-.5h0c10.483,0,25.842,1.531,39.484,8.821A101.791,101.791,0,0,1,275.6,23.167a98.534,98.534,0,0,1,17.267,20.351,104.161,104.161,0,0,1,11.734,25.6,122.816,122.816,0,0,1,5.1,30.6v.024c-.04,6.648,1.094,13.615,3.675,22.588,2.333,8.109,5.54,16.884,10.165,29.345,4.533,12.132,6.681,22.678,6.566,32.239a53.392,53.392,0,0,1-2.233,14.877,51.752,51.752,0,0,1-6.74,14,124.109,124.109,0,0,1-26.164,29.1,137.016,137.016,0,0,1-48.123,25.071h0a91.818,91.818,0,0,1-25.179,3.851c-11.626,0-22.2-2.815-33.271-8.86-10.031-5.476-19.37-12.909-30.183-21.515l-1.355-1.078a89.686,89.686,0,0,0-10.734-6.835,69.272,69.272,0,0,0-10.218-4.489,58.248,58.248,0,0,0-19.185-3.209,77.833,77.833,0,0,0-19.874,2.839c-6.5,1.709-13.015,4.037-19.318,6.287-2.086.745-4.242,1.515-6.373,2.254-2.14,1.378-6.758,3.013-12.085,4.276a84.7,84.7,0,0,1-18.9,2.341,46.5,46.5,0,0,1-11.069-1.2l-.027-.007-.026-.01a36,36,0,0,1-16.105-12.266A60.281,60.281,0,0,1,4.1,212.271,91.55,91.55,0,0,1,.346,197.12c-.573-3.578-.751-6.039-.78-6.487a6.628,6.628,0,0,1-.034-.768c-.013-.725-.022-1.953-.027-3.651-.015-5.023,0-13.72.055-25.848A57.035,57.035,0,0,1,.8,148.776a60.3,60.3,0,0,1,3.452-10.9,84.565,84.565,0,0,1,12.578-20.292c10.461-12.9,24.853-25.209,41.21-38.806A522.983,522.983,0,0,1,117.9,34.132,298.5,298.5,0,0,1,162.3,10.7C186.548.675,200.184.167,202.672.167c.154,0,.259,0,.315,0A88.366,88.366,0,0,1,214.425-.5ZM308.7,99.752a121.806,121.806,0,0,0-5.056-30.338A103.159,103.159,0,0,0,292.02,44.056a97.535,97.535,0,0,0-17.091-20.145,100.79,100.79,0,0,0-21.474-14.7l-.008,0C239.985,2.011,224.8.5,214.428.5h0a86.233,86.233,0,0,0-11.337.666l-.046.007-.047,0s-.111,0-.324,0A62.12,62.12,0,0,0,190.93,2.64a157.306,157.306,0,0,0-28.249,8.987,297.494,297.494,0,0,0-44.253,23.351A522.008,522.008,0,0,0,58.682,79.546l0,0C42.36,93.113,28.007,105.383,17.6,118.217A83.587,83.587,0,0,0,5.171,138.268a59.3,59.3,0,0,0-3.394,10.716A56.032,56.032,0,0,0,.56,160.369c-.118,27.574-.029,29.91-.01,30.1a.5.5,0,0,0-.493-.426.5.5,0,0,0-.5.444l1,.017a89.864,89.864,0,0,0,4.489,21.466,59.256,59.256,0,0,0,8.687,16.778A35.022,35.022,0,0,0,29.36,240.662a45.559,45.559,0,0,0,10.8,1.164,83.681,83.681,0,0,0,18.673-2.314c5.265-1.248,9.794-2.848,11.82-4.174l.052-.034.058-.02c2.145-.744,4.319-1.52,6.422-2.27,6.324-2.258,12.863-4.593,19.4-6.313a78.812,78.812,0,0,1,20.129-2.872,59.232,59.232,0,0,1,19.509,3.263,70.27,70.27,0,0,1,10.367,4.554,90.686,90.686,0,0,1,10.863,6.917l.015.011,1.362,1.084c21.169,16.849,37.889,30.157,62.831,30.157a90.837,90.837,0,0,0,24.9-3.813,136.022,136.022,0,0,0,47.771-24.887,123.1,123.1,0,0,0,25.957-28.865l.008-.012a50.755,50.755,0,0,0,6.614-13.736,52.394,52.394,0,0,0,2.19-14.6c.113-9.435-2.014-19.863-6.5-31.878-4.634-12.483-7.846-21.274-10.189-29.417C309.8,113.547,308.658,106.5,308.7,99.752Z" transform="translate(0 0)"/></g></g></g></svg>