<svg xmlns="http://www.w3.org/2000/svg" width="1920" height="676" viewBox="0 0 1920 676"><defs><style>.a{fill:#f0efef;}.b{opacity:0.3;}.c{fill:#84ef2a;}</style></defs><g transform="translate(0 -1700)"><rect class="a" width="1920" height="676" transform="translate(0 1700)"/><g class="b" transform="translate(20 2076.792) rotate(-90)"><path class="c" d="M-1252.97,5042.439c-5.06,0-11.3,1.281-18.561,3.807a162.624,162.624,0,0,0-20.853,9.211,374.676,374.676,0,0,0-32.781,19.576c-.723.473-1.347.882-1.907,1.246-10.582,6.882-67.19,48.836-67.76,49.26l-.153.113-.166.093c-.091.051-9.218,5.182-19.209,12.046-12.862,8.836-21.294,16.472-24.406,22.1-6.375,16.4-9.256,35.254-7.905,51.771a69.53,69.53,0,0,0,5.3,22.47c2.942,6.636,6.933,11.738,11.863,15.165,5.544,3.854,11.945,5.727,19.568,5.727,7.641,0,16.615-1.834,28.242-5.773,10.706-3.627,22.835-8.77,35.676-14.215,4.049-1.717,8.235-3.492,12.534-5.288a159.543,159.543,0,0,1,26.21-8.681,87.826,87.826,0,0,1,19.246-2.344,60.3,60.3,0,0,1,21.281,3.825,34.493,34.493,0,0,0,3.671,1.133c2.012.418,6.158,1.495,11.9,2.984,8.342,2.166,19.767,5.131,31.6,7.876,13.9,3.225,25.264,5.414,33.777,6.5a55.172,55.172,0,0,0,6.547.409,38.51,38.51,0,0,0,13.04-2.115,31.69,31.69,0,0,0,9.666-5.564c4.884-4.093,8.987-9.91,12.545-17.783l.037-.08a21.73,21.73,0,0,0,2.395-10.759,26,26,0,0,0-3.045-10.529c-3.781-7.481-10.759-15.334-18.818-24.083a53.635,53.635,0,0,1-14.325-24.138c-2.356-8.317-2.969-17.214-3.619-26.632-.148-2.145-.3-4.362-.477-6.614-1.07-13.111-3.957-24.787-8.58-34.7a67.217,67.217,0,0,0-14.194-20.2,55.493,55.493,0,0,0-13.328-9.547,34.131,34.131,0,0,0-5.924-2.415l-.33-.053-.364-.219a27.2,27.2,0,0,0-5.934-1.671,126.514,126.514,0,0,0-22.227-1.908h-.226m0-3h.257c23.058.336,29.564,3.943,29.564,3.943s39.425,10.011,44.278,69.535c1.723,22.078,1.146,39.124,17.594,55.543,16.631,18.05,28.253,31.849,20,48.764-6.954,15.386-18.8,29.942-44.9,26.795-26.587-3.406-69.814-15.8-77.513-17.405-4.315-.9-11.192-4.9-24.341-4.9-10.311,0-24.478,2.457-44.3,10.793-32.117,13.417-57.539,25.509-77.61,25.509-7.894,0-14.957-1.869-21.28-6.264-22.4-15.567-23.353-59.663-10.27-93.139,7.989-14.814,44.874-35.492,44.874-35.492s57.129-42.353,67.911-49.365C-1317.963,5066.777-1277.555,5039.439-1252.97,5039.439Z" transform="translate(1480.211 -5022.662)"/><path class="c" d="M-1244.892,5031.844c-11.373,0-24.029,2.128-37.618,6.324a228.139,228.139,0,0,0-34.222,13.953c-10.519,5.249-19.329,10.5-24.868,13.974-5.748,3.609-9.257,6.11-9.576,6.339-.453.37-6.848,5.576-16.236,12.5a407.377,407.377,0,0,1-36.4,24.235c-9.646,6.117-20.228,13.473-29.8,20.717a245.524,245.524,0,0,0-23.624,19.85l-.046.046-.052.039A49.511,49.511,0,0,0-1473,5169.49a55.388,55.388,0,0,0-4.332,22.866,83.328,83.328,0,0,0,3.808,23.228,107.565,107.565,0,0,0,8.7,20.484c8.6,10.539,16.82,17.924,25.117,22.574a49.5,49.5,0,0,0,12.2,4.917,50.574,50.574,0,0,0,12.551,1.506c15.132,0,31.855-5.839,53.026-13.231l3.7-1.291a165.519,165.519,0,0,1,18.233-5.57,61.933,61.933,0,0,1,13.923-1.833,31.56,31.56,0,0,1,10.195,1.556,29.9,29.9,0,0,1,8.517,4.569c5.044,3.791,9.645,9.183,15.886,17.216l.017.023c6.077,8.294,12.057,13.965,18.822,17.849A47.014,47.014,0,0,0-1261.3,5289a64.05,64.05,0,0,0,13.535,2.027l.045,0,.044.006a82.382,82.382,0,0,0,11.444.808,81.246,81.246,0,0,0,18.588-2.172,89.645,89.645,0,0,0,16.925-5.874,116.437,116.437,0,0,0,28.424-18.984,156.9,156.9,0,0,0,20.379-22.109,132.855,132.855,0,0,0,11.362-17.317,26.116,26.116,0,0,0,2.614-13.667,57.621,57.621,0,0,0-2.995-14.9,118.028,118.028,0,0,0-9.554-21c-.172-.3-.307-.544-.414-.737-2.279-4.121-5.94-13.258-10.309-25.725-2.159-6.094-2.8-11.668-3.78-20.106-1.084-9.37-2.568-22.2-6.876-43.717a60.975,60.975,0,0,0-11.078-24.973,65.927,65.927,0,0,0-16.463-15.278,77.956,77.956,0,0,0-14.99-7.663,54.817,54.817,0,0,0-6.551-2.093l-.051-.012-.049-.017a74.48,74.48,0,0,0-23.843-3.661m0-1a75.265,75.265,0,0,1,24.163,3.714s41.547,9.354,49.843,50.786,6.2,51.2,10.618,63.686c4.386,12.515,8.008,21.536,10.242,25.575s19.819,33.5,10.356,51.257c-8.826,16.561-44.21,66.987-96.559,66.987a83,83,0,0,1-11.583-.818c-20.049-1.015-32.654-8.834-44.451-24.936-11.505-14.808-19.085-22.955-33.809-22.955-7.947,0-17.971,2.371-31.824,7.346-22.984,8.006-40.876,14.578-57.057,14.578-17.471,0-32.947-7.656-50.7-29.434-13.611-24.515-22.755-64.321,7.719-87.6,11.405-11.322,33.991-28.275,53.609-40.713,26.8-15.591,52.544-36.677,52.544-36.677S-1295.214,5030.844-1244.892,5030.844Z" transform="translate(1486.079 -5020.882)"/><path class="c" d="M-1255.991,5019.279a92.958,92.958,0,0,0-12.206.716l-.093.014-.093,0s-.114,0-.333,0a66.773,66.773,0,0,0-12.618,1.586,169.841,169.841,0,0,0-30.5,9.7,321.578,321.578,0,0,0-47.833,25.241c-20.64,13-42.381,29.223-64.621,48.205l-.01.008c-17.643,14.665-33.161,27.931-44.4,41.791a90.044,90.044,0,0,0-13.392,21.594,63.732,63.732,0,0,0-3.648,11.517,60.2,60.2,0,0,0-1.306,12.23c-.127,29.58-.033,32.294-.013,32.538a1,1,0,0,0-.99-.878,1,1,0,0,0-.993.9l1.994.032a96.653,96.653,0,0,0,4.827,23.088,63.726,63.726,0,0,0,9.334,18.045,37.465,37.465,0,0,0,16.693,12.75,48.889,48.889,0,0,0,11.557,1.241,90.117,90.117,0,0,0,20.107-2.493c5.566-1.319,10.531-3.068,12.65-4.456l.1-.067.117-.041c2.32-.8,4.672-1.644,6.946-2.456,6.854-2.447,13.942-4.978,21.038-6.845a85.764,85.764,0,0,1,21.906-3.124,64.558,64.558,0,0,1,21.267,3.557,76.5,76.5,0,0,1,11.29,4.958,98.661,98.661,0,0,1,11.814,7.522l.029.022,1.481,1.179c11.648,9.271,21.707,17.277,32.447,23.14,11.749,6.413,22.957,9.4,35.274,9.4a97.876,97.876,0,0,0,26.828-4.108,146.775,146.775,0,0,0,51.55-26.855,132.794,132.794,0,0,0,28-31.136l.016-.024a54.485,54.485,0,0,0,7.1-14.744,56.257,56.257,0,0,0,2.351-15.674c.121-10.156-2.172-21.389-7.011-34.344-5.019-13.521-8.5-23.044-11.04-31.875a116.234,116.234,0,0,1-3.02-12.933,69.271,69.271,0,0,1-1.019-11.929,137.526,137.526,0,0,0-2.18-19.313,124.137,124.137,0,0,0-4.7-17.78,106.946,106.946,0,0,0-20.957-36.065,107.214,107.214,0,0,0-31.707-24.452l-.017-.009c-14.489-7.744-30.848-9.369-42.021-9.369h0m0-1c11.045,0,27.719,1.592,42.492,9.487a107.154,107.154,0,0,1,53.154,61.08,130.453,130.453,0,0,1,6.94,37.4c-.092,15.355,5.752,31.452,15.016,56.407,9.106,24.375,10.607,46.278-2.549,65.672-11.852,18.582-36.675,45.611-80.115,58.414-44.595,12.65-66.336-5.448-96.931-29.788-36.557-26.931-64.339-13.525-93.34-3.474-5.463,3.576-29.051,9.81-45.156,5.829-29.063-10.76-31.557-54.784-31.557-54.784s0,.012,0,.012c-.02,0-.131-1.359,0-32.665.147-34.279,28.338-59,63.1-87.9,97.238-82.994,151.28-84.974,156.217-84.974.247,0,.372,0,.372,0A92.887,92.887,0,0,1-1255.991,5018.279Z" transform="translate(1488.103 -5018.279)"/></g><g class="b" transform="translate(1902.729 1743) rotate(90)"><path class="c" d="M-1111.486,5042.439c-8.935,0-19.9,2.241-32.594,6.66a281.521,281.521,0,0,0-36.106,15.944c-23.782,12.313-45.072,26.253-56.51,33.742-1.243.814-2.316,1.517-3.277,2.142-18.236,11.86-115.546,83.981-116.526,84.708l-.153.113-.166.093c-.158.088-15.959,8.974-33.208,20.827-22.443,15.422-37.176,28.833-42.63,38.8-11.1,28.5-16.124,61.3-13.773,90.038a143.028,143.028,0,0,0,3.193,20.813,104.478,104.478,0,0,0,6.089,18.488c5.216,11.768,12.323,20.835,21.121,26.951,9.9,6.88,21.3,10.225,34.849,10.225,13.371,0,29.009-3.188,49.214-10.033,18.47-6.258,39.345-15.109,61.445-24.481,6.952-2.948,14.14-6,21.518-9.078a271.978,271.978,0,0,1,44.681-14.8,169.082,169.082,0,0,1,17.666-3.071,129.337,129.337,0,0,1,14.925-.9,99.331,99.331,0,0,1,21.5,2.248,122.753,122.753,0,0,1,14.359,4.207,60.235,60.235,0,0,0,6.569,2.02c3.406.708,10.511,2.553,20.346,5.1,14.344,3.723,33.989,8.822,54.342,13.544,23.947,5.556,43.541,9.329,58.238,11.213a96.886,96.886,0,0,0,11.523.72,75.632,75.632,0,0,0,12.4-.986,62,62,0,0,0,10.736-2.775,56.411,56.411,0,0,0,9.27-4.312,57.5,57.5,0,0,0,7.992-5.625,70.49,70.49,0,0,0,12.779-14.348,110.638,110.638,0,0,0,9.355-16.969l.038-.08a39.43,39.43,0,0,0,4.33-19.532c-.29-6.061-2.076-12.262-5.461-18.959-6.627-13.111-18.729-26.732-32.7-41.9a95.1,95.1,0,0,1-15.41-19.811,89.8,89.8,0,0,1-8.683-20.755,139.3,139.3,0,0,1-4.152-21.885c-.889-7.5-1.423-15.237-1.988-23.433-.255-3.691-.518-7.509-.821-11.39h0a202.23,202.23,0,0,0-5.537-33.826,153.294,153.294,0,0,0-9.48-26.705,117.463,117.463,0,0,0-24.959-35.36,101.4,101.4,0,0,0-12.624-10.289,91.34,91.34,0,0,0-10.817-6.405,59.653,59.653,0,0,0-10.406-4.208l-.349-.071-.354-.206c-.224-.113-3.121-1.533-10.35-3a151.834,151.834,0,0,0-15.2-2.176c-7.1-.691-15.117-1.106-23.839-1.233l-.407,0m0-3,.443,0c39.616.577,50.793,6.774,50.793,6.774s67.735,17.2,76.074,119.468c2.96,37.933,1.969,67.218,30.228,95.429,28.574,31.012,48.541,54.72,34.363,83.781-11.947,26.434-32.293,51.437-77.147,46.036-45.679-5.853-119.947-27.152-133.174-29.9-7.413-1.542-19.229-8.412-41.821-8.412-17.716,0-42.055,4.221-76.109,18.543-55.18,23.051-98.856,43.827-133.34,43.827-13.563,0-25.7-3.211-36.561-10.762-38.48-26.746-40.122-102.5-17.644-160.021,13.726-25.451,77.1-60.978,77.1-60.978s98.153-72.766,116.678-84.813C-1223.149,5086.408-1153.726,5039.439-1111.486,5039.439Z" transform="translate(1501.905 -5010.614)"/><path class="c" d="M-1077.259,5031.844a189.535,189.535,0,0,0-32.532,3,265.647,265.647,0,0,0-32.324,7.906,392.746,392.746,0,0,0-58.914,24.023c-18.1,9.032-33.256,18.061-42.785,24.044-10,6.278-16.056,10.606-16.488,10.916-.6.487-11.622,9.474-27.885,21.473-9.773,7.211-19.5,14.084-28.908,20.43-11.759,7.931-23.054,15.054-33.572,21.172-16.592,10.52-34.794,23.174-51.259,35.635-17.184,13.005-31.244,24.82-40.66,34.167l-.046.046-.052.039a90.97,90.97,0,0,0-16.382,16.046,82.648,82.648,0,0,0-10.758,18.026c-5.14,11.811-7.664,25.127-7.5,39.58a143.886,143.886,0,0,0,6.573,40.108,181.426,181.426,0,0,0,6.827,18.639,185.448,185.448,0,0,0,8.2,16.751c14.853,18.2,29.05,30.964,43.4,39.006a85.747,85.747,0,0,0,21.144,8.517,87.582,87.582,0,0,0,21.739,2.609c26.12,0,54.9-10.049,91.339-22.771q3.138-1.1,6.351-2.216h0a283.723,283.723,0,0,1,31.255-9.55,105.72,105.72,0,0,1,23.759-3.131,53.492,53.492,0,0,1,17.287,2.637,50.668,50.668,0,0,1,14.43,7.742c8.6,6.464,16.472,15.692,27.158,29.446l.017.023a134.632,134.632,0,0,0,15.524,17.987,87.668,87.668,0,0,0,17.036,12.877,81.479,81.479,0,0,0,19.65,8.063,110.722,110.722,0,0,0,23.405,3.506l.045,0,.044.006a142.262,142.262,0,0,0,19.762,1.4,140.3,140.3,0,0,0,32.1-3.751,154.716,154.716,0,0,0,29.214-10.138c16.835-7.76,33.324-18.773,49.011-32.732a260.584,260.584,0,0,0,19.393-19.222c5.463-6,10.749-12.351,15.713-18.866a229,229,0,0,0,19.584-29.851,38.766,38.766,0,0,0,3.854-11.361,55.544,55.544,0,0,0,.721-12.494,99.708,99.708,0,0,0-5.18-25.784c-5.447-16.676-13.457-30.868-16.473-36.21-.294-.521-.526-.932-.708-1.26-3.9-7.046-10.17-22.706-17.664-44.091a91.672,91.672,0,0,1-3.977-15.606c-.939-5.45-1.619-11.333-2.48-18.78-1.863-16.11-4.415-38.174-11.822-75.168a109.288,109.288,0,0,0-7.69-23.945,103.467,103.467,0,0,0-11.494-19.277,113.992,113.992,0,0,0-28.487-26.42,132.43,132.43,0,0,0-14.021-8.04c-3.894-1.929-7.89-3.674-11.876-5.186a94.416,94.416,0,0,0-11.306-3.607l-.051-.011-.049-.017a117.536,117.536,0,0,0-20.182-4.823,142.722,142.722,0,0,0-21.012-1.5m0-1a129.324,129.324,0,0,1,41.514,6.38s71.382,16.072,85.635,87.255,10.644,87.974,18.242,109.417c7.535,21.5,13.759,37,17.6,43.941s34.05,57.558,17.793,88.063c-15.164,28.454-75.956,115.089-165.9,115.089a142.55,142.55,0,0,1-19.9-1.405c-34.446-1.743-56.1-15.178-76.371-42.841-19.767-25.442-32.789-39.438-58.086-39.438-13.653,0-30.876,4.073-54.677,12.622-39.488,13.756-70.228,25.046-98.028,25.046-30.016,0-56.606-13.154-87.113-50.569-23.386-42.119-39.1-110.51,13.262-150.508,19.6-19.453,58.4-48.579,92.105-69.948,46.048-26.786,90.275-63.014,90.275-63.014S-1163.717,5030.844-1077.259,5030.844Z" transform="translate(1491.641 -5013.729)"/><path class="c" d="M-1089.314,5018.279v1a160.371,160.371,0,0,0-21.077,1.237l-.093.014-.093,0s-.205-.007-.6-.007c-1.963,0-9.339.2-21.822,2.739-7.057,1.437-14.621,3.392-22.483,5.812-9.578,2.948-19.685,6.614-30.042,10.9-25.824,10.68-53.51,25.289-82.291,43.423-16.906,10.652-34.406,22.668-52.011,35.712-19.27,14.278-39.153,30.148-59.1,47.17l-.01.008c-13.94,11.586-28.67,23.928-42.068,36.228-6.871,6.308-12.871,12.121-18.341,17.771-6.019,6.216-11.242,12.072-15.969,17.9-10.349,12.767-17.91,24.959-23.113,37.274a110.217,110.217,0,0,0-6.309,19.917,104.149,104.149,0,0,0-2.259,21.159c-.22,51.231-.054,55.612-.019,55.97a.994.994,0,0,0-.986-.854.994.994,0,0,0-.991.888l1.994.034c0,.047.281,4.791,1.446,12.053a168.265,168.265,0,0,0,6.9,27.853c4.212,12.209,9.644,22.7,16.145,31.182a72.268,72.268,0,0,0,12.689,12.962,60.781,60.781,0,0,0,16.333,9.173,84.661,84.661,0,0,0,20.068,2.162,139.577,139.577,0,0,0,17.973-1.233,166.182,166.182,0,0,0,16.737-3.069,130.46,130.46,0,0,0,13.566-3.946,42.928,42.928,0,0,0,8.4-3.807l.1-.067.117-.041c3.989-1.383,8.032-2.826,11.941-4.222,11.762-4.2,23.925-8.542,36.087-11.742a173.2,173.2,0,0,1,18.466-3.873,126.689,126.689,0,0,1,18.987-1.471,111.649,111.649,0,0,1,17.812,1.419,112.973,112.973,0,0,1,18.494,4.654,130.8,130.8,0,0,1,19.29,8.473,168.711,168.711,0,0,1,20.21,12.87l.029.022,2.544,2.024c39.352,31.322,70.435,56.063,116.8,56.063a147.262,147.262,0,0,0,21.868-1.709,198.842,198.842,0,0,0,24.428-5.378c33.272-9.807,63.154-25.375,88.818-46.271A236.909,236.909,0,0,0-912,5438.919a216.806,216.806,0,0,0,19.512-25.937l.016-.024a97.9,97.9,0,0,0,7.245-12.568,91.6,91.6,0,0,0,5.045-12.958,93.224,93.224,0,0,0,2.991-13.359,102.568,102.568,0,0,0,1.078-13.771c.21-17.539-3.745-36.923-12.091-59.263-8.617-23.215-14.592-39.565-18.95-54.713a199.06,199.06,0,0,1-5.171-22.139,118.32,118.32,0,0,1-1.74-20.39,236.982,236.982,0,0,0-3.758-33.3,213.982,213.982,0,0,0-8.11-30.65,184.461,184.461,0,0,0-36.147-62.2,182.734,182.734,0,0,0-25.4-23.687,189.674,189.674,0,0,0-29.285-18.486l-.016-.009a134.233,134.233,0,0,0-38.618-13.136,184.849,184.849,0,0,0-33.916-3.046v-1m0,0c18.975,0,47.624,2.735,73.005,16.3a184.1,184.1,0,0,1,91.323,104.94,224.109,224.109,0,0,1,11.923,64.26c-.158,26.382,9.883,54.037,25.8,96.912,15.645,41.877,18.224,79.509-4.379,112.829-20.363,31.926-63.011,78.365-137.645,100.361-76.618,21.732-113.971-9.36-166.537-51.178-27.479-20.243-52.068-27.222-75.213-27.221-29.758,0-57.127,11.539-85.154,21.252-9.386,6.145-49.912,16.855-77.582,10.014-49.933-18.486-54.217-94.124-54.217-94.124s-.253,2.773,0-56.1c.253-58.9,48.687-101.366,108.419-151.016,175.438-149.739,269.033-145.987,269.033-145.984A159.618,159.618,0,0,1-1089.314,5018.279Z" transform="translate(1488.103 -5018.279)"/></g></g></svg>