<svg xmlns="http://www.w3.org/2000/svg" xmlns:xlink="http://www.w3.org/1999/xlink" width="1920" height="302" viewBox="0 0 1920 302"><defs><style>.a,.d{fill:#fff;}.b{fill:#1b1b37;}.c{clip-path:url(#a);}.d{opacity:0.1;}</style><clipPath id="a"><rect class="a" width="323" height="278" transform="translate(0 7750)"/></clipPath></defs><g transform="translate(0 -42)"><rect class="b" width="1920" height="302" transform="translate(0 42)"/><g class="c" transform="translate(0 -7708)"><g transform="translate(-571 436.352)"><path class="d" d="M346.9.721h.749l-.287.692L253.841,226.66a74.03,74.03,0,0,1-13.321,20.473,97.788,97.788,0,0,1-19.762,16.706A100.95,100.95,0,0,1,197.1,275.11a81.576,81.576,0,0,1-25.012,4.139h-.749l.287-.692L265.136,53.31a71.169,71.169,0,0,1,13.125-20.473A96.524,96.524,0,0,1,298.05,16.13,101.555,101.555,0,0,1,321.817,4.86,82.148,82.148,0,0,1,346.9.721ZM172.842,278.245a80.966,80.966,0,0,0,23.955-4.087A99.952,99.952,0,0,0,220.216,263a96.788,96.788,0,0,0,19.561-16.534,73.03,73.03,0,0,0,13.142-20.191L346.146,1.725a81.548,81.548,0,0,0-24.022,4.087,100.554,100.554,0,0,0-23.533,11.16A95.523,95.523,0,0,0,279.006,33.5a70.178,70.178,0,0,0-12.945,20.186Z" transform="translate(437.705 7312.427)"/><path class="d" d="M336.584.721h.749l-.287.692L243.529,226.66a74.031,74.031,0,0,1-13.321,20.473,97.788,97.788,0,0,1-19.762,16.706,100.951,100.951,0,0,1-23.655,11.271,81.576,81.576,0,0,1-25.012,4.139h-.749l.287-.692L254.824,53.31a71.179,71.179,0,0,1,13.123-20.473A96.5,96.5,0,0,1,287.734,16.13,101.531,101.531,0,0,1,311.5,4.86,82.165,82.165,0,0,1,336.584.721ZM162.53,278.245a80.966,80.966,0,0,0,23.955-4.087A99.95,99.95,0,0,0,209.9,263a96.788,96.788,0,0,0,19.561-16.534,73.033,73.033,0,0,0,13.142-20.191L335.834,1.725a81.566,81.566,0,0,0-24.027,4.087,100.533,100.533,0,0,0-23.533,11.16A95.506,95.506,0,0,0,268.692,33.5a70.189,70.189,0,0,0-12.943,20.186Z" transform="translate(338.221 7312.427)"/><path class="d" d="M181.649,279.308l.292-.7L275.448,53.357A74.013,74.013,0,0,1,288.77,32.884a97.8,97.8,0,0,1,19.766-16.706A100.979,100.979,0,0,1,332.194,4.907,81.59,81.59,0,0,1,357.208.768h.749l-.287.692L264.163,226.707a70.76,70.76,0,0,1-13.126,20.2,98.092,98.092,0,0,1-19.787,16.614,104.394,104.394,0,0,1-23.764,11.361A84.52,84.52,0,0,1,182.41,279.3ZM356.458,1.772A80.981,80.981,0,0,0,332.5,5.859a99.98,99.98,0,0,0-23.424,11.159,96.8,96.8,0,0,0-19.564,16.534A73.015,73.015,0,0,0,276.37,53.744L183.158,278.282a83.96,83.96,0,0,0,24.015-4.35,103.394,103.394,0,0,0,23.536-11.253A97.093,97.093,0,0,0,250.3,246.236a69.767,69.767,0,0,0,12.944-19.912Z" transform="translate(537.19 7312.851)"/></g></g></g></svg>