<svg xmlns="http://www.w3.org/2000/svg" width="50" height="49.796" viewBox="0 0 50 49.796">
    <g data-name="Grupo 2650" transform="translate(6411.404 2746)">
        <path data-name="Caminho 2127" d="M27.66,49.8a7.112,7.112,0,0,1-6.18-3.589l1.29-17.792,4.891-4.15V42.683H63.229V32.012a3.547,3.547,0,0,1,1.1-2.577c2.245,2.708,4.336,5.237,6.009,7.269v5.979A7.114,7.114,0,0,1,63.229,49.8ZM43.67,34.551,33.61,24.491q-2.515-2.515,0-5.03t5.03,0L46.4,27.222l8.793-8.793c1.457,1.752,3.007,3.617,4.566,5.494L49.168,34.516a3.593,3.593,0,0,1-2.56,1.257,2.58,2.58,0,0,1-.423.035A3.624,3.624,0,0,1,43.67,34.551Z" transform="translate(-6431.95 -2746)" fill="#286bef" />
        <path data-name="Caminho 2128" d="M58.242,65.6a7.114,7.114,0,0,1-7.114-7.114V23.44l7.114,3.482V58.486H71.086L73.258,65.6Zm5.95-25.305q-2.438-2.438-.15-4.875l2.077,6.8Z" transform="translate(-6462.532 -2761.804)" fill="#179c52" />
        <path id="Caminho_2130" data-name="Caminho 2130" d="M31.265,46.9a3.613,3.613,0,0,1,1.257-2.529q2.515-2.516,5.03,0l2.107,2.107-4.412,2.011Zm-11.806-4.71V32.024a7.114,7.114,0,0,1,7.114-7.114H47.914a3.557,3.557,0,1,1,0,7.114H26.573v13Zm43.712-7.913A3.258,3.258,0,0,1,66.335,33.1l.415,1.028L60.442,37Z" transform="translate(-6430.863 -2770.91)" fill="#f7b529" />
        <path data-name="Caminho 2129" d="M42.683,71.614V70.79a3.557,3.557,0,1,1,7.114,0V78.1ZM30.946,60.909,43.712,48.143q2.515-2.515,5.03,0t0,5.03L36.207,65.708ZM30.54,39.452a3.558,3.558,0,0,1-.871,6.226Z" transform="translate(-6411.404 -2784.777)" fill="#fe3e30" />
    </g>
</svg>