<svg xmlns="http://www.w3.org/2000/svg" xmlns:xlink="http://www.w3.org/1999/xlink" width="28.374" height="20" viewBox="0 0 28.374 20"><defs><style>.a{fill:#1b1b37;}.b{fill:url(#a);}</style><linearGradient id="a" x1="0.5" x2="0.5" y2="1" gradientUnits="objectBoundingBox"><stop offset="0" stop-color="#93ff00"/><stop offset="0.333" stop-color="#8afd06"/><stop offset="1" stop-color="#47d332"/></linearGradient></defs><path class="a" d="M179.079,4.982l-6.988,16.2a7.084,7.084,0,0,0,6.075-3.761l6.989-16.2A7.041,7.041,0,0,0,179.079,4.982Z" transform="translate(-164.436 -1.221)"/><path class="b" d="M22.3,3.8A7.085,7.085,0,0,1,28.374.035l-6.988,16.2A7.184,7.184,0,0,1,15.31,20ZM6.988,3.761A7.039,7.039,0,0,1,13.063,0L6.075,16.2A7.086,7.086,0,0,1,0,19.965Z"/></svg>