<svg xmlns="http://www.w3.org/2000/svg" xmlns:xlink="http://www.w3.org/1999/xlink" width="130" height="132" viewBox="0 0 130 132"><defs><style>.a{clip-path:url(#a);}.b{fill:#286bef;}.c{fill:#179c52;}.d{fill:#f7b529;}.e{fill:#fe3e30;}</style><clipPath id="a"><path d="M130,68.106c0,37.657-25.814,64.456-63.934,64.456a66,66,0,1,1,0-132,63.567,63.567,0,0,1,44.3,17.272L92.385,35.106C68.863,12.432,25.121,29.464,25.121,66.562c0,23.02,18.408,41.676,40.945,41.676,26.16,0,35.963-18.735,37.508-28.449H66.066v-22.7h62.9A57.8,57.8,0,0,1,130,68.106Z" transform="translate(915 1901.438)"/></clipPath></defs><g class="a" transform="translate(-915 -1902)"><g transform="translate(885 1878.776)"><path class="b" d="M12258.673,1980.5c-2.872.288-59.117,10.01-59.117,10.01l7.8,42.852,47.285,32.071,42.715-71.761Z" transform="translate(-12109.836 -1914.375)"/><path class="c" d="M12178.028,2083.428l-41.882-31.154-56.479-13.058-46.206,31.072,107.147,41.857Z" transform="translate(-12033.461 -1941.405)"/><path class="d" d="M12109.771,1994.952l-38.069,30.013-8.014-85.1,50.7,7.146Z" transform="translate(-12047.362 -1895.669)"/><path class="e" d="M12069.754,1903.638l46.218,36.064,58.771-18.679,24.244-31.186-64.563-31.875Z" transform="translate(-12050.149 -1857.963)"/></g></g></svg>