<svg xmlns="http://www.w3.org/2000/svg" xmlns:xlink="http://www.w3.org/1999/xlink" width="185.886" height="39.297" viewBox="0 0 185.886 39.297"><defs><style>.a{fill:#1b1b37;}.b{fill:url(#a);}</style><linearGradient id="a" x1="0.5" x2="0.5" y2="1" gradientUnits="objectBoundingBox"><stop offset="0" stop-color="#93ff00"/><stop offset="0.333" stop-color="#8afd06"/><stop offset="1" stop-color="#47d332"/></linearGradient></defs><g transform="translate(0 -0.037)"><path class="a" d="M-2042.39-69v-.4a.775.775,0,0,0,.264.044c.308,0,.483-.088.483-.308,0-.176-.131-.264-.439-.264h-.132v-.616a2.271,2.271,0,0,1-1.406-.7,2.523,2.523,0,0,1-.7-1.893,2.72,2.72,0,0,1,.791-2.024,2.38,2.38,0,0,1,1.979-.748,3.507,3.507,0,0,1,1.274.22v.88a2.183,2.183,0,0,0-1.188-.308,1.921,1.921,0,0,0-1.406.528,1.962,1.962,0,0,0-.528,1.452,1.8,1.8,0,0,0,.483,1.364,1.793,1.793,0,0,0,1.32.528,2.4,2.4,0,0,0,1.274-.352v.792a2.776,2.776,0,0,1-1.407.308v-.088h-.484v.044c.132,0,.264.044.4.044h.088v.264a.936.936,0,0,1,.527.132.43.43,0,0,1,.176.4c0,.484-.351.7-1.055.7Zm32.359-2.244a2.626,2.626,0,0,1-.7-1.937,2.72,2.72,0,0,1,.791-2.024,2.783,2.783,0,0,1,2.022-.792,3.646,3.646,0,0,1,1.494.264v.88a2.556,2.556,0,0,0-1.451-.4,1.93,1.93,0,0,0-1.363.572,2.112,2.112,0,0,0-.527,1.452,2.1,2.1,0,0,0,.484,1.408,1.626,1.626,0,0,0,1.275.528,2.037,2.037,0,0,0,.922-.221v-1.232h-1.187v-.7h1.978v2.508a3.815,3.815,0,0,1-1.846.44A2.547,2.547,0,0,1-2010.031-71.24Zm-20.532,0a2.7,2.7,0,0,1-.7-1.937,2.771,2.771,0,0,1,.7-2.024,2.547,2.547,0,0,1,1.891-.748,2.348,2.348,0,0,1,1.8.748,2.382,2.382,0,0,1,.66,1.937,2.774,2.774,0,0,1-.7,2.024,2.382,2.382,0,0,1-1.847.748A2.35,2.35,0,0,1-2030.563-71.24Zm.7-3.344a2.074,2.074,0,0,0-.44,1.408,2.075,2.075,0,0,0,.44,1.409,1.357,1.357,0,0,0,1.142.528,1.507,1.507,0,0,0,1.188-.528,2.325,2.325,0,0,0,.483-1.364,2.371,2.371,0,0,0-.44-1.452,1.5,1.5,0,0,0-1.186-.528A1.5,1.5,0,0,0-2029.859-74.585Zm-33.678,3.344a2.7,2.7,0,0,1-.7-1.937,2.774,2.774,0,0,1,.7-2.024,2.547,2.547,0,0,1,1.89-.748,2.35,2.35,0,0,1,1.8.748,2.538,2.538,0,0,1,.66,1.937,2.77,2.77,0,0,1-.7,2.024,2.379,2.379,0,0,1-1.847.748A2.347,2.347,0,0,1-2063.537-71.24Zm.7-3.344a2.078,2.078,0,0,0-.44,1.408,2.079,2.079,0,0,0,.44,1.409,1.359,1.359,0,0,0,1.143.528,1.506,1.506,0,0,0,1.187-.528,2.326,2.326,0,0,0,.483-1.364,2.373,2.373,0,0,0-.44-1.452,1.5,1.5,0,0,0-1.187-.528A1.5,1.5,0,0,0-2062.833-74.585Zm11.782,1.936v-3.212h.879v3.036c0,1.012.4,1.541,1.187,1.541.748,0,1.143-.484,1.143-1.5h.045v-3.08h.879v3.124c0,1.453-.7,2.2-2.111,2.2C-2050.392-70.537-2051.052-71.24-2051.052-72.649Zm64.058,2.068v-5.28h.834v4.532h2.067v.748Zm-3.43,0-.483-1.32h-2.067l-.439,1.32h-.967l1.977-5.28h.969l1.978,5.28Zm-1.626-4.18-.7,2.112h1.626l-.747-2.112c-.043-.088-.043-.22-.088-.352A2.108,2.108,0,0,1-1992.049-74.761Zm-6.375,4.18v-4.532h-1.5v-.748h3.913v.748h-1.538v4.532Zm-4.924,0v-5.28h.879v5.28Zm-10.9,0v-5.28h.879v5.28Zm-7.166,0v-5.28h1.539c1.934,0,2.9.836,2.857,2.552a2.558,2.558,0,0,1-.791,1.98,3.052,3.052,0,0,1-2.155.748Zm.879-.748h.7a1.964,1.964,0,0,0,1.452-.528,1.949,1.949,0,0,0,.483-1.408,1.647,1.647,0,0,0-1.891-1.849h-.747Zm-13.673.748-.484-1.32h-2.066l-.439,1.32h-.968l1.978-5.28h.968l1.978,5.28Zm-1.627-4.18-.7,2.112h1.627l-.747-2.112a3.485,3.485,0,0,1-.088-.352A1.987,1.987,0,0,1-2035.839-74.761Zm-20.62,4.18v-5.28h.879v4.532h2.066v.748Zm-12.441,0a1.213,1.213,0,0,1-.4-.044,1.281,1.281,0,0,1-.4-.088,2.075,2.075,0,0,1-.308-.131v-.88a1.869,1.869,0,0,0,.308.175,3.079,3.079,0,0,0,.352.132c.132.044.264.044.4.088a1.086,1.086,0,0,0,.351.044,1.387,1.387,0,0,0,.836-.176.627.627,0,0,0,.264-.528.816.816,0,0,0-.088-.308l-.264-.264c-.132-.088-.265-.132-.4-.221-.177-.087-.308-.131-.483-.22a2.877,2.877,0,0,0-.483-.308,2.419,2.419,0,0,1-.4-.309,1.027,1.027,0,0,1-.264-.4,1.63,1.63,0,0,1-.088-.527,1.066,1.066,0,0,1,.176-.661,2.1,2.1,0,0,1,.44-.44,1.538,1.538,0,0,1,.615-.264,3.844,3.844,0,0,1,.7-.088,2.8,2.8,0,0,1,1.187.176v.879a1.851,1.851,0,0,0-1.143-.308,1.207,1.207,0,0,0-.4.044,3.1,3.1,0,0,0-.352.132.453.453,0,0,0-.264.22.647.647,0,0,0-.087.309.646.646,0,0,0,.087.308c.045.088.132.131.22.22a2.428,2.428,0,0,0,.351.22,5.089,5.089,0,0,0,.485.22c.176.088.351.221.527.308a1.738,1.738,0,0,1,.44.353c.088.131.219.264.264.352a1.921,1.921,0,0,1,.088.528,1.454,1.454,0,0,1-.177.66,2.062,2.062,0,0,1-.44.44,1.533,1.533,0,0,1-.615.264,3.856,3.856,0,0,1-.748.088Zm31.963-5.72a1.117,1.117,0,0,1,.175-.7.629.629,0,0,1,.528-.264,1.064,1.064,0,0,1,.572.176.712.712,0,0,0,.439.175c.22,0,.308-.132.308-.4h.439a1.113,1.113,0,0,1-.176.7.624.624,0,0,1-.526.265,1.2,1.2,0,0,1-.616-.176.82.82,0,0,0-.439-.176c-.177,0-.309.131-.265.4Z" transform="translate(2161.976 108.331)"/><path class="a" d="M-2043.884-52.01a8.421,8.421,0,0,1-2.991-2.112,10.427,10.427,0,0,1-1.934-3.389,14.216,14.216,0,0,1-.66-4.488,13.507,13.507,0,0,1,.66-4.4,9.6,9.6,0,0,1,1.846-3.344,7.944,7.944,0,0,1,2.858-2.112,8.6,8.6,0,0,1,3.649-.748,9.148,9.148,0,0,1,3.738.748,7.948,7.948,0,0,1,2.857,2.112,9.469,9.469,0,0,1,1.8,3.344,14.8,14.8,0,0,1,.615,4.4v.748h-15.52l.132.88a9.359,9.359,0,0,0,.572,2.245,6.924,6.924,0,0,0,1.451,2.376,5.584,5.584,0,0,0,2.066,1.408,6.621,6.621,0,0,0,2.594.484,7.577,7.577,0,0,0,1.979-.221,8.712,8.712,0,0,0,1.759-.7,4.767,4.767,0,0,0,1.318-1.145,2.674,2.674,0,0,0,.617-1.5l.043-.264h2.594l-.044.308a6.941,6.941,0,0,1-1.012,2.6,7.37,7.37,0,0,1-1.8,1.892,8.477,8.477,0,0,1-2.462,1.188,10.951,10.951,0,0,1-2.9.4A9.51,9.51,0,0,1-2043.884-52.01Zm9.848-11.882-.264-.967a7.5,7.5,0,0,0-1.979-3.609,5.942,5.942,0,0,0-4.22-1.584,7.012,7.012,0,0,0-2.33.4,5.29,5.29,0,0,0-1.891,1.188,6.457,6.457,0,0,0-1.407,2.024,7.116,7.116,0,0,0-.571,1.628l-.253.924Zm10.067,11.882a2.848,2.848,0,0,1-1.363-1.232,4.93,4.93,0,0,1-.571-1.936,24.941,24.941,0,0,1-.132-2.6v-11.75h-2.506v-2.6h2.506v-5.193h2.595v5.193h3.209v2.6h-3.209v12.013a8.758,8.758,0,0,0,.175,1.849,2.17,2.17,0,0,0,.483,1.012,1.236,1.236,0,0,0,.7.4,8.534,8.534,0,0,0,1.1.088h.483c.177,0,.308-.044.44-.044l.308-.044v2.508l-.265.044a2.658,2.658,0,0,1-.834.044,5.874,5.874,0,0,1-.879.044A5.488,5.488,0,0,1-2023.969-52.01Zm-32.886.176V-64.992a10.171,10.171,0,0,0-.22-2.333,3.837,3.837,0,0,0-.747-1.54,3.031,3.031,0,0,0-1.318-.88,6.542,6.542,0,0,0-2.066-.308,6.191,6.191,0,0,0-3.122.968,13.836,13.836,0,0,0-2.857,2.464l-.22.22v14.522H-2070V-72.121h2.594v2.288l1.232-.967c.087-.044.176-.132.263-.176a10.258,10.258,0,0,1,1.935-1.056,6.424,6.424,0,0,1,1.8-.484c.484-.044,1.012-.088,1.539-.088,4.66,0,6.332,3.125,6.332,7.437v13.334Z" transform="translate(2162.24 77.351)"/><path class="a" d="M180.84,5.929l-8.749,20.287a8.87,8.87,0,0,0,7.605-4.709l8.75-20.287C185.369,1.221,181.939,3.333,180.84,5.929Z" transform="translate(-12.145 -0.084)"/><path class="b" d="M-2042.083-72.561a8.87,8.87,0,0,1,7.607-4.709l-8.749,20.287c-1.1,2.552-4.529,4.665-7.607,4.709Zm-19.168-.044c1.1-2.6,4.528-4.709,7.606-4.709l-8.749,20.287A8.871,8.871,0,0,1-2070-52.318Z" transform="translate(2220.362 78.451)"/><path class="b" d="M-2069.736-47.126c0-2.64.483-4.664,4.573-4.708h5.188c2.726,0,2.55-.352,2.55-3.389v-2.2a6.4,6.4,0,0,1-5.187,2.156,6.969,6.969,0,0,1-5.187-1.893,5.747,5.747,0,0,1-1.144-1.628c-1.011-2.024-1.055-4.753-1.055-7a27.762,27.762,0,0,1,.4-5.281,6.444,6.444,0,0,1,1.8-3.3,7.6,7.6,0,0,1,5.232-1.892h10.507v21.166c0,1.893-.044,4.005-.835,5.281-1.231,2.288-2.946,2.684-5.452,2.684Zm5.936-22.751a9.6,9.6,0,0,0-.7,4.137,13.9,13.9,0,0,0,.22,2.9,3.433,3.433,0,0,0,1.011,1.98,3.246,3.246,0,0,0,2.286.748,2.814,2.814,0,0,0,2.858-1.5,13.475,13.475,0,0,0,.66-5.324h.087v-4.445h-3.561C-2062.394-71.373-2063.362-70.889-2063.8-69.877Zm62.826,22.708c0-2.641.484-4.665,4.573-4.665h5.188c2.726,0,2.55-.352,2.55-3.389v-2.2a6.4,6.4,0,0,1-5.188,2.156,6.969,6.969,0,0,1-5.188-1.893,8.033,8.033,0,0,1-1.187-1.628c-1.012-2.024-1.056-4.753-1.056-7a27.445,27.445,0,0,1,.4-5.281,6.445,6.445,0,0,1,1.8-3.3,7.6,7.6,0,0,1,5.232-1.892h10.552v21.123c0,1.892-.044,4-.835,5.28-1.231,2.289-2.946,2.685-5.451,2.685Zm5.891-22.708a9.6,9.6,0,0,0-.7,4.137,13.9,13.9,0,0,0,.221,2.9,3.433,3.433,0,0,0,1.011,1.98,3.249,3.249,0,0,0,2.287.748,2.814,2.814,0,0,0,2.857-1.5,13.475,13.475,0,0,0,.66-5.324h.087v-4.445h-3.561C-1993.676-71.373-1994.643-70.889-1995.083-69.877Zm-26.379,12.1a6.812,6.812,0,0,1-1.187-1.584,7.089,7.089,0,0,1-.748-1.849,16.8,16.8,0,0,1-.4-2.376q-.132-1.32-.132-2.641t.132-2.641a15.119,15.119,0,0,1,.4-2.332,8.588,8.588,0,0,1,.748-1.849,6.793,6.793,0,0,1,1.187-1.584,8.773,8.773,0,0,1,6.727-2.685,8.9,8.9,0,0,1,6.771,2.685,7.937,7.937,0,0,1,1.935,3.388,19.24,19.24,0,0,1,.527,5.017,27.331,27.331,0,0,1-.22,3.52,9.885,9.885,0,0,1-.747,2.729,8.469,8.469,0,0,1-1.495,2.2,8.87,8.87,0,0,1-6.771,2.684A8.865,8.865,0,0,1-2021.462-57.775Zm4.221-13.686a3.687,3.687,0,0,0-1.012,2.068,20.541,20.541,0,0,0-.219,3.169,16.727,16.727,0,0,0,.219,3.212,3.991,3.991,0,0,0,1.012,2.068,3.373,3.373,0,0,0,2.505.968,3.409,3.409,0,0,0,2.55-.968,3.3,3.3,0,0,0,1.012-1.98,17.16,17.16,0,0,0,.22-3.3,16.393,16.393,0,0,0-.22-3.256,3.883,3.883,0,0,0-1.012-1.981,3.478,3.478,0,0,0-2.55-.967A3.376,3.376,0,0,0-2017.241-71.461Zm-26.819,13.686a6.784,6.784,0,0,1-1.187-1.584,7.085,7.085,0,0,1-.748-1.849,16.673,16.673,0,0,1-.4-2.376q-.132-1.32-.132-2.641t.132-2.641a15.016,15.016,0,0,1,.4-2.332,8.582,8.582,0,0,1,.748-1.849,6.766,6.766,0,0,1,1.187-1.584,8.772,8.772,0,0,1,6.727-2.685,8.9,8.9,0,0,1,6.771,2.685,7.934,7.934,0,0,1,1.934,3.388,19.2,19.2,0,0,1,.527,5.017,27.321,27.321,0,0,1-.22,3.52,9.885,9.885,0,0,1-.747,2.729,8.469,8.469,0,0,1-1.495,2.2,8.871,8.871,0,0,1-6.771,2.684A8.864,8.864,0,0,1-2044.06-57.775Zm4.22-13.686a3.686,3.686,0,0,0-1.011,2.068,20.524,20.524,0,0,0-.22,3.169,16.647,16.647,0,0,0,.22,3.212,3.99,3.99,0,0,0,1.011,2.068,3.377,3.377,0,0,0,2.507.968,3.41,3.41,0,0,0,2.55-.968,3.309,3.309,0,0,0,1.012-1.98,17.15,17.15,0,0,0,.22-3.3,16.384,16.384,0,0,0-.22-3.256,3.888,3.888,0,0,0-1.012-1.981,3.481,3.481,0,0,0-2.55-.967A3.38,3.38,0,0,0-2039.84-71.461Z" transform="translate(2070 81.927)"/></g></svg>