<svg xmlns="http://www.w3.org/2000/svg" xmlns:xlink="http://www.w3.org/1999/xlink" width="185.886" height="39.297" viewBox="0 0 185.886 39.297">
  <defs>
    <clipPath id="clip-path">
      <rect id="Retângulo_10" data-name="Retângulo 10" width="185.886" height="39.297" transform="translate(0 0.037)" fill="#fff"/>
    </clipPath>
    <linearGradient id="linear-gradient" x1="0.5" x2="0.5" y2="1" gradientUnits="objectBoundingBox">
      <stop offset="0" stop-color="#93ff00"/>
      <stop offset="0.333" stop-color="#8afd06"/>
      <stop offset="1" stop-color="#47d332"/>
    </linearGradient>
  </defs>
  <g id="logo-topo" transform="translate(0 -0.037)" clip-path="url(#clip-path)">
    <path id="Caminho_7" data-name="Caminho 7" d="M180.84,5.929l-8.749,20.287a8.87,8.87,0,0,0,7.605-4.709l8.75-20.287C185.369,1.221,181.939,3.333,180.84,5.929Z" transform="translate(-12.145 -0.084)" fill="#fff"/>
    <path id="Caminho_8" data-name="Caminho 8" d="M128.842,40.661v.616h.132c.308,0,.44.088.44.264,0,.22-.176.308-.483.308a.776.776,0,0,1-.264-.044v.4h.308c.7,0,1.055-.22,1.055-.7a.429.429,0,0,0-.176-.4.936.936,0,0,0-.527-.132v-.264h-.088C129.106,40.705,128.974,40.661,128.842,40.661Z" transform="translate(-9.08 -2.867)" fill="#fff"/>
    <path id="Caminho_9" data-name="Caminho 9" d="M109.552,35.586a2.349,2.349,0,0,0-1.8-.748,2.548,2.548,0,0,0-1.89.748,2.774,2.774,0,0,0-.7,2.024,2.7,2.7,0,0,0,.7,1.936,2.349,2.349,0,0,0,1.8.748,2.381,2.381,0,0,0,1.847-.748,2.77,2.77,0,0,0,.7-2.024A2.537,2.537,0,0,0,109.552,35.586Zm-.659,3.432a1.5,1.5,0,0,1-1.187.528,1.359,1.359,0,0,1-1.143-.528,2.475,2.475,0,0,1,0-2.816,1.6,1.6,0,0,1,2.374,0,2.376,2.376,0,0,1,.44,1.452A2.324,2.324,0,0,1,108.893,39.018Z" transform="translate(-7.421 -2.456)" fill="#fff"/>
    <path id="Caminho_10" data-name="Caminho 10" d="M114.408,34.932h-.879v5.281h2.945v-.748h-2.066Z" transform="translate(-8.012 -2.463)" fill="#fff"/>
    <path id="Caminho_11" data-name="Caminho 11" d="M101.993,37.871a1.727,1.727,0,0,0-.44-.352c-.176-.088-.351-.22-.527-.308a5.1,5.1,0,0,1-.484-.22,2.412,2.412,0,0,1-.351-.22c-.088-.088-.176-.132-.22-.22a.585.585,0,0,1,0-.616.452.452,0,0,1,.264-.22,3.043,3.043,0,0,1,.352-.132,1.208,1.208,0,0,1,.4-.044,1.848,1.848,0,0,1,1.143.308v-.88a2.8,2.8,0,0,0-1.187-.176,3.841,3.841,0,0,0-.7.088,1.542,1.542,0,0,0-.615.264,2.084,2.084,0,0,0-.44.44,1.061,1.061,0,0,0-.176.66,1.643,1.643,0,0,0,.088.528,1.039,1.039,0,0,0,.264.4,2.418,2.418,0,0,0,.4.308,2.951,2.951,0,0,1,.483.308c.176.088.308.132.483.22.132.088.264.132.4.22l.264.264a.822.822,0,0,1,.088.308.628.628,0,0,1-.264.528,1.389,1.389,0,0,1-.836.176,1.087,1.087,0,0,1-.351-.044c-.132-.044-.264-.044-.4-.088a3.037,3.037,0,0,1-.352-.132,1.911,1.911,0,0,1-.308-.176v.88a2.143,2.143,0,0,0,.308.132,1.285,1.285,0,0,0,.4.088,1.217,1.217,0,0,0,.4.044h.308a3.857,3.857,0,0,0,.747-.088,1.536,1.536,0,0,0,.615-.264,2.05,2.05,0,0,0,.44-.44,1.454,1.454,0,0,0,.177-.66,1.9,1.9,0,0,0-.088-.528C102.213,38.135,102.081,38,101.993,37.871Z" transform="translate(-6.984 -2.453)" fill="#fff"/>
    <path id="Caminho_12" data-name="Caminho 12" d="M122.556,38.013c0,1.012-.4,1.5-1.143,1.5-.791,0-1.187-.528-1.187-1.54V34.932h-.879v3.212c0,1.408.66,2.112,2.022,2.112,1.407,0,2.111-.748,2.111-2.2V34.932H122.6v3.08Z" transform="translate(-8.423 -2.463)" fill="#fff"/>
    <path id="Caminho_13" data-name="Caminho 13" d="M127.376,35.633a2.722,2.722,0,0,0-.791,2.024,2.522,2.522,0,0,0,.7,1.892,2.272,2.272,0,0,0,1.406.7v-.044h.484V40.3a2.769,2.769,0,0,0,1.406-.308V39.2a2.4,2.4,0,0,1-1.274.352,1.74,1.74,0,0,1-1.8-1.892,1.962,1.962,0,0,1,.528-1.452,1.922,1.922,0,0,1,1.406-.528,2.18,2.18,0,0,1,1.188.308V35.1a3.5,3.5,0,0,0-1.275-.22A2.381,2.381,0,0,0,127.376,35.633Z" transform="translate(-8.933 -2.459)" fill="#fff"/>
    <path id="Caminho_14" data-name="Caminho 14" d="M171.551,34.932h-.879v5.281h.879Z" transform="translate(-12.045 -2.463)" fill="#fff"/>
    <path id="Caminho_15" data-name="Caminho 15" d="M152.769,34.932H151.23v5.281h1.451a3.051,3.051,0,0,0,2.154-.748,2.557,2.557,0,0,0,.791-1.98C155.671,35.768,154.7,34.932,152.769,34.932Zm1.495,4a1.961,1.961,0,0,1-1.451.528h-.7V35.68h.747a1.647,1.647,0,0,1,1.89,1.848A1.947,1.947,0,0,1,154.264,38.937Z" transform="translate(-10.673 -2.463)" fill="#fff"/>
    <path id="Caminho_16" data-name="Caminho 16" d="M159.819,34.932h-.879v5.281h.879Z" transform="translate(-11.217 -2.463)" fill="#fff"/>
    <path id="Caminho_17" data-name="Caminho 17" d="M189.1,34.932h-.835v5.281h2.9v-.748H189.1Z" transform="translate(-13.287 -2.463)" fill="#fff"/>
    <path id="Caminho_18" data-name="Caminho 18" d="M174.361,35.68h1.5v4.533h.879V35.68h1.538v-.748h-3.913Z" transform="translate(-12.305 -2.463)" fill="#fff"/>
    <path id="Caminho_19" data-name="Caminho 19" d="M183.267,34.932H182.3l-1.978,5.281h.967l.44-1.32H183.8l.483,1.32h.968Zm-1.319,3.212.7-2.112a2,2,0,0,0,.087-.352c.045.132.045.264.088.352l.747,2.112Z" transform="translate(-12.726 -2.463)" fill="#fff"/>
    <path id="Caminho_20" data-name="Caminho 20" d="M165.274,38.047h1.1v1.232a2.042,2.042,0,0,1-.923.22,1.625,1.625,0,0,1-1.275-.528,2.275,2.275,0,0,1,.044-2.86,1.927,1.927,0,0,1,1.363-.572,2.553,2.553,0,0,1,1.451.4v-.88a3.637,3.637,0,0,0-1.495-.264,2.785,2.785,0,0,0-2.022.792,2.721,2.721,0,0,0-.791,2.024,2.625,2.625,0,0,0,.7,1.936,2.546,2.546,0,0,0,1.89.748,3.812,3.812,0,0,0,1.846-.44V37.342h-1.978v.7Z" transform="translate(-11.484 -2.453)" fill="#fff"/>
    <path id="Caminho_21" data-name="Caminho 21" d="M136.153,34.932h-.968l-1.979,5.281h.968l.44-1.32h2.066l.484,1.32h.967Zm-1.32,3.212.7-2.112a1.911,1.911,0,0,0,.088-.352c.044.132.044.264.088.352l.747,2.112Z" transform="translate(-9.401 -2.463)" fill="#fff"/>
    <path id="Caminho_22" data-name="Caminho 22" d="M135.236,33.986a.818.818,0,0,1,.44.176,1.2,1.2,0,0,0,.615.176.625.625,0,0,0,.527-.264,1.117,1.117,0,0,0,.177-.7h-.44c0,.264-.088.4-.308.4a.71.71,0,0,1-.44-.176,1.066,1.066,0,0,0-.572-.176.627.627,0,0,0-.528.264,1.117,1.117,0,0,0-.176.7h.44C134.927,34.118,135.059,33.986,135.236,33.986Z" transform="translate(-9.494 -2.352)" fill="#fff"/>
    <path id="Caminho_23" data-name="Caminho 23" d="M145.03,35.586a2.349,2.349,0,0,0-1.8-.748,2.546,2.546,0,0,0-1.89.748,2.77,2.77,0,0,0-.7,2.024,2.694,2.694,0,0,0,.7,1.936,2.349,2.349,0,0,0,1.8.748,2.381,2.381,0,0,0,1.847-.748,2.774,2.774,0,0,0,.7-2.024A2.382,2.382,0,0,0,145.03,35.586Zm-.659,3.432a1.505,1.505,0,0,1-1.188.528,1.357,1.357,0,0,1-1.142-.528,2.475,2.475,0,0,1,0-2.816,1.6,1.6,0,0,1,2.374,0,2.377,2.377,0,0,1,.44,1.452A2.324,2.324,0,0,1,144.371,39.018Z" transform="translate(-9.925 -2.456)" fill="#fff"/>
    <path id="Caminho_24" data-name="Caminho 24" d="M152.379,25.649l.264-.044V23.1l-.308.044c-.132,0-.264.044-.44.044h-.483a8.558,8.558,0,0,1-1.1-.088,1.243,1.243,0,0,1-.7-.4,2.171,2.171,0,0,1-.483-1.012,8.77,8.77,0,0,1-.176-1.848V7.826h3.209V5.23h-3.209V.037h-2.594V5.23h-2.506v2.6h2.506v11.75a24.927,24.927,0,0,0,.132,2.6,4.923,4.923,0,0,0,.572,1.936,2.85,2.85,0,0,0,1.363,1.232,5.484,5.484,0,0,0,2.243.4,5.879,5.879,0,0,0,.879-.044A2.666,2.666,0,0,0,152.379,25.649Z" transform="translate(-10.152 0)" fill="#fff"/>
    <path id="Caminho_25" data-name="Caminho 25" d="M114.939,25.874V12.54c0-4.313-1.671-7.437-6.331-7.437-.528,0-1.055.044-1.539.088a6.435,6.435,0,0,0-1.8.484,10.3,10.3,0,0,0-1.935,1.056c-.087.044-.176.132-.263.176l-1.231.968V5.587H99.243V25.83h2.594V11.308l.22-.22a13.866,13.866,0,0,1,2.857-2.464,6.192,6.192,0,0,1,3.122-.968,6.53,6.53,0,0,1,2.066.308,3.034,3.034,0,0,1,1.319.88,3.854,3.854,0,0,1,.747,1.54,10.2,10.2,0,0,1,.22,2.332V25.874Z" transform="translate(-7.004 -0.358)" fill="#fff"/>
    <path id="Caminho_26" data-name="Caminho 26" d="M139.359,15.709a14.789,14.789,0,0,0-.615-4.4,9.473,9.473,0,0,0-1.8-3.344,7.944,7.944,0,0,0-2.858-2.112,9.149,9.149,0,0,0-3.737-.748,8.606,8.606,0,0,0-3.649.748,7.944,7.944,0,0,0-2.858,2.112,9.588,9.588,0,0,0-1.846,3.344,13.51,13.51,0,0,0-.66,4.4,14.223,14.223,0,0,0,.66,4.489,10.428,10.428,0,0,0,1.934,3.389,8.422,8.422,0,0,0,2.99,2.112,9.518,9.518,0,0,0,3.825.7,10.976,10.976,0,0,0,2.9-.4,8.495,8.495,0,0,0,2.462-1.188,7.372,7.372,0,0,0,1.8-1.892,6.951,6.951,0,0,0,1.011-2.6l.045-.308H136.37l-.044.264a2.67,2.67,0,0,1-.616,1.5,4.756,4.756,0,0,1-1.319,1.144,8.645,8.645,0,0,1-1.758.7,7.585,7.585,0,0,1-1.979.22,6.621,6.621,0,0,1-2.594-.484,5.582,5.582,0,0,1-2.066-1.408,6.935,6.935,0,0,1-1.451-2.376,9.349,9.349,0,0,1-.572-2.244l-.132-.88h15.52ZM123.84,13.86l.264-.968a7.162,7.162,0,0,1,.572-1.628,6.446,6.446,0,0,1,1.407-2.024,5.294,5.294,0,0,1,1.89-1.188,7,7,0,0,1,2.33-.4,5.941,5.941,0,0,1,4.221,1.584,7.493,7.493,0,0,1,1.979,3.608l.264.968H123.84Z" transform="translate(-8.563 -0.358)" fill="#fff"/>
    <path id="Caminho_27" data-name="Caminho 27" d="M170.528,5.929l-8.749,20.287a8.87,8.87,0,0,0,7.605-4.709l8.75-20.287C175.056,1.221,171.627,3.333,170.528,5.929Z" transform="translate(-11.417 -0.084)" fill="url(#linear-gradient)"/>
    <path id="Caminho_28" data-name="Caminho 28" d="M190.009,21.555l8.749-20.287a8.871,8.871,0,0,0-7.606,4.709L182.4,26.264C185.48,26.22,188.91,24.107,190.009,21.555Z" transform="translate(-12.873 -0.087)" fill="url(#linear-gradient)"/>
    <g id="Grupo_45" data-name="Grupo 45">
      <path id="Caminho_5" data-name="Caminho 5" d="M7.43,6.1A7.6,7.6,0,0,0,2.2,7.99a6.446,6.446,0,0,0-1.8,3.3A27.751,27.751,0,0,0,0,16.571c0,2.244.044,4.973,1.055,7A5.764,5.764,0,0,0,2.2,25.2a6.971,6.971,0,0,0,5.188,1.892,6.4,6.4,0,0,0,5.188-2.156v2.2c0,3.036.176,3.389-2.55,3.389H4.836C.747,30.565.264,32.589.264,35.229H11.651c2.506,0,4.221-.4,5.452-2.684.791-1.276.835-3.388.835-5.281V6.1Zm5.1,9.329a13.464,13.464,0,0,1-.66,5.325,2.813,2.813,0,0,1-2.858,1.5A3.247,3.247,0,0,1,6.727,21.5a3.435,3.435,0,0,1-1.011-1.98,13.938,13.938,0,0,1-.22-2.9,9.6,9.6,0,0,1,.7-4.137c.44-1.012,1.407-1.5,2.858-1.5h3.561v4.445Z" transform="translate(0 -0.428)" fill="url(#linear-gradient)"/>
      <path id="Caminho_6" data-name="Caminho 6" d="M43.154,11.034A7.941,7.941,0,0,0,41.22,7.646a8.9,8.9,0,0,0-6.771-2.684,8.774,8.774,0,0,0-6.727,2.684A6.783,6.783,0,0,0,26.535,9.23a8.561,8.561,0,0,0-.747,1.848,15.066,15.066,0,0,0-.4,2.332q-.132,1.32-.132,2.64t.132,2.64a16.711,16.711,0,0,0,.4,2.376,7.061,7.061,0,0,0,.747,1.848A6.785,6.785,0,0,0,27.722,24.5a8.866,8.866,0,0,0,6.727,2.684A8.872,8.872,0,0,0,41.22,24.5a8.452,8.452,0,0,0,1.495-2.2,9.907,9.907,0,0,0,.747-2.728,27.414,27.414,0,0,0,.22-3.52A19.213,19.213,0,0,0,43.154,11.034ZM38.01,19.351A3.305,3.305,0,0,1,37,21.331a3.411,3.411,0,0,1-2.55.968,3.377,3.377,0,0,1-2.506-.968,3.993,3.993,0,0,1-1.011-2.068,16.684,16.684,0,0,1-.22-3.212,20.557,20.557,0,0,1,.22-3.168,3.688,3.688,0,0,1,1.011-2.068,3.378,3.378,0,0,1,2.506-.968,3.48,3.48,0,0,1,2.55.968,3.882,3.882,0,0,1,1.011,1.98,16.355,16.355,0,0,1,.22,3.256A17.118,17.118,0,0,1,38.01,19.351Z" transform="translate(-1.783 -0.348)" fill="url(#linear-gradient)"/>
      <path id="Caminho_29" data-name="Caminho 29" d="M67.468,11.034a7.94,7.94,0,0,0-1.935-3.388,8.9,8.9,0,0,0-6.771-2.684,8.774,8.774,0,0,0-6.727,2.684A6.783,6.783,0,0,0,50.849,9.23a8.562,8.562,0,0,0-.747,1.848,15.067,15.067,0,0,0-.4,2.332q-.132,1.32-.132,2.64t.132,2.64a16.712,16.712,0,0,0,.4,2.376,7.062,7.062,0,0,0,.747,1.848A6.785,6.785,0,0,0,52.036,24.5a8.866,8.866,0,0,0,6.727,2.684A8.872,8.872,0,0,0,65.534,24.5a8.451,8.451,0,0,0,1.495-2.2,9.907,9.907,0,0,0,.747-2.728,27.412,27.412,0,0,0,.22-3.52A19.214,19.214,0,0,0,67.468,11.034Zm-5.144,8.317a3.306,3.306,0,0,1-1.011,1.98,3.784,3.784,0,0,1-5.056,0,3.993,3.993,0,0,1-1.011-2.068,16.685,16.685,0,0,1-.22-3.212,20.558,20.558,0,0,1,.22-3.168,3.688,3.688,0,0,1,1.011-2.068,3.378,3.378,0,0,1,2.506-.968,3.48,3.48,0,0,1,2.55.968,3.883,3.883,0,0,1,1.011,1.98,16.363,16.363,0,0,1,.22,3.256A17.126,17.126,0,0,1,62.324,19.351Z" transform="translate(-3.499 -0.348)" fill="url(#linear-gradient)"/>
      <path id="Caminho_30" data-name="Caminho 30" d="M81.366,6.1A7.6,7.6,0,0,0,76.134,7.99a6.446,6.446,0,0,0-1.8,3.3,27.439,27.439,0,0,0-.4,5.281c0,2.244.044,4.973,1.055,7A8.079,8.079,0,0,0,76.178,25.2a6.971,6.971,0,0,0,5.188,1.892,6.4,6.4,0,0,0,5.188-2.156v2.2c0,3.036.176,3.389-2.55,3.389H78.816c-4.089,0-4.572,2.024-4.572,4.665H85.631c2.506,0,4.221-.4,5.452-2.684.791-1.276.835-3.389.835-5.281V6.1Zm5.1,9.329a13.466,13.466,0,0,1-.659,5.325,2.813,2.813,0,0,1-2.858,1.5,3.247,3.247,0,0,1-2.286-.748,3.435,3.435,0,0,1-1.011-1.98,13.932,13.932,0,0,1-.22-2.9,9.6,9.6,0,0,1,.7-4.137c.44-1.012,1.407-1.5,2.858-1.5h3.561v4.445Z" transform="translate(-5.218 -0.428)" fill="url(#linear-gradient)"/>
    </g>
  </g>
</svg>
