<svg xmlns="http://www.w3.org/2000/svg" xmlns:xlink="http://www.w3.org/1999/xlink" width="445" height="94.076" viewBox="0 0 445 94.076">
  <defs>
    <style>
      .cls-1 {
        fill: #1b1b37;
      }

      .cls-2 {
        clip-path: url(#clip-path);
      }

      .cls-3 {
        fill: #fff;
      }

      .cls-4 {
        fill: url(#linear-gradient);
      }
    </style>
    <clipPath id="clip-path">
      <rect id="Retângulo_81" data-name="Retângulo 81" class="cls-1" width="445" height="94.076"/>
    </clipPath>
    <linearGradient id="linear-gradient" x1="0.5" x2="0.5" y2="1" gradientUnits="objectBoundingBox">
      <stop offset="0" stop-color="#93ff00"/>
      <stop offset="0.333" stop-color="#8afd06"/>
      <stop offset="1" stop-color="#47d332"/>
    </linearGradient>
  </defs>
  <g id="logo-destaque" class="cls-2">
    <path id="Caminho_299" data-name="Caminho 299" class="cls-1" d="M193.035,12.493,172.091,61.058c7.367,0,15.47-5.057,18.207-11.272L211.244,1.221C203.877,1.221,195.667,6.277,193.035,12.493Z" transform="translate(210.812 1.413)"/>
    <path id="Caminho_300" data-name="Caminho 300" class="cls-3" d="M129.087,40.661v1.475h.316c.736,0,1.052.211,1.052.632,0,.527-.421.737-1.157.737a1.857,1.857,0,0,1-.632-.105v.948h.736c1.684,0,2.525-.527,2.525-1.685a1.027,1.027,0,0,0-.421-.948,2.241,2.241,0,0,0-1.262-.316v-.632h-.211C129.718,40.766,129.4,40.661,129.087,40.661Z" transform="translate(157.616 49.728)"/>
    <path id="Caminho_301" data-name="Caminho 301" class="cls-1" d="M115.68,36.628a5.623,5.623,0,0,0-4.314-1.791,6.1,6.1,0,0,0-4.526,1.791,6.641,6.641,0,0,0-1.684,4.846,6.459,6.459,0,0,0,1.684,4.635,5.623,5.623,0,0,0,4.314,1.791,5.7,5.7,0,0,0,4.421-1.791,6.631,6.631,0,0,0,1.684-4.846A6.073,6.073,0,0,0,115.68,36.628ZM114.1,44.846a3.6,3.6,0,0,1-2.841,1.264,3.254,3.254,0,0,1-2.737-1.264,4.979,4.979,0,0,1-1.052-3.371,4.979,4.979,0,0,1,1.052-3.371,3.825,3.825,0,0,1,5.683,0,5.689,5.689,0,0,1,1.052,3.477A5.564,5.564,0,0,1,114.1,44.846Z" transform="translate(128.816 42.594)"/>
    <path id="Caminho_302" data-name="Caminho 302" class="cls-1" d="M115.634,34.932h-2.1V47.574h7.051V45.783h-4.946Z" transform="translate(139.073 42.71)"/>
    <path id="Caminho_303" data-name="Caminho 303" class="cls-1" d="M106.221,42.164a4.135,4.135,0,0,0-1.052-.843c-.421-.211-.841-.527-1.262-.737a12.2,12.2,0,0,1-1.159-.527,5.772,5.772,0,0,1-.841-.527c-.211-.211-.421-.316-.527-.527a1.4,1.4,0,0,1,0-1.475,1.083,1.083,0,0,1,.632-.527,7.286,7.286,0,0,1,.843-.316,2.892,2.892,0,0,1,.946-.105,4.425,4.425,0,0,1,2.737.737V35.212a6.707,6.707,0,0,0-2.841-.421,9.2,9.2,0,0,0-1.684.211,3.691,3.691,0,0,0-1.473.632,4.99,4.99,0,0,0-1.053,1.054,2.54,2.54,0,0,0-.421,1.58,3.932,3.932,0,0,0,.21,1.264,2.487,2.487,0,0,0,.632.948,5.79,5.79,0,0,0,.947.737,7.065,7.065,0,0,1,1.157.737c.421.211.736.316,1.157.527.316.211.632.316.948.527l.632.632a1.968,1.968,0,0,1,.211.737,1.5,1.5,0,0,1-.632,1.264,3.325,3.325,0,0,1-2,.421,2.6,2.6,0,0,1-.841-.105c-.317-.105-.632-.105-.948-.211a7.271,7.271,0,0,1-.842-.316,4.575,4.575,0,0,1-.737-.421v2.107a5.129,5.129,0,0,0,.737.316,3.077,3.077,0,0,0,.947.211,2.914,2.914,0,0,0,.947.105h.736a9.232,9.232,0,0,0,1.789-.211,3.676,3.676,0,0,0,1.473-.632,4.907,4.907,0,0,0,1.052-1.054,3.481,3.481,0,0,0,.423-1.58,4.555,4.555,0,0,0-.211-1.264C106.748,42.8,106.432,42.481,106.221,42.164Z" transform="translate(121.225 42.535)"/>
    <path id="Caminho_304" data-name="Caminho 304" class="cls-1" d="M127.03,42.307c0,2.423-.946,3.582-2.737,3.582-1.893,0-2.841-1.264-2.841-3.687V34.932h-2.1v7.69c0,3.371,1.58,5.057,4.842,5.057,3.369,0,5.053-1.791,5.053-5.267v-7.48h-2.1v7.374Z" transform="translate(146.2 42.71)"/>
    <path id="Caminho_305" data-name="Caminho 305" class="cls-1" d="M128.478,36.682a6.516,6.516,0,0,0-1.893,4.846,6.037,6.037,0,0,0,1.684,4.53,5.44,5.44,0,0,0,3.366,1.685v-.105h1.159v.211a6.629,6.629,0,0,0,3.366-.738v-1.9a5.744,5.744,0,0,1-3.05.843,4.166,4.166,0,0,1-4.317-4.53,4.7,4.7,0,0,1,1.264-3.477,4.6,4.6,0,0,1,3.366-1.264,5.219,5.219,0,0,1,2.844.737V35.418a8.368,8.368,0,0,0-3.053-.527A5.7,5.7,0,0,0,128.478,36.682Z" transform="translate(155.067 42.645)"/>
    <path id="Caminho_306" data-name="Caminho 306" class="cls-1" d="M172.777,34.932h-2.1V47.574h2.1Z" transform="translate(209.073 42.71)"/>
    <path id="Caminho_307" data-name="Caminho 307" class="cls-1" d="M154.915,34.932H151.23V47.574H154.7a7.3,7.3,0,0,0,5.157-1.791,6.12,6.12,0,0,0,1.894-4.741C161.861,36.934,159.545,34.932,154.915,34.932Zm3.578,9.587a4.693,4.693,0,0,1-3.473,1.264h-1.684v-9.06h1.789c3.053,0,4.526,1.475,4.526,4.425A4.66,4.66,0,0,1,158.492,44.519Z" transform="translate(185.257 42.71)"/>
    <path id="Caminho_308" data-name="Caminho 308" class="cls-1" d="M161.045,34.932h-2.1V47.574h2.1Z" transform="translate(194.702 42.71)"/>
    <path id="Caminho_309" data-name="Caminho 309" class="cls-1" d="M190.267,34.932h-2V47.574h6.946V45.783h-4.948Z" transform="translate(230.629 42.71)"/>
    <path id="Caminho_310" data-name="Caminho 310" class="cls-1" d="M174.361,36.723h3.58V47.574h2.1V36.723h3.682V34.932h-9.367Z" transform="translate(213.592 42.71)"/>
    <path id="Caminho_311" data-name="Caminho 311" class="cls-1" d="M187.373,34.932h-2.316l-4.735,12.642h2.314l1.052-3.161h4.948l1.157,3.161h2.316Zm-3.157,7.69,1.684-5.057a4.8,4.8,0,0,0,.209-.843c.107.316.107.632.211.843l1.789,5.057Z" transform="translate(220.894 42.71)"/>
    <path id="Caminho_312" data-name="Caminho 312" class="cls-1" d="M168.828,42.586h2.632v2.95a4.888,4.888,0,0,1-2.209.527A3.891,3.891,0,0,1,166.2,44.8a5.447,5.447,0,0,1,.1-6.848,4.614,4.614,0,0,1,3.262-1.369,6.112,6.112,0,0,1,3.473.948V35.422a8.706,8.706,0,0,0-3.578-.632,6.668,6.668,0,0,0-4.842,1.9,6.515,6.515,0,0,0-1.893,4.846,6.284,6.284,0,0,0,1.684,4.635,6.1,6.1,0,0,0,4.526,1.791,9.126,9.126,0,0,0,4.419-1.053v-6h-4.735v1.685Z" transform="translate(199.338 42.535)"/>
    <path id="Caminho_313" data-name="Caminho 313" class="cls-1" d="M140.26,34.932h-2.316l-4.737,12.642h2.316l1.052-3.161h4.946l1.159,3.161H145Zm-3.16,7.69,1.684-5.057a4.575,4.575,0,0,0,.211-.843c.1.316.1.632.211.843L141,42.622Z" transform="translate(163.179 42.71)"/>
    <path id="Caminho_314" data-name="Caminho 314" class="cls-1" d="M136.216,34.844a1.959,1.959,0,0,1,1.052.421,2.871,2.871,0,0,0,1.473.421A1.5,1.5,0,0,0,140,35.055a2.673,2.673,0,0,0,.423-1.685h-1.052c0,.632-.211.948-.736.948a1.7,1.7,0,0,1-1.052-.421,2.551,2.551,0,0,0-1.368-.421,1.5,1.5,0,0,0-1.264.632,2.673,2.673,0,0,0-.421,1.685h1.052C135.478,35.161,135.794,34.844,136.216,34.844Z" transform="translate(164.802 40.795)"/>
    <path id="Caminho_315" data-name="Caminho 315" class="cls-1" d="M151.158,36.628a5.623,5.623,0,0,0-4.314-1.791,6.1,6.1,0,0,0-4.526,1.791,6.632,6.632,0,0,0-1.684,4.846,6.45,6.45,0,0,0,1.684,4.635,5.623,5.623,0,0,0,4.314,1.791,5.7,5.7,0,0,0,4.421-1.791,6.64,6.64,0,0,0,1.684-4.846A5.7,5.7,0,0,0,151.158,36.628Zm-1.578,8.217a3.6,3.6,0,0,1-2.844,1.264A3.25,3.25,0,0,1,144,44.846a4.968,4.968,0,0,1-1.052-3.371A4.968,4.968,0,0,1,144,38.1a3.825,3.825,0,0,1,5.683,0,5.69,5.69,0,0,1,1.052,3.477A5.564,5.564,0,0,1,149.581,44.846Z" transform="translate(172.277 42.594)"/>
    <path id="Caminho_316" data-name="Caminho 316" class="cls-1" d="M164.268,61.35l.632-.105v-6l-.737.105c-.316,0-.632.105-1.052.105h-1.157a20.488,20.488,0,0,1-2.632-.211,2.975,2.975,0,0,1-1.684-.948,5.2,5.2,0,0,1-1.157-2.423,21,21,0,0,1-.421-4.425V18.684h7.683V12.468H156.06V.037h-6.21V12.468h-6v6.216h6V46.812a59.678,59.678,0,0,0,.316,6.216,11.784,11.784,0,0,0,1.368,4.635,6.823,6.823,0,0,0,3.262,2.95,13.129,13.129,0,0,0,5.369.948,14.075,14.075,0,0,0,2.1-.105A6.381,6.381,0,0,0,164.268,61.35Z" transform="translate(176.217 -0.037)"/>
    <path id="Caminho_317" data-name="Caminho 317" class="cls-1" d="M136.819,54.828V22.907c0-10.324-4-17.8-15.157-17.8-1.264,0-2.525.105-3.685.211a15.4,15.4,0,0,0-4.314,1.159A24.657,24.657,0,0,0,109.031,9c-.209.105-.421.316-.63.421l-2.948,2.318V6.262h-6.21v48.46h6.21V19.957l.527-.527a33.2,33.2,0,0,1,6.84-5.9,14.822,14.822,0,0,1,7.474-2.318,15.632,15.632,0,0,1,4.946.737,7.263,7.263,0,0,1,3.157,2.107,9.227,9.227,0,0,1,1.789,3.687,24.42,24.42,0,0,1,.527,5.584v31.5Z" transform="translate(121.573 6.169)"/>
    <path id="Caminho_318" data-name="Caminho 318" class="cls-1" d="M164.486,30.492a35.4,35.4,0,0,0-1.473-10.535,22.678,22.678,0,0,0-4.314-8.006,19.018,19.018,0,0,0-6.842-5.057A21.9,21.9,0,0,0,142.91,5.1a20.6,20.6,0,0,0-8.735,1.791,19.017,19.017,0,0,0-6.842,5.057,22.953,22.953,0,0,0-4.419,8.006,32.342,32.342,0,0,0-1.58,10.535,34.048,34.048,0,0,0,1.58,10.745,24.965,24.965,0,0,0,4.63,8.112,20.161,20.161,0,0,0,7.158,5.057,22.786,22.786,0,0,0,9.156,1.685,26.275,26.275,0,0,0,6.946-.948A20.336,20.336,0,0,0,156.7,52.3a17.648,17.648,0,0,0,4.314-4.53,16.64,16.64,0,0,0,2.421-6.216l.107-.738h-6.21l-.1.632a6.391,6.391,0,0,1-1.475,3.582,11.385,11.385,0,0,1-3.157,2.739,20.7,20.7,0,0,1-4.21,1.685,18.157,18.157,0,0,1-4.737.527,15.85,15.85,0,0,1-6.21-1.159,13.363,13.363,0,0,1-4.946-3.371,16.6,16.6,0,0,1-3.473-5.689,22.382,22.382,0,0,1-1.368-5.373l-.316-2.107h37.153Zm-37.153-4.425.632-2.318a17.146,17.146,0,0,1,1.368-3.9,15.432,15.432,0,0,1,3.369-4.846,12.672,12.672,0,0,1,4.526-2.844,16.767,16.767,0,0,1,5.578-.948,14.223,14.223,0,0,1,10.1,3.793,17.938,17.938,0,0,1,4.737,8.639l.632,2.318H127.333Z" transform="translate(148.634 6.169)"/>
    <path id="Caminho_319" data-name="Caminho 319" class="cls-4" d="M182.723,12.493,161.779,61.058c7.367,0,15.47-5.057,18.207-11.272L200.932,1.221C193.563,1.221,185.355,6.277,182.723,12.493Z" transform="translate(198.179 1.413)"/>
    <path id="Caminho_320" data-name="Caminho 320" class="cls-4" d="M200.612,49.834,221.556,1.268c-7.367,0-15.473,5.057-18.209,11.272L182.4,61.106C189.77,61,197.98,55.944,200.612,49.834Z" transform="translate(223.444 1.471)"/>
    <g id="Grupo_137" data-name="Grupo 137" transform="translate(0 10.956)">
      <path id="Caminho_321" data-name="Caminho 321" class="cls-3" d="M17.787,6.1c-4.421,0-9.262,1.37-12.525,4.53a15.432,15.432,0,0,0-4.315,7.9A66.435,66.435,0,0,0,0,31.17c0,5.373.105,11.9,2.526,16.75a13.8,13.8,0,0,0,2.737,3.9c3.052,3.055,7.157,4.53,12.42,4.53,5.157,0,8.946-1.37,12.42-5.162v5.267c0,7.269.421,8.112-6.1,8.112H11.578C1.789,64.671.632,69.517.632,75.838h27.26c6,0,10.1-.948,13.051-6.426,1.895-3.055,2-8.112,2-12.642V6.1ZM30,28.431c0,4.108.105,9.06-1.579,12.747C27.26,43.6,25.05,44.76,21.576,44.76A7.773,7.773,0,0,1,16.1,42.969a8.223,8.223,0,0,1-2.421-4.741,33.366,33.366,0,0,1-.526-6.953c0-4.214.526-7.585,1.684-9.9,1.053-2.423,3.368-3.582,6.841-3.582h8.525v10.64Z" transform="translate(0 -3.569)"/>
      <path id="Caminho_322" data-name="Caminho 322" class="cls-3" d="M68.1,19.5a19.009,19.009,0,0,0-4.631-8.112c-4-4.214-9.367-6.426-16.209-6.426-6.736,0-12,2.107-16.1,6.426a16.239,16.239,0,0,0-2.842,3.793A20.5,20.5,0,0,0,26.523,19.6a36.066,36.066,0,0,0-.947,5.583q-.316,3.16-.316,6.321t.316,6.321a40.005,40.005,0,0,0,.947,5.689,16.9,16.9,0,0,0,1.789,4.425,16.243,16.243,0,0,0,2.842,3.793c4,4.214,9.367,6.426,16.1,6.426s12.1-2.107,16.209-6.426a20.232,20.232,0,0,0,3.578-5.267,23.716,23.716,0,0,0,1.789-6.532,65.627,65.627,0,0,0,.526-8.428A46,46,0,0,0,68.1,19.5ZM55.783,39.41a7.913,7.913,0,0,1-2.421,4.741,8.167,8.167,0,0,1-6.1,2.318,8.085,8.085,0,0,1-6-2.318A9.56,9.56,0,0,1,38.838,39.2a39.941,39.941,0,0,1-.526-7.69,49.213,49.213,0,0,1,.526-7.585,8.83,8.83,0,0,1,2.421-4.951,8.086,8.086,0,0,1,6-2.318,8.33,8.33,0,0,1,6.1,2.318,9.294,9.294,0,0,1,2.421,4.741,39.153,39.153,0,0,1,.526,7.8A40.978,40.978,0,0,1,55.783,39.41Z" transform="translate(30.944 -4.961)"/>
      <path id="Caminho_323" data-name="Caminho 323" class="cls-3" d="M92.411,19.5a19.007,19.007,0,0,0-4.631-8.112c-4-4.214-9.367-6.426-16.208-6.426-6.736,0-12,2.107-16.1,6.426a16.239,16.239,0,0,0-2.842,3.793A20.5,20.5,0,0,0,50.837,19.6a36.068,36.068,0,0,0-.947,5.583q-.316,3.16-.316,6.321t.316,6.321a40.008,40.008,0,0,0,.947,5.689,16.906,16.906,0,0,0,1.789,4.425,16.244,16.244,0,0,0,2.842,3.793c4,4.214,9.367,6.426,16.1,6.426s12.1-2.107,16.208-6.426a20.232,20.232,0,0,0,3.578-5.267,23.716,23.716,0,0,0,1.789-6.532,65.623,65.623,0,0,0,.526-8.428A46,46,0,0,0,92.411,19.5ZM80.1,39.41a7.915,7.915,0,0,1-2.421,4.741,8.167,8.167,0,0,1-6.1,2.318,8.085,8.085,0,0,1-6-2.318A9.56,9.56,0,0,1,63.152,39.2a39.941,39.941,0,0,1-.526-7.69,49.213,49.213,0,0,1,.526-7.585,8.83,8.83,0,0,1,2.421-4.951,8.086,8.086,0,0,1,6-2.318,8.33,8.33,0,0,1,6.1,2.318A9.3,9.3,0,0,1,80.1,23.713a39.172,39.172,0,0,1,.526,7.8A41,41,0,0,1,80.1,39.41Z" transform="translate(60.729 -4.961)"/>
      <path id="Caminho_324" data-name="Caminho 324" class="cls-3" d="M91.723,6.1c-4.421,0-9.262,1.37-12.525,4.53a15.432,15.432,0,0,0-4.315,7.9,65.686,65.686,0,0,0-.947,12.642c0,5.373.105,11.9,2.526,16.75a19.34,19.34,0,0,0,2.842,3.9c3.052,3.055,7.157,4.53,12.419,4.53,5.157,0,8.946-1.37,12.42-5.162v5.267c0,7.269.421,8.112-6.1,8.112H85.618c-9.788,0-10.946,4.846-10.946,11.167h27.26c6,0,10.1-.948,13.051-6.426,1.895-3.055,2-8.112,2-12.642V6.1Zm12.209,22.334c0,4.108.105,9.06-1.579,12.747C101.2,43.6,98.985,44.76,95.512,44.76a7.773,7.773,0,0,1-5.473-1.791,8.224,8.224,0,0,1-2.421-4.741,33.352,33.352,0,0,1-.526-6.953c0-4.214.526-7.585,1.684-9.9,1.052-2.423,3.368-3.582,6.841-3.582h8.525v10.64Z" transform="translate(90.571 -3.569)"/>
    </g>
  </g>
</svg>
