<svg xmlns="http://www.w3.org/2000/svg" width="28.362" height="32.057" viewBox="0 0 28.362 32.057"><defs><style>.a{fill:none;}.b{fill:#4deb35;}</style></defs><g transform="translate(-980.17 -391.73)"><path class="a" d="M1004.015,419.058c-.012.011-.023.023-.034.035a15.19,15.19,0,0,1-21.961,0l-.033-.035a15.441,15.441,0,0,1-1.129-1.281h2.677a13.184,13.184,0,0,0,19-.078,14.393,14.393,0,0,0,0-19.88A13.2,13.2,0,0,0,993,393.734a13.332,13.332,0,0,0-6,1.435,12.954,12.954,0,0,0-4.363,3.574H980.17q.356-.546.759-1.066l.049-.064a15.172,15.172,0,0,1,3.837-3.5q.426-.271.871-.514.2-.111.406-.214c.12-.061.24-.12.362-.178l.028-.013.188-.088c.122-.055.246-.109.369-.162l.188-.079.191-.076.191-.074q.146-.055.292-.107a15.074,15.074,0,0,1,4.612-.868l.068,0c.131,0,.262-.005.394-.005H993a15.733,15.733,0,0,1,10.969,4.684c.011.011.021.022.033.033a16.4,16.4,0,0,1,.012,22.612Z"/><path class="b" d="M1004.092,396.447c-.012-.011-.022-.022-.032-.033a15.242,15.242,0,0,0-10.969-4.684h-.025c-.132,0-.263,0-.394.005l-.068,0a15.313,15.313,0,0,0-4.612.868q-.146.052-.292.107l-.191.074-.191.076-.188.079c-.123.053-.247.107-.369.162l-.188.088-.028.013c-.121.057-.242.117-.362.178q-.2.1-.406.214-.445.242-.871.514a14.779,14.779,0,0,0-3.837,3.5l-.049.064q-.395.523-.748,1.066h2.455a12.954,12.954,0,0,1,4.363-3.574,13.332,13.332,0,0,1,6-1.435,13.2,13.2,0,0,1,9.541,4.085,14.393,14.393,0,0,1,0,19.88,13.184,13.184,0,0,1-19,.078h-2.658a15.836,15.836,0,0,0,1.109,1.281l.032.035a15.19,15.19,0,0,0,21.961,0c.011-.012.022-.024.034-.035a16.4,16.4,0,0,0-.012-22.612Z" transform="translate(-0.089)"/></g></svg>