<svg xmlns="http://www.w3.org/2000/svg" xmlns:xlink="http://www.w3.org/1999/xlink" width="608" height="606" viewBox="0 0 608 606"><defs><style>.a{fill:url(#a);}.b{opacity:0.08;}.c{fill:#1c1a37;}</style><linearGradient id="a" x1="0.5" x2="0.5" y2="1" gradientUnits="objectBoundingBox"><stop offset="0" stop-color="#93ff00"/><stop offset="0.333" stop-color="#8afd06"/><stop offset="1" stop-color="#47d332"/></linearGradient></defs><g transform="translate(-867 -3993)"><path class="a" d="M304,0C136.105,0,0,135.658,0,303S136.105,606,304,606,608,470.342,608,303,471.895,0,304,0Z" transform="translate(867 3993)"/><g class="b" transform="translate(967.719 4240)"><path class="c" d="M-1228.882,5042.44c-5.72,0-12.769,1.444-20.951,4.293a182.905,182.905,0,0,0-23.451,10.358,421.111,421.111,0,0,0-36.82,21.988c-.811.531-1.51.989-2.138,1.4-11.885,7.729-75.422,54.82-76.063,55.3l-.153.113-.166.093c-.1.058-10.4,5.846-21.625,13.563-14.475,9.949-23.969,18.559-27.477,24.918-7.181,18.456-10.426,39.689-8.9,58.287a78.385,78.385,0,0,0,5.977,25.335c3.329,7.51,7.85,13.288,13.439,17.172,6.285,4.369,13.537,6.493,22.169,6.493,8.617,0,18.726-2.065,31.813-6.5,12.028-4.075,25.646-9.85,40.063-15.963,4.542-1.926,9.238-3.917,14.059-5.931a178.708,178.708,0,0,1,29.359-9.725,98.2,98.2,0,0,1,21.518-2.622,67.344,67.344,0,0,1,23.764,4.273,38.807,38.807,0,0,0,4.165,1.284c2.249.468,6.9,1.675,13.334,3.345,9.364,2.431,22.189,5.76,35.471,8.841,15.611,3.623,28.377,6.081,37.943,7.307a62.244,62.244,0,0,0,7.393.461,43.592,43.592,0,0,0,14.759-2.4,35.948,35.948,0,0,0,10.959-6.309,45,45,0,0,0,8.156-9.162,71.256,71.256,0,0,0,6.022-10.926l.037-.08a24.742,24.742,0,0,0,2.724-12.252,29.528,29.528,0,0,0-3.456-11.964c-4.266-8.44-12.115-17.274-21.182-27.115a59.845,59.845,0,0,1-15.988-26.935c-2.633-9.3-3.321-19.263-4.048-29.813-.166-2.406-.338-4.894-.535-7.42-1.2-14.773-4.46-27.931-9.677-39.106a75.77,75.77,0,0,0-16.027-22.782,62.632,62.632,0,0,0-15.05-10.764,38.484,38.484,0,0,0-6.687-2.72l-.335-.058-.362-.215a30.251,30.251,0,0,0-6.687-1.9c-4.445-.885-12.408-1.978-25.093-2.163h-.251m0-3h.289c25.877.377,33.178,4.425,33.178,4.425s44.245,11.235,49.691,78.037c1.934,24.777,1.286,43.907,19.745,62.334,18.664,20.257,31.707,35.743,22.446,54.726-7.078,15.662-18.671,30.556-42.63,30.556a64.9,64.9,0,0,1-7.763-.484c-29.838-3.823-78.35-17.736-86.989-19.533-4.842-1.007-12.56-5.494-27.317-5.494-11.572,0-27.47,2.757-49.714,12.112-36.043,15.057-64.573,28.628-87.1,28.628-8.859,0-16.786-2.1-23.881-7.029-25.135-17.471-26.208-66.957-11.525-104.526,8.966-16.625,50.36-39.83,50.36-39.83s64.114-47.531,76.214-55.4C-1301.82,5070.119-1256.473,5039.44-1228.882,5039.44Z" transform="translate(1483.904 -5020.611)"/><path class="c" d="M-1216.352,5031.844c-12.776,0-26.993,2.39-42.255,7.1a256.188,256.188,0,0,0-38.426,15.667c-11.809,5.893-21.7,11.784-27.919,15.688-6.467,4.061-10.409,6.872-10.753,7.118-.476.389-7.66,6.239-18.22,14.03a457.182,457.182,0,0,1-40.838,27.192c-10.828,6.866-22.708,15.125-33.453,23.257a275.635,275.635,0,0,0-26.524,22.288l-.046.046-.052.039a59.085,59.085,0,0,0-10.638,10.42,53.637,53.637,0,0,0-6.982,11.7,62.281,62.281,0,0,0-4.872,25.711,93.636,93.636,0,0,0,4.279,26.1,120.813,120.813,0,0,0,9.775,23.022c9.667,11.844,18.9,20.145,28.229,25.372a55.658,55.658,0,0,0,13.727,5.53,56.874,56.874,0,0,0,14.115,1.694c17,0,35.778-6.556,59.548-14.855l4.154-1.449a185.519,185.519,0,0,1,20.447-6.247,69.373,69.373,0,0,1,15.6-2.054,35.29,35.29,0,0,1,11.4,1.74,33.44,33.44,0,0,1,9.524,5.109c5.65,4.246,10.807,10.291,17.806,19.3l.017.023a87.636,87.636,0,0,0,10.1,11.7,56.914,56.914,0,0,0,11.061,8.361,52.861,52.861,0,0,0,12.753,5.232,71.971,71.971,0,0,0,15.216,2.279l.045,0,.044.006a92.571,92.571,0,0,0,12.861.908,91.282,91.282,0,0,0,20.888-2.441,100.7,100.7,0,0,0,19.017-6.6,130.789,130.789,0,0,0,31.929-21.325,176.2,176.2,0,0,0,22.886-24.83,149.222,149.222,0,0,0,12.762-19.451c2.245-4.213,3.237-9.4,2.948-15.4a64.79,64.79,0,0,0-3.367-16.751,132.586,132.586,0,0,0-10.732-23.59c-.192-.341-.344-.61-.464-.826-2.554-4.619-6.66-14.866-11.561-28.852-2.419-6.826-3.141-13.077-4.236-22.538-1.216-10.517-2.882-24.921-7.718-49.071a68.546,68.546,0,0,0-12.458-28.08,74.106,74.106,0,0,0-18.51-17.176,87.643,87.643,0,0,0-16.847-8.61,61.441,61.441,0,0,0-7.36-2.351l-.051-.012-.05-.017a83.7,83.7,0,0,0-26.8-4.115m0-1a84.477,84.477,0,0,1,27.117,4.168s46.627,10.5,55.937,57,6.953,57.464,11.916,71.471c4.922,14.045,8.987,24.169,11.494,28.7s22.242,37.6,11.622,57.523c-9.905,18.585-49.615,75.176-108.364,75.176a93.091,93.091,0,0,1-13-.918c-22.5-1.138-36.647-9.914-49.886-27.983-12.912-16.619-21.418-25.761-37.942-25.761-8.918,0-20.168,2.66-35.715,8.245-25.794,8.985-45.873,16.36-64.032,16.36-19.606,0-36.975-8.592-56.9-33.032-15.276-27.512-25.537-72.185,8.663-98.312,12.8-12.707,38.147-31.732,60.163-45.69,30.079-17.5,58.968-41.161,58.968-41.161S-1272.826,5030.844-1216.352,5030.844Z" transform="translate(1487.026 -5019.664)"/><path class="c" d="M-1227.615,5019.279a104.4,104.4,0,0,0-13.716.8l-.093.014-.093,0s-.129,0-.378,0a75.063,75.063,0,0,0-14.185,1.782,190.728,190.728,0,0,0-34.246,10.9,361.046,361.046,0,0,0-53.7,28.337c-23.168,14.6-47.573,32.8-72.536,54.109l-.01.008c-19.805,16.462-37.226,31.355-49.842,46.917a101.164,101.164,0,0,0-15.047,24.264,71.652,71.652,0,0,0-4.1,12.947,67.667,67.667,0,0,0-1.468,13.75c-.143,33.257-.037,36.262-.014,36.526a1,1,0,0,0-.99-.874,1,1,0,0,0-.993.9l1.994.034a108.617,108.617,0,0,0,5.423,25.944,71.634,71.634,0,0,0,10.493,20.286,42.165,42.165,0,0,0,18.795,14.352,54.987,54.987,0,0,0,13.006,1.4,101.25,101.25,0,0,0,22.593-2.8c6.258-1.484,11.846-3.453,14.235-5.017l.1-.067.117-.041c2.6-.9,5.244-1.845,7.8-2.757,7.69-2.746,15.641-5.585,23.6-7.679a113.382,113.382,0,0,1,12.1-2.538,83.118,83.118,0,0,1,12.454-.964,72.349,72.349,0,0,1,23.827,3.985,85.8,85.8,0,0,1,12.652,5.557,110.548,110.548,0,0,1,13.243,8.433l.03.022,1.662,1.323c13.076,10.408,24.369,19.4,36.431,25.981,13.2,7.207,25.8,10.563,39.645,10.563a109.984,109.984,0,0,0,30.145-4.616,164.862,164.862,0,0,0,57.893-30.16,149.152,149.152,0,0,0,31.449-34.972l.016-.024a61.26,61.26,0,0,0,7.983-16.58,63.249,63.249,0,0,0,2.643-17.625c.136-11.413-2.44-24.034-7.876-38.586-5.632-15.171-9.536-25.857-12.386-35.763a130.383,130.383,0,0,1-3.386-14.5,77.652,77.652,0,0,1-1.141-13.37,154.439,154.439,0,0,0-2.449-21.694,139.432,139.432,0,0,0-5.284-19.971,120.139,120.139,0,0,0-23.543-40.515,120.447,120.447,0,0,0-35.619-27.469l-.016-.009c-16.283-8.7-34.664-10.529-47.216-10.529h0m0-1c12.395,0,31.108,1.787,47.687,10.647a120.254,120.254,0,0,1,59.652,68.547,146.4,146.4,0,0,1,7.788,41.975c-.1,17.233,6.455,35.3,16.851,63.3,10.219,27.354,11.9,51.936-2.86,73.7-13.3,20.854-41.159,51.188-89.909,65.556-50.047,14.2-74.446-6.114-108.782-33.429-41.026-30.225-72.205-15.179-104.752-3.9-6.131,4.013-32.6,11.01-50.677,6.541-32.617-12.075-35.415-61.482-35.415-61.482s-.165,1.871,0-36.644c.165-38.471,31.8-66.212,70.819-98.644,109.126-93.141,169.775-95.362,175.315-95.362.278,0,.417.005.417.005A104.233,104.233,0,0,1-1227.614,5018.279Z" transform="translate(1488.103 -5018.279)"/></g></g></svg>