<svg xmlns="http://www.w3.org/2000/svg" xmlns:xlink="http://www.w3.org/1999/xlink" width="1920" height="270" viewBox="0 0 1920 270"><defs><style>.a,.e{fill:#fff;}.b{fill:#1b1b37;}.c{clip-path:url(#a);}.d{opacity:0.08;}.e{opacity:0.996;}.f{clip-path:url(#b);}</style><clipPath id="a"><rect class="a" width="131" height="150" transform="translate(-0.02 0.18)"/></clipPath><clipPath id="b"><rect class="a" width="131" height="150"/></clipPath></defs><g transform="translate(0 -2842)"><rect class="b" width="1920" height="270" transform="translate(0 2842)"/><g class="c" transform="translate(1769.82 2972.98) rotate(-90)"><g class="d" transform="translate(1.384 0.179)"><path class="a" d="M-1343.906,5152.993c-5.593,0-13.207-2.356-22.633-7-7.565-3.729-14.3-7.93-17.923-10.187l-1.015-.631c-5.692-3.525-34.516-23.855-36.569-25.3-.683-.368-5.393-2.933-10.5-6.272-7.505-4.909-12.275-9.1-14.179-12.46l-.047-.082-.036-.087a62.317,62.317,0,0,1-4.506-28.014,37.187,37.187,0,0,1,3.121-12.521,21.349,21.349,0,0,1,7.475-9.032,21.554,21.554,0,0,1,12.286-3.46c4.457,0,9.6.989,16.186,3.113,5.873,1.895,12.455,4.552,19.423,7.365,2.177.879,4.428,1.788,6.735,2.705a85.843,85.843,0,0,0,13.609,4.3,46.379,46.379,0,0,0,9.69,1.13,30.661,30.661,0,0,0,10.467-1.8,20.962,20.962,0,0,1,2.349-.678c1.01-.2,3.328-.773,6.262-1.5,9.271-2.291,24.787-6.125,35.585-7.442h.011a34.368,34.368,0,0,1,3.9-.231,24.86,24.86,0,0,1,8.053,1.255,20.428,20.428,0,0,1,6.146,3.368,27.959,27.959,0,0,1,7.6,10.17,13.583,13.583,0,0,1,1.6,7,15.743,15.743,0,0,1-1.985,6.646c-2.226,4.192-6.143,8.393-10.656,13.057l-.045.044a24.359,24.359,0,0,0-6.92,11.068c-1.176,3.953-1.48,8.154-1.833,13.02-.08,1.107-.163,2.252-.259,3.421v.005a52.909,52.909,0,0,1-4.978,18.979,37.445,37.445,0,0,1-8.412,11.271,29.877,29.877,0,0,1-11.431,6.684c-.935.422-5.081,1.949-16.415,2.106h-.16Zm-100.161-63.256c1.678,2.887,6.22,6.8,13.146,11.337,5.386,3.524,10.323,6.167,10.372,6.194l.082.044.076.054c.307.217,30.791,21.727,36.492,25.257l1.023.636c3.576,2.229,10.232,6.378,17.663,10.042,9.009,4.441,16.178,6.693,21.307,6.693h.121c11.349-.158,15.023-1.751,15.246-1.854l.173-.1.165-.028a18.942,18.942,0,0,0,3.205-1.242,30.042,30.042,0,0,0,7.207-4.907,34.541,34.541,0,0,0,7.662-10.368,50.036,50.036,0,0,0,4.625-17.8c.095-1.154.177-2.29.256-3.389.35-4.83.68-9.392,1.95-13.658a27.232,27.232,0,0,1,7.706-12.365c4.343-4.488,8.1-8.516,10.141-12.355,2.088-3.932,2.2-7.292.35-10.894l-.02-.041a25.077,25.077,0,0,0-6.77-9.132,17.433,17.433,0,0,0-5.246-2.875,21.883,21.883,0,0,0-7.082-1.094,31.372,31.372,0,0,0-3.546.21c-10.618,1.3-26.022,5.1-35.226,7.376-3.089.763-5.32,1.315-6.4,1.528a19.371,19.371,0,0,0-2,.586,33.754,33.754,0,0,1-11.4,1.952,49.358,49.358,0,0,1-10.323-1.2,88.788,88.788,0,0,1-14.088-4.442c-2.312-.919-4.566-1.83-6.746-2.71-6.917-2.792-13.451-5.43-19.221-7.291-6.279-2.025-11.13-2.969-15.265-2.969a18.65,18.65,0,0,0-10.63,2.962,18.4,18.4,0,0,0-6.411,7.8,34.214,34.214,0,0,0-2.852,11.512A59.212,59.212,0,0,0-1444.067,5089.736Z" transform="translate(1466.266 -5010.092)"/><path class="a" d="M-1352.63,5165.656h0a73.682,73.682,0,0,1-20.566-3.289,127.566,127.566,0,0,1-18.589-7.217,152.093,152.093,0,0,1-18.686-10.5l-.025-.018a252.778,252.778,0,0,0-28.228-18.758l-.016-.009c-11.067-6.681-22.956-15.276-28.928-20.914a26.626,26.626,0,0,1-8.738-10.461,28.192,28.192,0,0,1-2.422-12.146,41.835,41.835,0,0,1,2.1-12.2,54.781,54.781,0,0,1,4.794-10.74l.023-.039.029-.034c4.728-5.521,9.26-9.4,13.853-11.847a28.67,28.67,0,0,1,13.829-3.417c8.321,0,17.4,3.018,28.889,6.837l1.991.662c7.566,2.587,12.8,3.741,16.978,3.741a15.3,15.3,0,0,0,9.462-2.944c2.621-1.875,5.047-4.586,8.352-8.635a33.446,33.446,0,0,1,10.453-9.419,27.087,27.087,0,0,1,6.349-2.481,37.139,37.139,0,0,1,7.48-1.07,47.6,47.6,0,0,1,6.282-.42,48.432,48.432,0,0,1,19.548,4.214,64.064,64.064,0,0,1,15.56,9.891,83.125,83.125,0,0,1,11.111,11.475,68.846,68.846,0,0,1,6.211,9.015c2.126,3.8,2.082,9-.131,15.45a60.182,60.182,0,0,1-5.231,10.952c-.089.15-.163.274-.219.37a103.351,103.351,0,0,0-5.478,13.033c-1.122,3.016-1.446,5.675-1.981,10.082-.586,4.821-1.388,11.424-3.716,22.495a31.539,31.539,0,0,1-6.176,13.236,35.93,35.93,0,0,1-9.143,8.067,40.979,40.979,0,0,1-11.88,5.112A43.013,43.013,0,0,1-1352.63,5165.656Zm-57.267-21.818a151.544,151.544,0,0,0,18.553,10.416,126.531,126.531,0,0,0,18.436,7.156,72.683,72.683,0,0,0,20.274,3.246h0a42,42,0,0,0,12.854-1.88l.024-.008.025,0a40.654,40.654,0,0,0,11.612-5.006,34.906,34.906,0,0,0,8.874-7.839,30.55,30.55,0,0,0,5.968-12.8c2.319-11.028,3.119-17.606,3.7-22.409.526-4.326.873-7.184,2.036-10.309a103.992,103.992,0,0,1,5.551-13.187c.057-.1.132-.225.223-.378a59.19,59.19,0,0,0,5.145-10.766,28.287,28.287,0,0,0,1.612-7.634,12.836,12.836,0,0,0-1.407-7,67.844,67.844,0,0,0-6.119-8.878,82.078,82.078,0,0,0-10.976-11.337,63.051,63.051,0,0,0-15.316-9.738,47.442,47.442,0,0,0-19.147-4.129,46.584,46.584,0,0,0-6.17.415l-.042,0a36.131,36.131,0,0,0-7.3,1.041,26.1,26.1,0,0,0-6.117,2.39,32.5,32.5,0,0,0-10.145,9.158l-.009.011c-3.36,4.117-5.836,6.881-8.549,8.821a16.332,16.332,0,0,1-4.573,2.335,17.722,17.722,0,0,1-5.471.795c-4.292,0-9.627-1.17-17.3-3.793l-1.987-.66c-11.406-3.792-20.415-6.787-28.574-6.787a28.578,28.578,0,0,0-6.773.774,27.487,27.487,0,0,0-6.585,2.525c-4.472,2.386-8.9,6.175-13.535,11.581a53.761,53.761,0,0,0-4.683,10.5,40.846,40.846,0,0,0-2.05,11.9,27.2,27.2,0,0,0,2.332,11.718,25.651,25.651,0,0,0,8.442,10.088l.026.019.023.022c5.917,5.592,17.748,14.145,28.773,20.8A253.75,253.75,0,0,1-1409.9,5143.838Z" transform="translate(1482.505 -5020.262)"/><path class="e" d="M-1363.119,5168.78a53.427,53.427,0,0,1-6.679-.372h-.173c-1.456,0-9.437-.282-23.6-5.86a177.431,177.431,0,0,1-25.912-13.016,304.469,304.469,0,0,1-34.914-24.794c-9.543-7.551-17.938-14.386-24.048-21.561a46.825,46.825,0,0,1-7.365-11.314,30.771,30.771,0,0,1-2.753-12.572c-.03-6.729-.041-11.555-.032-14.343,0-.943.008-1.627.016-2.031a4.1,4.1,0,0,1,.021-.446,48.819,48.819,0,0,1,2.653-12.064,33.145,33.145,0,0,1,5.188-9.539,21.117,21.117,0,0,1,9.481-6.873l.025-.009.026-.006a28.605,28.605,0,0,1,6.5-.671,51.936,51.936,0,0,1,11.061,1.3,27.815,27.815,0,0,1,7.084,2.385c1.236.408,2.487.833,3.7,1.245,3.67,1.248,7.465,2.538,11.244,3.484a47.3,47.3,0,0,0,11.536,1.569,35.314,35.314,0,0,0,11.122-1.771,45.86,45.86,0,0,0,12.156-6.255l.788-.6c6.31-4.781,11.759-8.91,17.621-11.957a40.859,40.859,0,0,1,19.483-4.938,56.22,56.22,0,0,1,14.727,2.144,81.538,81.538,0,0,1,28.124,13.949,70.31,70.31,0,0,1,15.3,16.194,28.375,28.375,0,0,1,3.958,7.83,28.555,28.555,0,0,1,1.313,8.324c.067,5.336-1.19,11.217-3.844,17.979-2.694,6.909-4.561,11.774-5.918,16.266a41.5,41.5,0,0,0-2.132,12.465v.025a65.412,65.412,0,0,1-2.983,17.041,56.752,56.752,0,0,1-6.867,14.265,55.68,55.68,0,0,1-10.1,11.338,59.745,59.745,0,0,1-12.681,8.266C-1348,5167.927-1356.988,5168.78-1363.119,5168.78Zm-6.626-1.374.044.006a52.554,52.554,0,0,0,6.582.368c6.023,0,14.842-.834,22.654-4.81l.008,0a58.752,58.752,0,0,0,12.473-8.129,54.692,54.692,0,0,0,9.922-11.134,55.754,55.754,0,0,0,6.746-14.014,64.406,64.406,0,0,0,2.936-16.768,42.476,42.476,0,0,1,2.175-12.748c1.368-4.526,3.242-9.409,5.944-16.341,2.606-6.64,3.84-12.4,3.775-17.6a27.552,27.552,0,0,0-1.265-8.032,27.377,27.377,0,0,0-3.823-7.559l-.008-.012a69.3,69.3,0,0,0-15.082-15.966,80.534,80.534,0,0,0-27.776-13.775,55.224,55.224,0,0,0-14.462-2.108c-14.471,0-24.192,7.366-36.5,16.692l-.81.613a46.855,46.855,0,0,1-12.427,6.393,36.3,36.3,0,0,1-11.432,1.821c-8.079,0-15.716-2.6-23.1-5.107-1.225-.417-2.493-.848-3.743-1.26l-.057-.019-.051-.032a26.894,26.894,0,0,0-6.828-2.29,50.929,50.929,0,0,0-10.841-1.279,27.674,27.674,0,0,0-6.241.638,20.133,20.133,0,0,0-9,6.538,32.115,32.115,0,0,0-5.027,9.239,47.527,47.527,0,0,0-2.607,11.857l-1,.018a.5.5,0,0,0,.5.446.5.5,0,0,0,.495-.437c-.011.126-.061,1.521.007,16.679a29.79,29.79,0,0,0,2.667,12.171,45.844,45.844,0,0,0,7.213,11.072c6.051,7.106,14.408,13.908,23.91,21.427l.005,0a303.516,303.516,0,0,0,34.8,24.715,176.393,176.393,0,0,0,25.764,12.943c14,5.512,21.813,5.791,23.238,5.791.12,0,.181,0,.182,0Z" transform="translate(1488.103 -5018.278)"/></g></g><g class="f" transform="translate(150 2981) rotate(90)"><g class="d" transform="translate(1.404 -0.001)"><path class="a" d="M106.092,113.553c-5.592,0-13.207-2.357-22.632-7-7.565-3.729-14.3-7.93-17.923-10.186l-1.015-.632c-5.692-3.525-34.516-23.855-36.569-25.3-.683-.368-5.393-2.933-10.5-6.272C9.949,59.248,5.179,55.056,3.276,51.7l-.047-.082-.036-.087A62.314,62.314,0,0,1-1.313,23.513,37.186,37.186,0,0,1,1.808,10.992,21.347,21.347,0,0,1,9.283,1.96,21.554,21.554,0,0,1,21.569-1.5c4.457,0,9.6.989,16.186,3.113,5.873,1.894,12.455,4.551,19.423,7.365,2.177.879,4.428,1.787,6.735,2.705a85.865,85.865,0,0,0,13.609,4.3,46.374,46.374,0,0,0,9.69,1.13,30.657,30.657,0,0,0,10.467-1.8,21.05,21.05,0,0,1,2.349-.678c1.01-.2,3.328-.773,6.262-1.5,9.271-2.291,24.787-6.125,35.585-7.442h.011a34.374,34.374,0,0,1,3.9-.231,24.857,24.857,0,0,1,8.053,1.255,20.425,20.425,0,0,1,6.146,3.368,27.956,27.956,0,0,1,7.6,10.17,13.582,13.582,0,0,1,1.6,7A15.742,15.742,0,0,1,167.2,33.9c-2.226,4.192-6.143,8.393-10.656,13.057L156.5,47a24.361,24.361,0,0,0-6.92,11.068c-1.176,3.953-1.48,8.155-1.833,13.019-.08,1.107-.163,2.252-.259,3.421v.005a52.911,52.911,0,0,1-4.978,18.979,37.45,37.45,0,0,1-8.412,11.271,29.878,29.878,0,0,1-11.431,6.683c-.935.422-5.081,1.949-16.415,2.106h-.16ZM5.931,50.3c1.679,2.89,6.228,6.812,13.165,11.349,5.385,3.522,10.3,6.155,10.353,6.181l.082.044.076.054c.307.217,30.791,21.726,36.493,25.257l1.023.636C70.7,96.048,77.355,100.2,84.786,103.86c9.009,4.441,16.178,6.693,21.306,6.693h.121c11.349-.158,15.023-1.752,15.246-1.854l.173-.1.165-.028A18.911,18.911,0,0,0,125,107.332a30.045,30.045,0,0,0,7.207-4.907,34.546,34.546,0,0,0,7.662-10.369,50.035,50.035,0,0,0,4.625-17.8c.095-1.154.177-2.29.256-3.389.35-4.83.68-9.392,1.95-13.658a27.235,27.235,0,0,1,7.706-12.365c4.343-4.488,8.1-8.516,10.141-12.355,2.088-3.932,2.2-7.292.35-10.893l-.02-.041a25.081,25.081,0,0,0-6.77-9.132,17.433,17.433,0,0,0-5.246-2.874,21.873,21.873,0,0,0-7.082-1.094,31.364,31.364,0,0,0-3.546.211c-10.618,1.3-26.022,5.1-35.226,7.376-3.088.763-5.32,1.315-6.4,1.528a19.31,19.31,0,0,0-2,.586,33.754,33.754,0,0,1-11.4,1.952,49.361,49.361,0,0,1-10.323-1.2A88.832,88.832,0,0,1,62.8,14.47c-2.312-.919-4.566-1.83-6.746-2.71C49.138,8.968,42.6,6.33,36.834,4.469,30.555,2.443,25.7,1.5,21.569,1.5a18.651,18.651,0,0,0-10.63,2.962,18.4,18.4,0,0,0-6.41,7.8A34.218,34.218,0,0,0,1.676,23.77,59.213,59.213,0,0,0,5.931,50.3Z" transform="translate(16.268 29.347)"/><path class="a" d="M125.7,134.812h0a73.689,73.689,0,0,1-20.566-3.289,127.577,127.577,0,0,1-18.589-7.217,152.162,152.162,0,0,1-18.686-10.5l-.025-.018A252.736,252.736,0,0,0,39.607,95.034l-.016-.009C28.523,88.344,16.635,79.749,10.662,74.112A26.627,26.627,0,0,1,1.925,63.65,28.192,28.192,0,0,1-.5,51.5a41.838,41.838,0,0,1,2.1-12.2,54.77,54.77,0,0,1,4.794-10.74l.023-.039.029-.034c4.728-5.521,9.26-9.4,13.853-11.847A28.667,28.667,0,0,1,34.128,13.23c8.321,0,17.4,3.017,28.889,6.838l1.991.661c7.566,2.587,12.8,3.741,16.978,3.741a15.3,15.3,0,0,0,9.462-2.943c2.621-1.875,5.047-4.586,8.351-8.635a33.45,33.45,0,0,1,10.453-9.419A27.082,27.082,0,0,1,116.6.991a37.115,37.115,0,0,1,7.48-1.07A47.614,47.614,0,0,1,130.364-.5a48.436,48.436,0,0,1,19.549,4.214,64.064,64.064,0,0,1,15.56,9.891A83.118,83.118,0,0,1,176.583,25.08a68.876,68.876,0,0,1,6.211,9.015c2.126,3.8,2.082,9-.131,15.45A60.162,60.162,0,0,1,177.432,60.5c-.089.15-.163.274-.218.37A103.361,103.361,0,0,0,171.736,73.9c-1.122,3.016-1.445,5.675-1.981,10.082-.586,4.821-1.388,11.424-3.716,22.494a31.54,31.54,0,0,1-6.176,13.236,35.926,35.926,0,0,1-9.143,8.067,40.985,40.985,0,0,1-11.88,5.112A43.021,43.021,0,0,1,125.7,134.812ZM68.437,112.994A151.523,151.523,0,0,0,86.99,123.41a126.547,126.547,0,0,0,18.436,7.156,72.736,72.736,0,0,0,20.278,3.245,42,42,0,0,0,12.854-1.88l.048-.013a40.644,40.644,0,0,0,11.612-5.006,34.91,34.91,0,0,0,8.874-7.839,30.55,30.55,0,0,0,5.968-12.8c2.319-11.029,3.118-17.606,3.7-22.409.526-4.326.873-7.184,2.036-10.309a104.01,104.01,0,0,1,5.551-13.188c.057-.1.132-.225.223-.378a59.205,59.205,0,0,0,5.145-10.766,28.287,28.287,0,0,0,1.612-7.634,12.835,12.835,0,0,0-1.407-7A67.84,67.84,0,0,0,175.8,25.7a82.117,82.117,0,0,0-10.976-11.337A63.067,63.067,0,0,0,149.51,4.63,47.443,47.443,0,0,0,130.364.5a46.613,46.613,0,0,0-6.17.415l-.042,0a36.156,36.156,0,0,0-7.3,1.041,26.1,26.1,0,0,0-6.117,2.39,32.5,32.5,0,0,0-10.145,9.158l-.009.011c-3.36,4.117-5.836,6.88-8.549,8.821a16.33,16.33,0,0,1-4.573,2.335,17.717,17.717,0,0,1-5.471.795c-4.292,0-9.627-1.17-17.3-3.793l-1.987-.66C51.3,17.225,42.287,14.23,34.128,14.23A28.593,28.593,0,0,0,27.355,15a27.492,27.492,0,0,0-6.585,2.525C16.3,19.915,11.87,23.7,7.235,29.109a53.753,53.753,0,0,0-4.683,10.5A40.842,40.842,0,0,0,.5,51.516,27.2,27.2,0,0,0,2.834,63.234a25.65,25.65,0,0,0,8.442,10.088l.026.019.023.022c5.917,5.592,17.748,14.145,28.773,20.8A253.7,253.7,0,0,1,68.437,112.994Z" transform="translate(4.171 10.582)"/><path class="e" d="M124.984,150.5a53.4,53.4,0,0,1-6.679-.372l-.173,0c-1.456,0-9.437-.282-23.6-5.86a177.406,177.406,0,0,1-25.912-13.016A304.5,304.5,0,0,1,33.7,106.461C24.159,98.909,15.763,92.075,9.654,84.9A46.824,46.824,0,0,1,2.288,73.586,30.77,30.77,0,0,1-.465,61.014C-.5,54.285-.506,49.459-.5,46.671c0-.944.008-1.627.016-2.031a4.118,4.118,0,0,1,.021-.446A48.814,48.814,0,0,1,2.192,32.129a33.14,33.14,0,0,1,5.188-9.539,21.115,21.115,0,0,1,9.481-6.873l.025-.009.026-.006a28.61,28.61,0,0,1,6.5-.671,51.944,51.944,0,0,1,11.061,1.3,27.812,27.812,0,0,1,7.084,2.385c1.236.408,2.487.833,3.7,1.245,3.67,1.248,7.466,2.538,11.244,3.484A47.3,47.3,0,0,0,68.03,25.018a35.312,35.312,0,0,0,11.122-1.771,45.869,45.869,0,0,0,12.156-6.255l.788-.6c6.31-4.781,11.759-8.91,17.621-11.957A40.859,40.859,0,0,1,129.2-.5a56.206,56.206,0,0,1,14.727,2.144A81.533,81.533,0,0,1,172.05,15.593a70.308,70.308,0,0,1,15.3,16.194,27.709,27.709,0,0,1,5.27,16.153c.067,5.336-1.19,11.217-3.844,17.979-2.694,6.909-4.561,11.774-5.918,16.266a41.509,41.509,0,0,0-2.132,12.465v.026a65.419,65.419,0,0,1-2.983,17.041,56.762,56.762,0,0,1-6.867,14.265,55.689,55.689,0,0,1-10.1,11.338,59.741,59.741,0,0,1-12.681,8.266C140.1,149.648,131.115,150.5,124.984,150.5Zm-6.626-1.374.044.006a52.628,52.628,0,0,0,6.582.368c6.023,0,14.842-.834,22.653-4.809l.008,0a58.743,58.743,0,0,0,12.473-8.129,54.689,54.689,0,0,0,9.922-11.134,55.762,55.762,0,0,0,6.746-14.014,64.413,64.413,0,0,0,2.936-16.768A42.47,42.47,0,0,1,181.9,81.9c1.368-4.527,3.242-9.409,5.944-16.341,2.606-6.64,3.84-12.4,3.775-17.6a26.711,26.711,0,0,0-5.089-15.591l-.008-.012a69.3,69.3,0,0,0-15.082-15.966A80.533,80.533,0,0,0,143.661,2.608,55.216,55.216,0,0,0,129.2.5c-14.471,0-24.192,7.366-36.5,16.692l-.81.613A46.859,46.859,0,0,1,79.462,24.2,36.3,36.3,0,0,1,68.03,26.018c-8.079,0-15.716-2.6-23.1-5.107-1.226-.417-2.493-.847-3.743-1.26l-.057-.019-.051-.032a26.875,26.875,0,0,0-6.828-2.29,50.917,50.917,0,0,0-10.841-1.279,27.667,27.667,0,0,0-6.241.638A20.136,20.136,0,0,0,8.16,23.218,32.148,32.148,0,0,0,3.133,32.47,47.443,47.443,0,0,0,.534,44.3l-1,.018a.5.5,0,0,0,.991.01c-.011.126-.061,1.521.007,16.679A29.79,29.79,0,0,0,3.2,73.18a45.847,45.847,0,0,0,7.213,11.072c6.051,7.106,14.408,13.908,23.91,21.427l.005,0A303.5,303.5,0,0,0,69.13,130.4,176.4,176.4,0,0,0,94.894,143.34c14,5.512,21.813,5.791,23.238,5.791.119,0,.181,0,.182,0Z"/></g></g></g></svg>