<svg xmlns="http://www.w3.org/2000/svg" width="85.78" height="14.161" viewBox="0 0 85.78 14.161">
  <defs>
    <style>
      .cls-1 {
        fill: #fff;
      }
    </style>
  </defs>
  <path id="vetor-hero-two" class="cls-1" d="M1864.929-756.02a1,1,0,0,1-.707-.293l-8.5-8.5-8.5,8.5a1,1,0,0,1-.707.293,1,1,0,0,1-.707-.293l-8.5-8.5-8.5,8.5a1,1,0,0,1-.754.292,1,1,0,0,1-.723-.36l-10.087-12.161a1,1,0,0,1,.131-1.408,1,1,0,0,1,1.408.131l9.386,11.316,8.435-8.436a1,1,0,0,1,.707-.293,1,1,0,0,1,.707.293l8.5,8.5,8.5-8.5a1,1,0,0,1,1.414,0l8.5,8.5,8.5-8.5a1,1,0,0,1,.707-.293,1,1,0,0,1,.707.293l8.5,8.5,8.5-8.5a1,1,0,0,1,.707-.293,1,1,0,0,1,.707.293l9.212,9.212a1,1,0,0,1,0,1.414,1,1,0,0,1-1.414,0l-8.5-8.5-8.5,8.5a1,1,0,0,1-.707.293,1,1,0,0,1-.707-.293l-8.5-8.5-8.5,8.5A1,1,0,0,1,1864.929-756.02Z" transform="translate(-1816.996 770.181)"/>
</svg>
