<svg xmlns="http://www.w3.org/2000/svg" width="762.543" height="125.305" viewBox="0 0 762.543 125.305">
  <defs>
    <style>
      .cls-1 {
        fill: #90fc33;
      }
    </style>
  </defs>
  <path id="vetor-caminho" class="cls-1" d="M785.029-225.4a20.8,20.8,0,0,1-9.082-2.2,48.6,48.6,0,0,1-9.6-6.584c-.668-.547-1.3-1.064-1.891-1.528-5.344-4.21-16.765-19.129-25.459-33.259l-.009-.016c-3.818-6.554-5.876-14.46-6.126-23.524a48.62,48.62,0,0,0-15.368-1.651,47.868,47.868,0,0,0-12.377,2.584,29.9,29.9,0,0,1-6.292,1.231,39.962,39.962,0,0,1-7.7-.029,33.177,33.177,0,0,1-16.02-5.687l-.044-.033a23.81,23.81,0,0,0-9.748-4.73,41.192,41.192,0,0,0-11.474-.942c-7.982.335-16.377,2.324-23.123,3.922l-.728.172a275.176,275.176,0,0,1-33.8,9.7c-9.929,2.212-18.863,3.68-22.759,3.74-.367.006-.79.014-1.263.023a147.178,147.178,0,0,1-21.082-.8,55.7,55.7,0,0,1-9.551-1.994,31.162,31.162,0,0,1-10.7,6.856,41.983,41.983,0,0,1-15.87,2.743,37.576,37.576,0,0,1-15.6-3.15c-4.384-1.958-8.338-4.718-13.343-8.211a209.469,209.469,0,0,0-23.7-14.731,154.47,154.47,0,0,0-19.944-9.065A62.152,62.152,0,0,0,425.2-316.4a35.713,35.713,0,0,0-15.136,2.2A42.1,42.1,0,0,0,396.1-305.1a.748.748,0,0,1-.057.049,66.817,66.817,0,0,1-17.068,9.321A99.526,99.526,0,0,1,361.909-291a108.781,108.781,0,0,1-18.421,1.924H307.743a.75.75,0,0,1-.75-.75.75.75,0,0,1,.75-.75h35.749a107.314,107.314,0,0,0,18.172-1.9,97.974,97.974,0,0,0,16.792-4.65,65.337,65.337,0,0,0,16.639-9.078,43.538,43.538,0,0,1,14.429-9.394,37.185,37.185,0,0,1,15.759-2.293,63.615,63.615,0,0,1,17.6,3.922,155.925,155.925,0,0,1,20.141,9.152A210.8,210.8,0,0,1,486.878-290c9.789,6.832,15.7,10.956,28.1,11.091a40.51,40.51,0,0,0,15.305-2.639,30.023,30.023,0,0,0,9.662-6.005q-.216-.081-.427-.163c-3.762-1.467-6.4-3.41-7.834-5.775a7.792,7.792,0,0,1-1.285-4.1,5.223,5.223,0,0,1,1.188-3.276,8.924,8.924,0,0,1,5.184-2.868,12,12,0,0,1,6.138.272,6.6,6.6,0,0,1,2.879,1.818,4.9,4.9,0,0,1,1.243,3.236c.069,3.241-1.506,6.884-4.362,10.179a56.131,56.131,0,0,0,8.608,1.728,143.613,143.613,0,0,0,20.86.791c.476-.009.9-.018,1.269-.024,7.085-.11,34.446-5.4,56.1-13.362a.742.742,0,0,1,.086-.026l.772-.183c6.808-1.613,15.28-3.62,23.406-3.961a42.664,42.664,0,0,1,11.889.983A25.3,25.3,0,0,1,676-297.265a32.037,32.037,0,0,0,15.275,5.4A34.743,34.743,0,0,0,704.65-293a49.227,49.227,0,0,1,12.747-2.655,49.816,49.816,0,0,1,15.437,1.593q0-.219,0-.438c.013-9.787,2.061-20.889,6.088-33l0-.012a38.909,38.909,0,0,1,7.59-13.254,29.5,29.5,0,0,1,9.552-7.084,31.705,31.705,0,0,1,16.818-2.635.755.755,0,0,1,.115.024c2.665.772,24.209,4.72,33.742,5.474h.016c.371.037.764.059,1.18.082a18.868,18.868,0,0,1,10.325,3.411c5.632,3.592,12.385,10.286,20.645,20.464a57.5,57.5,0,0,1,10.212,17.569,29.307,29.307,0,0,1,1.415,13.928,23.124,23.124,0,0,1-3.864,9.661,21.546,21.546,0,0,1-5.9,5.8.752.752,0,0,1-.076.043c-4.491,2.214-9.11,6.091-14.957,11-2.744,2.3-5.855,4.914-9.314,7.647l-.012.009c-.942.714-1.8,1.378-2.633,2.02-3.666,2.833-6.315,4.88-9.535,6.087-3.3,1.235-7.115,1.536-12.766,1.005a65.807,65.807,0,0,1-19.545-2.524,39.305,39.305,0,0,1-7.438-3.134,32.619,32.619,0,0,1-6.03-4.292,34.136,34.136,0,0,1-8.307-11.69,58.957,58.957,0,0,1-4.228-15.2q0-.023-.006-.046-.313-3.416-.372-6.63a19.172,19.172,0,0,1-9.474-1.809q-.859-.268-1.705-.51c.3,8.616,2.28,16.124,5.9,22.348,4.235,6.882,9.207,14.113,14,20.364,4.621,6.023,8.667,10.578,11.1,12.495.6.473,1.241,1,1.915,1.548,5.191,4.255,12.3,10.082,21.623,8.009a.753.753,0,0,1,.117-.016,18.888,18.888,0,0,0,8.526-2.3,18.724,18.724,0,0,0,4.421-3.825,19.037,19.037,0,0,1,2.125-2.09,79.166,79.166,0,0,1,11.751-8.817,32.616,32.616,0,0,1,8.518-3.344,38.917,38.917,0,0,0,11.449-6.838,44.281,44.281,0,0,0,10.468-13.786c.009-.018.019-.036.03-.053,1.463-2.4,2.86-5.124,4.211-7.753,2.575-5.013,5.238-10.2,8.7-14a18.7,18.7,0,0,1,6.012-4.568,15.7,15.7,0,0,1,7.866-1.33h.006a163.384,163.384,0,0,1,17.8,2.87c8.174,1.63,16.626,3.315,24.946,3.033,5.232-.218,23.993-.29,46.667-.29,44.969,0,105.35.285,106.261.29a.75.75,0,0,1,.746.754.75.75,0,0,1-.75.746h0c-.912,0-61.359-.29-106.315-.29-22.631,0-41.329.072-46.545.289h-.006c-8.5.289-17.035-1.414-25.294-3.061a162.291,162.291,0,0,0-17.633-2.846,14.028,14.028,0,0,0-7.117,1.2,17.243,17.243,0,0,0-5.53,4.215c-3.329,3.656-5.946,8.75-8.476,13.676-1.358,2.644-2.762,5.377-4.248,7.821A45.758,45.758,0,0,1,836.8-253.424a40.418,40.418,0,0,1-11.928,7.117.724.724,0,0,1-.077.025c-5.981,1.592-9.654,3.2-19.727,11.869l-.026.021a17.857,17.857,0,0,0-1.962,1.937,19.969,19.969,0,0,1-4.767,4.1,20.286,20.286,0,0,1-9.132,2.5A19.332,19.332,0,0,1,785.029-225.4Zm6.482-22.361c.024,0,.047,0,.071,0,5.43.512,9.06.239,12.135-.913,3.008-1.127,5.582-3.116,9.144-5.869.833-.644,1.694-1.309,2.639-2.025,3.439-2.718,6.538-5.319,9.272-7.614,5.908-4.959,10.578-8.878,15.218-11.176a20.048,20.048,0,0,0,5.448-5.374,21.634,21.634,0,0,0,3.614-9.04,27.83,27.83,0,0,0-1.356-13.218,56.02,56.02,0,0,0-9.954-17.1,154.263,154.263,0,0,0-11.9-13.263,54.958,54.958,0,0,0-8.388-6.882,17.337,17.337,0,0,0-9.6-3.178c-.43-.024-.836-.047-1.237-.087-9.541-.756-31.039-4.692-33.976-5.511a30.167,30.167,0,0,0-15.943,2.515,28.01,28.01,0,0,0-9.068,6.727,37.419,37.419,0,0,0-7.287,12.741c-3.975,11.956-6,22.9-6.01,32.523q0,.419,0,.834,1.106.307,2.234.661a.759.759,0,0,1,.089.034,17.7,17.7,0,0,0,8.878,1.689,64.047,64.047,0,0,1,.995-11.655,39.632,39.632,0,0,1,4.246-12.245c3.365-5.97,7.1-7.918,7.262-8l.04-.019c.087-.038,8.793-3.877,14.182-9.234,4.855-4.826,4.978-4.868,11.41-7.069,1.12-.383,2.39-.818,3.926-1.359a17.556,17.556,0,0,1,9.71-.154,39.962,39.962,0,0,1,11.359,4.757,58.774,58.774,0,0,1,11.37,8.934,62.024,62.024,0,0,1,9.664,12.472,54.241,54.241,0,0,1,6.613,16.262,25.08,25.08,0,0,1-.14,12.039,13.536,13.536,0,0,1-2.258,4.491,9.92,9.92,0,0,1-3.424,2.827l-.057.025c-.225.088-.565.2-1.037.353a63.574,63.574,0,0,0-6.914,2.645,43.7,43.7,0,0,1-7.314,8.757,35.8,35.8,0,0,1-6.745,4.684,38.132,38.132,0,0,1-8.514,3.395,31.809,31.809,0,0,1-4.282.816q-.189.063-.379.124a30.081,30.081,0,0,1-10.922,1.3,34.389,34.389,0,0,1-10.341-2.246,26.859,26.859,0,0,1-8.175-4.871.754.754,0,0,1-.062-.063,56.342,56.342,0,0,1-10.124-15.784,34.767,34.767,0,0,1-2.62-11.868,19.893,19.893,0,0,1-5.7,1.966l-.26.044q.054,3.215.367,6.647a57.459,57.459,0,0,0,4.111,14.8,32.668,32.668,0,0,0,7.943,11.189,31.113,31.113,0,0,0,5.753,4.093,37.8,37.8,0,0,0,7.154,3.013,64.4,64.4,0,0,0,19.132,2.457Zm-24.662-17.577a25.386,25.386,0,0,0,7.683,4.559,32.874,32.874,0,0,0,9.884,2.147,30.862,30.862,0,0,0,4.152-.033,20.349,20.349,0,0,1-7.007-2.482,25.346,25.346,0,0,1-7.351-6.1,23.523,23.523,0,0,1-4.1-7.854c-1.758-5.6-2.1-12.407-2.081-21.572,0-.012,0-.025,0-.037a31.257,31.257,0,0,1,1.625-8.729c-2.576,1.181-5.915,4.094-10.728,9.279q-.022.024-.047.046a29.578,29.578,0,0,1-4.393,3.314,32.959,32.959,0,0,0,2.528,12.143A54.821,54.821,0,0,0,766.849-265.333Zm2.682-31.316c-.018,9.013.313,15.687,2.013,21.1a22.052,22.052,0,0,0,3.835,7.364,23.882,23.882,0,0,0,6.931,5.742l0,0a20.893,20.893,0,0,0,12.987,2.413,23.439,23.439,0,0,0,8.757-5.313,61.322,61.322,0,0,1,17.4-12.047q.283-.452.563-.925a38.365,38.365,0,0,0,3.313-7.112,29.81,29.81,0,0,0,1.6-8.088c.377-7.337-2.3-14.218-7.961-20.454a37.989,37.989,0,0,0-14.818-10.122,39.431,39.431,0,0,0-8.2-2.116,41.125,41.125,0,0,0-8.24-.368,39.723,39.723,0,0,0-15.021,3.812,28.684,28.684,0,0,0-10.8,8.73,41.788,41.788,0,0,0-5.127,9.249,33.319,33.319,0,0,0-2.217,9.871q-.01.152-.019.3a28.994,28.994,0,0,0,3.318-2.6,64.6,64.6,0,0,1,8.267-7.822,13.431,13.431,0,0,1,4.281-2.285,22.073,22.073,0,0,1,1.582-2.938,20.161,20.161,0,0,1,8.383-7.374,23.864,23.864,0,0,1,6.435-2,27.213,27.213,0,0,1,6.437-.281,20.8,20.8,0,0,1,10.272,3.254,26.294,26.294,0,0,1,6.869,7.155c1.816,2.695,3.988,6.808,4.018,11.1a10.687,10.687,0,0,1-1.247,5.216,12.1,12.1,0,0,1-4.279,4.412,18.02,18.02,0,0,1-7.661,2.965,11.627,11.627,0,0,1-6.584-1.279c-4.04-2.03-7.754-6.153-12.457-11.373q-1.192-1.323-2.47-2.729l-.106-.1c-3.009-2.868-5.017-4.782-7.405-4.782l-.137,0a4.781,4.781,0,0,0-.571.053A28.62,28.62,0,0,0,769.53-296.649Zm50.25,21.75a59.727,59.727,0,0,0-14.671,10.628l-.007.007a24.637,24.637,0,0,1-3.56,2.848,36.735,36.735,0,0,0,12.626-7.15A40.843,40.843,0,0,0,819.781-274.9Zm-29.764-53.237a42.473,42.473,0,0,1,6.163.448,40.932,40.932,0,0,1,8.509,2.2,39.473,39.473,0,0,1,15.4,10.517c5.938,6.542,8.746,13.789,8.348,21.539a31.308,31.308,0,0,1-1.683,8.5,39.354,39.354,0,0,1-2.941,6.524c2.241-.924,4.025-1.5,5.124-1.862.408-.133.735-.239.923-.311a8.44,8.44,0,0,0,2.878-2.393,12.051,12.051,0,0,0,2-4,23.6,23.6,0,0,0,.107-11.308,52.761,52.761,0,0,0-6.438-15.8,60.525,60.525,0,0,0-9.43-12.17,57.277,57.277,0,0,0-11.079-8.706,38.456,38.456,0,0,0-10.921-4.582,16.333,16.333,0,0,0-8.88.106c-1.542.544-2.816.98-3.939,1.364-6.229,2.131-6.229,2.131-10.839,6.713a44.844,44.844,0,0,1-9.446,6.885c-2.773,1.58-4.894,2.527-5.167,2.647a11.788,11.788,0,0,0-2.145,1.613,23.327,23.327,0,0,0-4.544,5.9,38.364,38.364,0,0,0-4.03,11.77,62.485,62.485,0,0,0-.95,11.082l.011,0A18.768,18.768,0,0,0,753-293.662q.015-.677.06-1.35a34.82,34.82,0,0,1,2.316-10.315,43.287,43.287,0,0,1,5.309-9.583,30.182,30.182,0,0,1,11.365-9.2,41.235,41.235,0,0,1,15.593-3.96Q788.827-328.137,790.017-328.137ZM772.19-307.565c2.984,0,5.281,2.189,8.435,5.2l.126.12.036.037q1.295,1.419,2.493,2.755c4.6,5.1,8.229,9.133,12.016,11.037a10.171,10.171,0,0,0,5.757,1.127,16.58,16.58,0,0,0,7.014-2.74,9.426,9.426,0,0,0,4.828-8.35,15,15,0,0,0-1.093-5.243,25.421,25.421,0,0,0-2.668-5.03,24.652,24.652,0,0,0-6.435-6.73l-.046-.031a19.536,19.536,0,0,0-9.527-2.99,25.709,25.709,0,0,0-6.082.265,22.37,22.37,0,0,0-6.031,1.871,18.849,18.849,0,0,0-8.831,8.706ZM539.4-302.5a11.347,11.347,0,0,0-2.32.241,7.447,7.447,0,0,0-4.322,2.339,3.757,3.757,0,0,0-.857,2.355,6.34,6.34,0,0,0,1.067,3.3c1.261,2.077,3.649,3.812,7.1,5.156q.505.2,1.042.383a19.084,19.084,0,0,0,3.216-4.661,11.261,11.261,0,0,0,1.21-4.985,4,4,0,0,0-3.106-3.665A9.509,9.509,0,0,0,539.4-302.5Z" transform="translate(-306.993 350.701)"/>
</svg>
