<svg xmlns="http://www.w3.org/2000/svg" width="1920" height="755" viewBox="0 0 1920 755"><defs><style>.a{fill:#f0efef;}.b{opacity:0.3;}.c{fill:#84ef2a;}</style></defs><g transform="translate(0 -3886)"><rect class="a" width="1920" height="755" transform="translate(0 3886)"/><g class="b" transform="translate(1920 3942.07) rotate(90)"><path class="c" d="M-1069.556,5042.44c-10.083,0-22.448,2.525-36.752,7.5a316.722,316.722,0,0,0-40.626,17.939c-26.744,13.846-50.682,29.52-63.543,37.94-1.4.915-2.6,1.706-3.684,2.407-20.5,13.335-129.876,94.4-130.979,95.214l-.153.113-.166.093c-.177.1-17.91,10.069-37.307,23.4a311.931,311.931,0,0,0-28.781,22c-9.433,8.281-15.926,15.61-19.3,21.787-12.5,32.079-18.159,69.02-15.512,101.378a161.08,161.08,0,0,0,3.6,23.445,117.773,117.773,0,0,0,6.866,20.845c5.891,13.289,13.92,23.531,23.865,30.444,11.189,7.778,24.069,11.559,39.377,11.559,15.069,0,32.682-3.589,55.429-11.3,20.771-7.037,44.237-16.988,69.081-27.522,7.815-3.314,15.9-6.741,24.19-10.206h0c9.289-3.907,18.351-7.315,26.932-10.13,8.01-2.627,15.821-4.809,23.214-6.484a189.871,189.871,0,0,1,19.815-3.445,144.951,144.951,0,0,1,16.73-1.013,111.264,111.264,0,0,1,24.087,2.518,137.585,137.585,0,0,1,16.1,4.716,67.812,67.812,0,0,0,7.428,2.282c3.819.794,11.8,2.866,22.848,5.733,16.123,4.185,38.2,9.916,61.082,15.224,12.486,2.9,23.992,5.381,34.2,7.382,11.87,2.328,22.4,4.086,31.3,5.227a109.3,109.3,0,0,0,12.993.811,85.361,85.361,0,0,0,13.994-1.113,70.047,70.047,0,0,0,12.13-3.136,63.74,63.74,0,0,0,10.479-4.874,64.921,64.921,0,0,0,9.034-6.358,79.585,79.585,0,0,0,14.429-16.2,124.711,124.711,0,0,0,10.545-19.126l.037-.08a44.674,44.674,0,0,0,4.9-22.131c-.328-6.864-2.348-13.883-6.177-21.457-7.47-14.779-21.09-30.109-36.815-47.176a106.526,106.526,0,0,1-17.265-22.193,100.554,100.554,0,0,1-9.723-23.241,156.2,156.2,0,0,1-4.655-24.539c-1-8.416-1.6-17.11-2.233-26.316-.286-4.149-.582-8.438-.922-12.8a227.638,227.638,0,0,0-6.239-38.1,172.644,172.644,0,0,0-10.686-30.088,132.357,132.357,0,0,0-28.149-39.853,114.262,114.262,0,0,0-14.239-11.6,102.941,102.941,0,0,0-12.2-7.216,67.015,67.015,0,0,0-11.733-4.739l-.356-.076-.349-.2c-.222-.114-3.472-1.726-11.658-3.39a170.471,170.471,0,0,0-17.129-2.46c-8-.782-17.046-1.25-26.885-1.394l-.467,0m0-3,.5,0c44.523.648,57.084,7.613,57.084,7.613s76.125,19.331,85.5,134.266c3.327,42.631,2.213,75.543,33.972,107.249,32.113,34.853,54.554,61.5,38.619,94.158-13.427,29.708-36.294,57.813-86.7,51.739-51.337-6.577-134.8-30.515-149.67-33.607-8.331-1.733-21.611-9.454-47-9.454-19.91,0-47.264,4.743-85.536,20.84-62.015,25.906-111.1,49.255-149.856,49.255-15.243,0-28.882-3.609-41.09-12.095-43.247-30.059-45.092-115.2-19.83-179.841,15.426-28.6,86.647-68.531,86.647-68.531s110.311-81.779,131.13-95.319C-1195.05,5092.227-1117.028,5039.44-1069.556,5039.44Z" transform="translate(1508.335 -5007.044)"/><path class="c" d="M-1027.58,5031.844a213.132,213.132,0,0,0-36.584,3.368,298.753,298.753,0,0,0-36.344,8.89,441.537,441.537,0,0,0-66.231,27.008c-20.345,10.153-37.383,20.3-48.094,27.028-11.263,7.072-18.079,11.944-18.536,12.272-.635.519-13.035,10.627-31.337,24.131-10.982,8.1-21.912,15.827-32.485,22.958-13.214,8.911-25.907,16.916-37.725,23.792-18.65,11.825-39.113,26.051-57.62,40.057-9.35,7.077-17.974,13.919-25.634,20.338-7.972,6.682-14.727,12.762-20.075,18.072l-.046.046-.051.039a102.368,102.368,0,0,0-18.433,18.056,93,93,0,0,0-12.106,20.286c-5.784,13.29-8.624,28.273-8.442,44.534a161.838,161.838,0,0,0,7.393,45.111,204.017,204.017,0,0,0,7.677,20.96,208.48,208.48,0,0,0,9.231,18.846c16.706,20.478,32.674,34.83,48.817,43.876a102.346,102.346,0,0,0,11.867,5.7,94,94,0,0,0,11.927,3.887,98.543,98.543,0,0,0,24.462,2.937c29.376,0,61.731-11.3,102.693-25.6q3.532-1.233,7.148-2.494h0a318.671,318.671,0,0,1,35.1-10.726,118.67,118.67,0,0,1,26.674-3.516,60.013,60.013,0,0,1,19.389,2.957,56.82,56.82,0,0,1,16.183,8.683c9.656,7.256,18.495,17.621,30.5,33.07l.017.023a151.436,151.436,0,0,0,17.461,20.231,98.651,98.651,0,0,0,19.171,14.49,91.685,91.685,0,0,0,22.113,9.074,124.533,124.533,0,0,0,26.33,3.944l.045,0,.044.006a159.971,159.971,0,0,0,22.228,1.57,157.8,157.8,0,0,0,36.1-4.22,173.973,173.973,0,0,0,32.856-11.4c18.931-8.727,37.473-21.11,55.112-36.806a292.869,292.869,0,0,0,21.8-21.612c6.142-6.749,12.085-13.886,17.667-21.21,4.782-6.276,9.258-12.634,13.3-18.9,3.364-5.207,6.377-10.278,8.716-14.667a43.7,43.7,0,0,0,4.344-12.805,62.544,62.544,0,0,0,.812-14.069,112.179,112.179,0,0,0-5.828-29.011,200.87,200.87,0,0,0-10.325-25.2c-3.457-7.112-6.541-12.577-8.2-15.512-.33-.584-.591-1.046-.794-1.415-4.376-7.913-11.423-25.506-19.843-49.533a102.875,102.875,0,0,1-4.465-17.52c-1.055-6.123-1.819-12.732-2.787-21.1-2.094-18.108-4.963-42.907-13.288-84.488a122.951,122.951,0,0,0-8.653-26.94,116.426,116.426,0,0,0-12.933-21.69,128.235,128.235,0,0,0-32.05-29.722,148.869,148.869,0,0,0-15.772-9.042c-4.38-2.169-8.874-4.132-13.358-5.833a106.329,106.329,0,0,0-12.715-4.056l-.051-.012-.05-.017a132.216,132.216,0,0,0-22.7-5.426,160.534,160.534,0,0,0-23.633-1.692m0-1a145.341,145.341,0,0,1,46.656,7.171s80.224,18.063,96.242,98.063,11.963,98.871,20.5,122.971c8.468,24.165,15.463,41.583,19.776,49.383s38.268,64.688,20,98.971c-17.043,31.978-85.364,129.344-186.445,129.344a160.237,160.237,0,0,1-22.368-1.579c-38.713-1.958-63.052-17.057-85.831-48.147-22.216-28.594-36.85-44.323-65.28-44.323-15.344,0-34.7,4.578-61.45,14.186-44.38,15.459-78.927,28.148-110.17,28.148-33.734,0-63.618-14.783-97.9-56.833-26.283-47.336-43.939-124.2,14.9-169.15,22.022-21.862,65.634-54.6,103.514-78.612,51.752-30.1,101.458-70.819,101.458-70.819S-1124.747,5030.844-1027.58,5030.844Z" transform="translate(1493.289 -5011.608)"/><path class="c" d="M-1039.922,5019.279a180.33,180.33,0,0,0-23.7,1.392l-.093.014-.093,0s-.232-.009-.678-.009c-2.209,0-10.51.222-24.55,3.081-7.935,1.616-16.44,3.814-25.279,6.535-10.768,3.314-22.131,7.436-33.774,12.251-29.029,12.005-60.151,28.428-92.5,48.811-19,11.974-38.672,25.479-58.462,40.141-21.659,16.048-44.007,33.885-66.423,53.018l-.01.008c-15.668,13.023-32.224,26.894-47.283,40.719-7.724,7.091-14.468,13.626-20.618,19.977-6.766,6.989-12.639,13.573-17.954,20.128-11.639,14.357-20.141,28.069-25.994,41.921a123.991,123.991,0,0,0-7.1,22.407,117.174,117.174,0,0,0-2.542,23.8c-.248,57.667-.061,62.526-.021,62.915a.993.993,0,0,0-.985-.849.993.993,0,0,0-.99.885l1.994.035c0,.053.316,5.387,1.626,13.553a189.212,189.212,0,0,0,7.759,31.324c4.738,13.736,10.849,25.539,18.164,35.083a81.332,81.332,0,0,0,14.283,14.592,68.438,68.438,0,0,0,18.4,10.333,95.28,95.28,0,0,0,22.589,2.434,156.991,156.991,0,0,0,20.216-1.387,186.88,186.88,0,0,0,18.823-3.452,146.625,146.625,0,0,0,15.26-4.438,48.368,48.368,0,0,0,9.461-4.291l.1-.068.117-.041c4.484-1.554,9.028-3.177,13.422-4.746,13.216-4.719,26.883-9.6,40.546-13.193a194.564,194.564,0,0,1,20.74-4.35,142.4,142.4,0,0,1,21.321-1.651,125.405,125.405,0,0,1,20,1.593,126.881,126.881,0,0,1,20.764,5.225,146.824,146.824,0,0,1,21.661,9.515,189.473,189.473,0,0,1,22.7,14.454l.03.022,2.859,2.275c44.246,35.217,79.194,63.034,131.343,63.034a165.6,165.6,0,0,0,24.595-1.923,223.628,223.628,0,0,0,27.463-6.046c37.412-11.026,71.013-28.531,99.871-52.027a266.46,266.46,0,0,0,32.323-31.179,243.793,243.793,0,0,0,21.94-29.165l.016-.024a110.124,110.124,0,0,0,8.152-14.141,103.067,103.067,0,0,0,5.677-14.581,104.869,104.869,0,0,0,3.366-15.032,115.424,115.424,0,0,0,1.213-15.493c.236-19.727-4.211-41.527-13.6-66.648-9.684-26.088-16.4-44.462-21.295-61.481a223.584,223.584,0,0,1-5.808-24.868,132.849,132.849,0,0,1-1.954-22.9,266.418,266.418,0,0,0-4.226-37.446,240.58,240.58,0,0,0-9.119-34.464,207.427,207.427,0,0,0-40.648-69.951,205.507,205.507,0,0,0-28.564-26.637,213.306,213.306,0,0,0-32.932-20.788l-.017-.009a151,151,0,0,0-43.437-14.775,207.871,207.871,0,0,0-38.143-3.425h0m0-1c21.326,0,53.525,3.074,82.05,18.319,46.658,23.828,83.9,63.934,102.634,117.939a251.853,251.853,0,0,1,13.4,72.219c-.177,29.649,11.107,60.729,28.994,108.917,17.583,47.063,20.481,89.357-4.922,126.8-22.885,35.881-70.816,88.072-154.694,112.793-86.108,24.426-128.088-10.52-187.165-57.517-30.882-22.75-58.517-30.593-84.529-30.592-33.444,0-64.2,12.968-95.7,23.885-10.548,6.9-56.1,18.942-87.192,11.254-56.118-20.776-60.933-105.784-60.933-105.784s0,.024-.006.024c-.039,0-.254-2.625.006-63.071.284-66.191,54.717-113.922,121.849-169.721,187.758-160.253,292.106-164.076,301.639-164.076.478,0,.718.01.718.01A179.27,179.27,0,0,1-1039.92,5018.279Z" transform="translate(1488.103 -5018.279)"/></g></g></svg>